<svg width="32" height="32" fill="none" xmlns="http://www.w3.org/2000/svg"><path d="M15.999 29.998c9.334 0 13.999-6.268 13.999-14 0-7.73-4.665-13.998-14-13.998C6.665 2 2 8.268 2 15.999c0 7.731 4.664 13.999 13.999 13.999z" fill="url(#a)"/><path d="M15.999 29.998c9.334 0 13.999-6.268 13.999-14 0-7.73-4.665-13.998-14-13.998C6.665 2 2 8.268 2 15.999c0 7.731 4.664 13.999 13.999 13.999z" fill="url(#b)" fill-opacity=".6"/><defs><radialGradient id="a" cx="0" cy="0" r="1" gradientUnits="userSpaceOnUse" gradientTransform="matrix(-2 25.00003 -25.00003 -2 21.5 10)"><stop stop-color="#66DCF7"/><stop offset=".514" stop-color="#64D0E8"/><stop offset=".714" stop-color="#4BB"/><stop offset=".889" stop-color="#437A8B"/></radialGradient><radialGradient id="b" cx="0" cy="0" r="1" gradientUnits="userSpaceOnUse" gradientTransform="rotate(135 6.1 10.728) scale(45.2548)"><stop offset=".315" stop-opacity="0"/><stop offset="1"/></radialGradient></defs></svg>