<svg width="32" height="32" fill="none" xmlns="http://www.w3.org/2000/svg"><g filter="url(#a)"><path d="M15.999 30c9.334 0 13.999-6.268 13.999-14 0-7.73-4.665-13.998-14-13.998C6.665 2.002 2 8.269 2 16.001 2 23.732 6.664 30 15.999 30z" fill="url(#b)"/><path d="M15.999 30c9.334 0 13.999-6.268 13.999-14 0-7.73-4.665-13.998-14-13.998C6.665 2.002 2 8.269 2 16.001 2 23.732 6.664 30 15.999 30z" fill="url(#c)"/><path d="M15.999 30c9.334 0 13.999-6.268 13.999-14 0-7.73-4.665-13.998-14-13.998C6.665 2.002 2 8.269 2 16.001 2 23.732 6.664 30 15.999 30z" fill="url(#d)"/></g><path d="M16 2.75c-.529 0-1.04.02-1.535.061a.75.75 0 0 1-.123-1.495c.537-.044 1.09-.066 1.658-.066.568 0 1.12.022 1.658.066a.75.75 0 0 1-.123 1.495A18.806 18.806 0 0 0 16 2.75zm5.045-.056a.75.75 0 0 1 .964-.443c1.098.406 2.097.93 2.994 1.554a.75.75 0 1 1-.857 1.231 11.791 11.791 0 0 0-2.658-1.379.75.75 0 0 1-.443-.963zm-10.09 0a.75.75 0 0 1-.443.963c-.983.364-1.868.829-2.658 1.379a.75.75 0 0 1-.857-1.23A13.292 13.292 0 0 1 9.99 2.25a.75.75 0 0 1 .964.443zM4.867 6.809a.75.75 0 0 1 .193 1.043c-.56.815-1.02 1.709-1.377 2.668a.75.75 0 1 1-1.405-.525 13.76 13.76 0 0 1 1.546-2.993.75.75 0 0 1 1.043-.193zm22.266 0a.75.75 0 0 1 1.043.193 13.755 13.755 0 0 1 1.546 2.993.75.75 0 1 1-1.405.525 12.257 12.257 0 0 0-1.377-2.668.75.75 0 0 1 .193-1.043zm-25 6.848a.75.75 0 0 1 .682.812 17.714 17.714 0 0 0 0 3.062.75.75 0 1 1-1.494.13 19.21 19.21 0 0 1 0-3.322.75.75 0 0 1 .812-.682zm27.734 0a.75.75 0 0 1 .812.682 19.198 19.198 0 0 1 0 3.322.75.75 0 1 1-1.494-.13 17.682 17.682 0 0 0 0-3.062.75.75 0 0 1 .682-.812zm-.585 7.383a.75.75 0 0 1 .44.965 13.755 13.755 0 0 1-1.546 2.993.75.75 0 0 1-1.236-.85c.56-.814 1.02-1.709 1.377-2.668a.75.75 0 0 1 .965-.44zm-26.564 0a.75.75 0 0 1 .965.44c.358.96.817 1.854 1.377 2.668a.75.75 0 0 1-1.236.85 13.76 13.76 0 0 1-1.546-2.994.75.75 0 0 1 .44-.964zm4.092 6.11a.75.75 0 0 1 1.044-.186c.79.55 1.675 1.015 2.658 1.379a.75.75 0 1 1-.52 1.406 13.29 13.29 0 0 1-2.995-1.554.75.75 0 0 1-.187-1.044zm18.38 0a.75.75 0 0 1-.187 1.045 13.29 13.29 0 0 1-2.994 1.554.75.75 0 1 1-.52-1.406 11.794 11.794 0 0 0 2.657-1.379.75.75 0 0 1 1.044.187zm-11.534 2.725a.75.75 0 0 1 .809-.686c.495.04 1.006.061 1.535.061.529 0 1.04-.02 1.535-.061a.75.75 0 0 1 .123 1.495c-.537.044-1.09.066-1.658.066-.568 0-1.12-.022-1.658-.066a.75.75 0 0 1-.686-.81z" fill="#BC644F"/><defs><radialGradient id="b" cx="0" cy="0" r="1" gradientUnits="userSpaceOnUse" gradientTransform="rotate(131.76 10.322 8.87) scale(28.1525)"><stop stop-color="#FFBD73"/><stop offset="1" stop-color="#FF9D7A"/></radialGradient><radialGradient id="c" cx="0" cy="0" r="1" gradientUnits="userSpaceOnUse" gradientTransform="rotate(103.851 3.714 13.412) scale(17.4924 19.9329)"><stop offset=".686" stop-color="#FF8C91" stop-opacity="0"/><stop offset="1" stop-color="#FF73AF"/></radialGradient><radialGradient id="d" cx="0" cy="0" r="1" gradientUnits="userSpaceOnUse" gradientTransform="matrix(-5.81246 5.31253 -8.4504 -9.24562 26.438 7.891)"><stop stop-color="#FFDD8B"/><stop offset="1" stop-color="#FFDD8B" stop-opacity="0"/></radialGradient><filter id="a" x="2" y="2.002" width="28.398" height="27.998" filterUnits="userSpaceOnUse" color-interpolation-filters="sRGB"><feFlood flood-opacity="0" result="BackgroundImageFix"/><feBlend in="SourceGraphic" in2="BackgroundImageFix" result="shape"/><feColorMatrix in="SourceAlpha" values="0 0 0 0 0 0 0 0 0 0 0 0 0 0 0 0 0 0 127 0" result="hardAlpha"/><feOffset dx=".4"/><feGaussianBlur stdDeviation=".4"/><feComposite in2="hardAlpha" operator="arithmetic" k2="-1" k3="1"/><feColorMatrix values="0 0 0 0 0.92549 0 0 0 0 0.635294 0 0 0 0 0.494118 0 0 0 1 0"/><feBlend in2="shape" result="effect1_innerShadow_14396_1043"/></filter></defs></svg>