<svg width="32" height="32" fill="none" xmlns="http://www.w3.org/2000/svg"><g filter="url(#a)"><path fill-rule="evenodd" clip-rule="evenodd" d="M29.998 15.999c0 3.865-1.166 7.364-3.498 9.897V28.5L26 30h-1.5l-1.226-1.634c-1.985 1.041-4.41 1.632-7.275 1.632-1.084 0-2.105-.085-3.063-.246L12 31l-1.5.5-.5-.5-1-1v-1.494c-.38-.188-.746-.392-1.096-.612L7.5 28.5 6 29l-1-1.5v-2.18c-2-2.476-3-5.742-3-9.321C2 8.268 6.664 2 15.999 2c9.334 0 13.999 6.268 13.999 13.999z" fill="url(#b)"/></g><path d="M29.873 15.999c0 3.841-1.159 7.308-3.466 9.814-2.306 2.504-5.77 4.06-10.408 4.06s-8.102-1.556-10.408-4.06c-2.307-2.506-3.466-5.973-3.466-9.814S3.284 8.69 5.591 6.185c2.306-2.504 5.77-4.06 10.408-4.06s8.102 1.556 10.408 4.06c2.307 2.505 3.466 5.973 3.466 9.814z" fill="url(#c)" stroke="url(#d)" stroke-width=".25"/><defs><radialGradient id="b" cx="0" cy="0" r="1" gradientUnits="userSpaceOnUse" gradientTransform="matrix(-18.99995 18.00005 -28.15277 -29.71665 26.5 10.5)"><stop stop-color="#BCDFFF"/><stop offset=".457" stop-color="#BDB5FF"/><stop offset="1" stop-color="#AE89FF"/></radialGradient><radialGradient id="d" cx="0" cy="0" r="1" gradientUnits="userSpaceOnUse" gradientTransform="rotate(-90 22.25 6.25) scale(15.5)"><stop stop-color="#F4BCFF"/><stop offset="1" stop-color="#F4BCFF" stop-opacity="0"/></radialGradient><linearGradient id="c" x1="15.999" y1="2" x2="15.999" y2="11" gradientUnits="userSpaceOnUse"><stop stop-color="#5DA0FF"/><stop offset="1" stop-color="#5DA0FF" stop-opacity="0"/></linearGradient><filter id="a" x="2" y="2" width="28.998" height="31.5" filterUnits="userSpaceOnUse" color-interpolation-filters="sRGB"><feFlood flood-opacity="0" result="BackgroundImageFix"/><feBlend in="SourceGraphic" in2="BackgroundImageFix" result="shape"/><feColorMatrix in="SourceAlpha" values="0 0 0 0 0 0 0 0 0 0 0 0 0 0 0 0 0 0 127 0" result="hardAlpha"/><feOffset dx="1" dy="2"/><feGaussianBlur stdDeviation="1.25"/><feComposite in2="hardAlpha" operator="arithmetic" k2="-1" k3="1"/><feColorMatrix values="0 0 0 0 0 0 0 0 0 0 0 0 0 0 0 0 0 0 0.16 0"/><feBlend in2="shape" result="effect1_innerShadow_31_131"/></filter></defs></svg>