<svg width="32" height="32" fill="none" xmlns="http://www.w3.org/2000/svg"><path fill-rule="evenodd" clip-rule="evenodd" d="M12.5 5a.5.5 0 0 1 .5.5c0 1.136-.43 2.024-1.105 2.624C11.229 8.715 10.357 9 9.5 9a.5.5 0 0 1 0-1c.643 0 1.27-.215 1.73-.624.45-.4.77-1.012.77-1.876a.5.5 0 0 1 .5-.5z" fill="url(#a)"/><path fill-rule="evenodd" clip-rule="evenodd" d="M19.5 5a.5.5 0 0 0-.5.5c0 1.136.43 2.024 1.105 2.624.666.591 1.538.876 2.395.876a.5.5 0 0 0 0-1c-.643 0-1.27-.215-1.73-.624-.45-.4-.77-1.012-.77-1.876a.5.5 0 0 0-.5-.5z" fill="url(#b)"/><defs><linearGradient id="a" x1="9.667" y1="9.4" x2="9.667" y2="7.6" gradientUnits="userSpaceOnUse"><stop offset=".03" stop-color="#524049"/><stop offset="1" stop-color="#4A2C42"/></linearGradient><linearGradient id="b" x1="21" y1="7" x2="19.5" y2="8.5" gradientUnits="userSpaceOnUse"><stop offset=".03" stop-color="#524049"/><stop offset="1" stop-color="#4A2C42"/></linearGradient></defs></svg>