<svg width="32" height="32" fill="none" xmlns="http://www.w3.org/2000/svg"><path fill-rule="evenodd" clip-rule="evenodd" d="M11 8.5a.5.5 0 0 0-.5-.5c-.774 0-1.742.284-2.585.83-.848.55-1.612 1.396-1.9 2.549a.5.5 0 0 0 .97.242c.212-.847.781-1.502 1.475-1.952C9.16 9.216 9.94 9 10.5 9a.5.5 0 0 0 .5-.5z" fill="url(#a)"/><path fill-rule="evenodd" clip-rule="evenodd" d="M23.93 7.988c.594.562.952 1.24 1.096 1.67a.5.5 0 0 0 .948-.316c-.19-.57-.631-1.392-1.355-2.08C23.887 6.567 22.852 6 21.5 6a.5.5 0 1 0 0 1c1.048 0 1.846.433 2.43.988z" fill="url(#b)"/><defs><linearGradient id="a" x1="10.167" y1="12.4" x2="10.167" y2="10.6" gradientUnits="userSpaceOnUse"><stop offset=".03" stop-color="#524049"/><stop offset="1" stop-color="#4A2C42"/></linearGradient><linearGradient id="b" x1="25.167" y1="10.4" x2="25.167" y2="8.6" gradientUnits="userSpaceOnUse"><stop offset=".03" stop-color="#524049"/><stop offset="1" stop-color="#4A2C42"/></linearGradient></defs></svg>