<svg width="700" height="700" viewBox="0 0 700 700" fill="none" xmlns="http://www.w3.org/2000/svg">
<g clip-path="url(#clip0_5804_1427)">
<g clip-path="url(#clip1_5804_1427)">
<path d="M566.5 566.534C710.884 422.149 686.088 253.054 566.5 133.466C446.911 13.8773 277.816 -10.9191 133.431 133.466C-10.9537 277.851 13.8426 446.946 133.431 566.534C253.02 686.123 422.115 710.919 566.5 566.534Z" fill="url(#paint0_radial_5804_1427)"/>
<path d="M566.5 566.534C710.884 422.149 686.088 253.054 566.5 133.466C446.911 13.8773 277.816 -10.9191 133.431 133.466C-10.9537 277.851 13.8426 446.946 133.431 566.534C253.02 686.123 422.115 710.919 566.5 566.534Z" fill="url(#paint1_radial_5804_1427)"/>
<path d="M566.5 566.534C710.884 422.149 686.088 253.054 566.5 133.466C446.911 13.8773 277.816 -10.9191 133.431 133.466C-10.9537 277.851 13.8426 446.946 133.431 566.534C253.02 686.123 422.115 710.919 566.5 566.534Z" fill="url(#paint2_radial_5804_1427)" fill-opacity="0.6"/>
<path d="M566.5 566.534C710.884 422.149 686.088 253.054 566.5 133.466C446.911 13.8773 277.816 -10.9191 133.431 133.466C-10.9537 277.851 13.8426 446.946 133.431 566.534C253.02 686.123 422.115 710.919 566.5 566.534Z" fill="url(#paint3_radial_5804_1427)"/>
<path d="M566.5 566.534C710.884 422.149 686.088 253.054 566.5 133.466C446.911 13.8773 277.816 -10.9191 133.431 133.466C-10.9537 277.851 13.8426 446.946 133.431 566.534C253.02 686.123 422.115 710.919 566.5 566.534Z" fill="url(#paint4_radial_5804_1427)"/>
<path d="M566.5 566.534C710.884 422.149 686.088 253.054 566.5 133.466C446.911 13.8773 277.816 -10.9191 133.431 133.466C-10.9537 277.851 13.8426 446.946 133.431 566.534C253.02 686.123 422.115 710.919 566.5 566.534Z" fill="url(#paint5_radial_5804_1427)"/>
<path d="M566.5 566.534C710.884 422.149 686.088 253.054 566.5 133.466C446.911 13.8773 277.816 -10.9191 133.431 133.466C-10.9537 277.851 13.8426 446.946 133.431 566.534C253.02 686.123 422.115 710.919 566.5 566.534Z" fill="url(#paint6_radial_5804_1427)"/>
</g>
<g filter="url(#filter0_f_5804_1427)">
<path d="M222.775 425.485C218.955 436.946 206.566 443.14 195.105 439.32C183.644 435.499 177.45 423.111 181.27 411.65L198.335 360.455L248.462 310.328C254.294 316.186 256.326 324.833 253.711 332.677L222.775 425.485Z" fill="url(#paint7_radial_5804_1427)" fill-opacity="0.6" style="mix-blend-mode:multiply"/>
<path d="M133.305 336.015C121.844 339.835 115.65 352.223 119.47 363.685C123.29 375.146 135.679 381.34 147.14 377.52L198.335 360.455L248.462 310.328C242.604 304.496 233.957 302.464 226.113 305.079L133.305 336.015Z" fill="url(#paint8_radial_5804_1427)" fill-opacity="0.6" style="mix-blend-mode:multiply"/>
</g>
<path d="M216.007 418.717C212.186 430.178 199.798 436.372 188.337 432.551C176.875 428.731 170.681 416.343 174.502 404.882L191.567 353.686L241.694 303.559C247.525 309.418 249.557 318.064 246.942 325.909L216.007 418.717Z" fill="url(#paint9_linear_5804_1427)"/>
<path d="M126.538 329.248C115.076 333.068 108.882 345.456 112.703 356.918C116.523 368.379 128.911 374.573 140.373 370.753L191.568 353.687L241.695 303.56C235.837 297.729 227.19 295.697 219.345 298.312L126.538 329.248Z" fill="url(#paint10_linear_5804_1427)"/>
<g filter="url(#filter1_f_5804_1427)">
<path d="M416.303 231.956C427.765 228.136 433.959 215.748 430.138 204.286C426.318 192.825 413.93 186.631 402.468 190.451L351.273 207.516L301.146 257.644C307.004 263.475 315.651 265.507 323.496 262.892L416.303 231.956Z" fill="url(#paint11_radial_5804_1427)"/>
<path d="M326.833 142.486C330.654 131.025 343.042 124.831 354.503 128.651C365.964 132.472 372.159 144.86 368.338 156.321L351.273 207.516L301.146 257.644C295.315 251.785 293.283 243.138 295.897 235.294L326.833 142.486Z" fill="url(#paint12_radial_5804_1427)"/>
</g>
<path d="M418.478 216.246C429.939 212.425 436.133 200.037 432.312 188.576C428.492 177.114 416.104 170.92 404.643 174.741L353.447 191.806L303.32 241.933C309.179 247.764 317.825 249.796 325.67 247.181L418.478 216.246Z" fill="url(#paint13_linear_5804_1427)"/>
<path d="M329.009 126.777C332.829 115.315 345.217 109.121 356.679 112.942C368.14 116.762 374.334 129.15 370.513 140.612L353.448 191.807L303.321 241.934C297.49 236.076 295.458 227.429 298.073 219.584L329.009 126.777Z" fill="url(#paint14_linear_5804_1427)"/>
<path d="M504.68 504.68C350 659.359 195.32 504.68 195.32 504.68L504.68 195.32C504.68 195.32 659.359 350 504.68 504.68Z" fill="url(#paint15_radial_5804_1427)"/>
<path d="M232.576 510.999L210.788 489.212L489.212 210.788L510.999 232.576C511.78 233.357 511.78 234.623 510.999 235.405L235.404 510.999C234.623 511.78 233.357 511.78 232.576 510.999Z" fill="url(#paint16_linear_5804_1427)"/>
<path fill-rule="evenodd" clip-rule="evenodd" d="M239.405 641.09C257.454 641.815 272.66 627.364 272.66 609.114L272.66 474.808C272.66 457.135 258.333 442.808 240.66 442.808H211.852C194.179 442.808 179.852 457.135 179.852 474.808L179.852 606.356C198.921 620.225 218.849 631.88 239.405 641.09Z" fill="url(#paint17_radial_5804_1427)"/>
<path fill-rule="evenodd" clip-rule="evenodd" d="M597.5 168.252H486.409C468.736 168.252 454.409 182.578 454.409 200.251V229.059C454.409 246.732 468.736 261.059 486.409 261.059H620.715C630.67 261.059 639.495 256.534 645.343 249.491C633.841 221.11 617.696 193.833 597.5 168.252Z" fill="url(#paint18_radial_5804_1427)"/>
<path d="M207.067 641.003L178.259 638.603C161.674 637.22 148.916 623.356 148.916 606.713V474.808C148.916 457.135 163.243 442.808 180.916 442.808L209.724 442.808C227.397 442.808 241.724 457.135 241.724 474.808L241.724 609.114C241.724 627.835 225.723 642.558 207.067 641.003Z" fill="url(#paint19_radial_5804_1427)"/>
<path d="M644.87 203.2L642.469 174.392C641.087 157.807 627.223 145.05 610.58 145.05H478.675C461.001 145.05 446.675 159.376 446.675 177.049L446.675 205.857C446.675 223.53 461.001 237.857 478.675 237.857L612.981 237.857C631.702 237.857 646.425 221.856 644.87 203.2Z" fill="url(#paint20_radial_5804_1427)"/>
</g>
<defs>
<filter id="filter0_f_5804_1427" x="117.842" y="303.456" width="137.492" height="137.492" filterUnits="userSpaceOnUse" color-interpolation-filters="sRGB">
<feFlood flood-opacity="0" result="BackgroundImageFix"/>
<feBlend mode="normal" in="SourceGraphic" in2="BackgroundImageFix" result="shape"/>
<feGaussianBlur stdDeviation="0.25" result="effect1_foregroundBlur_5804_1427"/>
</filter>
<filter id="filter1_f_5804_1427" x="294.274" y="127.023" width="137.493" height="137.492" filterUnits="userSpaceOnUse" color-interpolation-filters="sRGB">
<feFlood flood-opacity="0" result="BackgroundImageFix"/>
<feBlend mode="normal" in="SourceGraphic" in2="BackgroundImageFix" result="shape"/>
<feGaussianBlur stdDeviation="0.25" result="effect1_foregroundBlur_5804_1427"/>
</filter>
<radialGradient id="paint0_radial_5804_1427" cx="0" cy="0" r="1" gradientUnits="userSpaceOnUse" gradientTransform="translate(388.67 94.7787) rotate(86.8779) scale(852.002)">
<stop stop-color="#FFF478"/>
<stop offset="0.474827" stop-color="#FFB02E"/>
<stop offset="1" stop-color="#F70A8D"/>
</radialGradient>
<radialGradient id="paint1_radial_5804_1427" cx="0" cy="0" r="1" gradientUnits="userSpaceOnUse" gradientTransform="translate(295.862 295.862) rotate(56.3099) scale(390.394 500.02)">
<stop offset="0.787821" stop-color="#F59639" stop-opacity="0"/>
<stop offset="0.972509" stop-color="#FF7DCE"/>
</radialGradient>
<radialGradient id="paint2_radial_5804_1427" cx="0" cy="0" r="1" gradientUnits="userSpaceOnUse" gradientTransform="translate(350 288.128) rotate(90) scale(897.142)">
<stop offset="0.314853" stop-opacity="0"/>
<stop offset="1"/>
</radialGradient>
<radialGradient id="paint3_radial_5804_1427" cx="0" cy="0" r="1" gradientUnits="userSpaceOnUse" gradientTransform="translate(365.468 365.468) rotate(32.692) scale(615.714)">
<stop offset="0.507903" stop-color="#7D6133" stop-opacity="0"/>
<stop offset="1" stop-color="#715B32"/>
</radialGradient>
<radialGradient id="paint4_radial_5804_1427" cx="0" cy="0" r="1" gradientUnits="userSpaceOnUse" gradientTransform="translate(365.468 350) rotate(10.7131) scale(291.233 211.101)">
<stop stop-color="#FFB849"/>
<stop offset="1" stop-color="#FFB847" stop-opacity="0"/>
</radialGradient>
<radialGradient id="paint5_radial_5804_1427" cx="0" cy="0" r="1" gradientUnits="userSpaceOnUse" gradientTransform="translate(450.542 311.33) rotate(-35.1342) scale(255.339)">
<stop stop-color="#FFA64B"/>
<stop offset="0.900412" stop-color="#FFAE46" stop-opacity="0"/>
</radialGradient>
<radialGradient id="paint6_radial_5804_1427" cx="0" cy="0" r="1" gradientUnits="userSpaceOnUse" gradientTransform="translate(357.734 311.33) rotate(-1.02916) scale(1291.78)">
<stop offset="0.185425" stop-opacity="0"/>
<stop offset="1" stop-opacity="0.4"/>
</radialGradient>
<radialGradient id="paint7_radial_5804_1427" cx="0" cy="0" r="1" gradientUnits="userSpaceOnUse" gradientTransform="translate(136.832 329.215) rotate(65.2249) scale(166.101 217.094)">
<stop stop-color="#9F5E0F"/>
<stop offset="0.889024" stop-color="#9F5E0F" stop-opacity="0"/>
</radialGradient>
<radialGradient id="paint8_radial_5804_1427" cx="0" cy="0" r="1" gradientUnits="userSpaceOnUse" gradientTransform="translate(136.832 329.215) rotate(65.2249) scale(166.101 217.094)">
<stop stop-color="#9F5E0F"/>
<stop offset="0.889024" stop-color="#9F5E0F" stop-opacity="0"/>
</radialGradient>
<linearGradient id="paint9_linear_5804_1427" x1="246.528" y1="414.252" x2="123.989" y2="371.477" gradientUnits="userSpaceOnUse">
<stop offset="0.24955" stop-color="#482641"/>
<stop offset="0.406361" stop-color="#503A4A"/>
<stop offset="0.511203" stop-color="#482641"/>
</linearGradient>
<linearGradient id="paint10_linear_5804_1427" x1="164.355" y1="385.251" x2="128.827" y2="275.766" gradientUnits="userSpaceOnUse">
<stop offset="0.24955" stop-color="#482641"/>
<stop offset="0.406361" stop-color="#503A4A"/>
<stop offset="0.511203" stop-color="#482641"/>
</linearGradient>
<radialGradient id="paint11_radial_5804_1427" cx="0" cy="0" r="1" gradientUnits="userSpaceOnUse" gradientTransform="translate(508.788 173.811) rotate(179.005) scale(292.244 381.963)">
<stop stop-color="#E9830A"/>
<stop offset="0.801655" stop-color="#F08B13" stop-opacity="0"/>
</radialGradient>
<radialGradient id="paint12_radial_5804_1427" cx="0" cy="0" r="1" gradientUnits="userSpaceOnUse" gradientTransform="translate(508.788 173.811) rotate(179.005) scale(292.244 381.963)">
<stop stop-color="#E9830A"/>
<stop offset="0.801655" stop-color="#F08B13" stop-opacity="0"/>
</radialGradient>
<linearGradient id="paint13_linear_5804_1427" x1="414.013" y1="246.767" x2="371.238" y2="124.228" gradientUnits="userSpaceOnUse">
<stop offset="0.24955" stop-color="#482641"/>
<stop offset="0.406361" stop-color="#503A4A"/>
<stop offset="0.511203" stop-color="#482641"/>
</linearGradient>
<linearGradient id="paint14_linear_5804_1427" x1="385.011" y1="164.594" x2="275.527" y2="129.066" gradientUnits="userSpaceOnUse">
<stop offset="0.24955" stop-color="#482641"/>
<stop offset="0.406361" stop-color="#503A4A"/>
<stop offset="0.511203" stop-color="#482641"/>
</linearGradient>
<radialGradient id="paint15_radial_5804_1427" cx="0" cy="0" r="1" gradientUnits="userSpaceOnUse" gradientTransform="translate(579.687 590.625) rotate(-135) scale(371.231 742.462)">
<stop offset="0.050964" stop-color="#F70A8D"/>
<stop offset="1" stop-color="#89029C"/>
</radialGradient>
<linearGradient id="paint16_linear_5804_1427" x1="350" y1="350" x2="373.202" y2="373.202" gradientUnits="userSpaceOnUse">
<stop stop-color="#ECCDFF"/>
<stop offset="1" stop-color="white"/>
</linearGradient>
<radialGradient id="paint17_radial_5804_1427" cx="0" cy="0" r="1" gradientUnits="userSpaceOnUse" gradientTransform="translate(221.161 590.87) rotate(-77.9171) scale(108.38 71.4085)">
<stop stop-color="#6D4534"/>
<stop offset="1" stop-color="#FF822D" stop-opacity="0"/>
</radialGradient>
<radialGradient id="paint18_radial_5804_1427" cx="0" cy="0" r="1" gradientUnits="userSpaceOnUse" gradientTransform="translate(500.25 211.831) rotate(-10.3912) scale(124.436 81.8127)">
<stop stop-color="#6D4534"/>
<stop offset="1" stop-color="#FF822D" stop-opacity="0"/>
</radialGradient>
<radialGradient id="paint19_radial_5804_1427" cx="0" cy="0" r="1" gradientUnits="userSpaceOnUse" gradientTransform="translate(210.788 458.276) rotate(102.529) scale(142.608 64.9281)">
<stop stop-color="#508FFF"/>
<stop offset="1" stop-color="#3D5BF1"/>
</radialGradient>
<radialGradient id="paint20_radial_5804_1427" cx="0" cy="0" r="1" gradientUnits="userSpaceOnUse" gradientTransform="translate(520.147 164.384) rotate(4.3987) scale(100.839 45.9111)">
<stop stop-color="#5092FF"/>
<stop offset="1" stop-color="#3F5FFF"/>
</radialGradient>
<clipPath id="clip0_5804_1427">
<rect width="700" height="700" fill="white"/>
</clipPath>
<clipPath id="clip1_5804_1427">
<rect width="700" height="700" fill="white" transform="translate(-144.975 350) rotate(-45)"/>
</clipPath>
</defs>
</svg>
