<svg width="32" height="32" fill="none" xmlns="http://www.w3.org/2000/svg"><path fill-rule="evenodd" clip-rule="evenodd" d="M6.927 11.448a5.001 5.001 0 1 0 4.582.226A6.184 6.184 0 0 1 9.5 12a6.092 6.092 0 0 1-2.573-.552z" fill="url(#a)"/><circle cx="19.5" cy="16.5" r="4.5" fill="url(#b)"/><path fill-rule="evenodd" clip-rule="evenodd" d="M13.11 10.834C12.37 11.383 11.167 12 9.5 12a6.121 6.121 0 0 1-2.383-.468 4.5 4.5 0 1 0 5.993-.698zm11.773.698A6.12 6.12 0 0 1 22.5 12c-1.666 0-2.87-.617-3.61-1.166a4.5 4.5 0 1 0 5.993.698z" fill="#fff"/><path d="M12 17a2 2 0 1 0 0-4 2 2 0 0 0 0 4z" fill="url(#c)"/><path d="M20 17a2 2 0 1 0 0-4 2 2 0 0 0 0 4z" fill="url(#d)"/><defs><radialGradient id="a" cx="0" cy="0" r="1" gradientUnits="userSpaceOnUse" gradientTransform="rotate(135 3.936 8.725) scale(9.74236 5.04232)"><stop offset=".331" stop-color="#392108"/><stop offset="1" stop-color="#C87928" stop-opacity="0"/></radialGradient><radialGradient id="b" cx="0" cy="0" r="1" gradientUnits="userSpaceOnUse" gradientTransform="matrix(-5.75 5.75 -3.24597 -3.24597 23 13)"><stop offset=".402" stop-color="#392108"/><stop offset="1" stop-color="#C87928" stop-opacity="0"/></radialGradient><linearGradient id="c" x1="20.769" y1="13" x2="20" y2="17" gradientUnits="userSpaceOnUse"><stop stop-color="#553B3E"/><stop offset="1" stop-color="#3D2432"/></linearGradient><linearGradient id="d" x1="20.769" y1="13" x2="20" y2="17" gradientUnits="userSpaceOnUse"><stop stop-color="#553B3E"/><stop offset="1" stop-color="#3D2432"/></linearGradient></defs></svg>