<svg width="32" height="32" fill="none" xmlns="http://www.w3.org/2000/svg"><circle cx="9.017" cy="13.421" r="4.673" fill="url(#a)"/><circle cx="19.244" cy="13.943" r="4.244" fill="url(#b)"/><path d="M10.42 16.224a4.206 4.206 0 1 0 0-8.411 4.206 4.206 0 0 0 0 8.411zM21.568 16.301a4.244 4.244 0 1 0 0-8.489 4.244 4.244 0 0 0 0 8.49z" fill="#fff"/><path d="M11 15a3 3 0 1 0 0-6 3 3 0 0 0 0 6z" fill="url(#c)"/><path d="M21 15a3 3 0 1 0 0-6 3 3 0 0 0 0 6z" fill="url(#d)"/><defs><radialGradient id="a" cx="0" cy="0" r="1" gradientUnits="userSpaceOnUse" gradientTransform="rotate(135 4.3 7.513) scale(9.10579 4.71285)"><stop stop-color="#392108"/><stop offset="1" stop-color="#C87928" stop-opacity="0"/></radialGradient><radialGradient id="b" cx="0" cy="0" r="1" gradientUnits="userSpaceOnUse" gradientTransform="rotate(135 9.069 9.99) scale(7.66968 4.32966)"><stop stop-color="#392108"/><stop offset="1" stop-color="#C87928" stop-opacity="0"/></radialGradient><linearGradient id="c" x1="16.5" y1="8" x2="15.5" y2="15" gradientUnits="userSpaceOnUse"><stop stop-color="#553B3E"/><stop offset="1" stop-color="#3D2432"/></linearGradient><linearGradient id="d" x1="16.5" y1="8" x2="15.5" y2="15" gradientUnits="userSpaceOnUse"><stop stop-color="#553B3E"/><stop offset="1" stop-color="#3D2432"/></linearGradient></defs></svg>