<svg width="32" height="32" fill="none" xmlns="http://www.w3.org/2000/svg"><circle cx="9" cy="16" r="5" fill="url(#a)"/><circle cx="19.5" cy="16.5" r="4.5" fill="url(#b)"/><path d="M10.5 19a4.5 4.5 0 1 0 0-9 4.5 4.5 0 0 0 0 9zM21.5 19a4.5 4.5 0 1 0 0-9 4.5 4.5 0 0 0 0 9z" fill="#fff"/><path d="M13 11a2 2 0 1 1-3.834-.799A4.5 4.5 0 0 1 10.5 10c.918 0 1.772.275 2.484.747.01.083.016.167.016.253z" fill="url(#c)"/><path d="M23 11a2 2 0 1 1-3.984-.253A4.479 4.479 0 0 1 21.5 10a4.5 4.5 0 0 1 1.334.201c.107.245.166.515.166.799z" fill="url(#d)"/><defs><radialGradient id="a" cx="0" cy="0" r="1" gradientUnits="userSpaceOnUse" gradientTransform="rotate(135 3.936 8.725) scale(9.74236 5.04232)"><stop stop-color="#392108"/><stop offset="1" stop-color="#C87928" stop-opacity="0"/></radialGradient><radialGradient id="b" cx="0" cy="0" r="1" gradientUnits="userSpaceOnUse" gradientTransform="matrix(-5.75 5.75 -3.24597 -3.24597 23 13)"><stop stop-color="#392108"/><stop offset="1" stop-color="#C87928" stop-opacity="0"/></radialGradient><linearGradient id="c" x1="21.385" y1="10" x2="21.047" y2="13.074" gradientUnits="userSpaceOnUse"><stop stop-color="#553B3E"/><stop offset="1" stop-color="#3D2432"/></linearGradient><linearGradient id="d" x1="21.385" y1="10" x2="21.047" y2="13.074" gradientUnits="userSpaceOnUse"><stop stop-color="#553B3E"/><stop offset="1" stop-color="#3D2432"/></linearGradient></defs></svg>