<svg width="32" height="32" fill="none" xmlns="http://www.w3.org/2000/svg"><circle cx="9" cy="13" r="5" fill="url(#a)"/><circle cx="19.5" cy="13.5" r="4.5" fill="url(#b)"/><path d="M10.5 16a4.5 4.5 0 1 0 0-9 4.5 4.5 0 0 0 0 9zM21.5 16a4.5 4.5 0 1 0 0-9 4.5 4.5 0 0 0 0 9z" fill="#fff"/><path d="M12 14a2 2 0 1 0 0-4 2 2 0 0 0 0 4z" fill="url(#c)"/><path d="M20 14a2 2 0 1 0 0-4 2 2 0 0 0 0 4z" fill="url(#d)"/><defs><radialGradient id="a" cx="0" cy="0" r="1" gradientUnits="userSpaceOnUse" gradientTransform="rotate(135 4.557 7.225) scale(9.74236 5.04232)"><stop stop-color="#392108"/><stop offset="1" stop-color="#C87928" stop-opacity="0"/></radialGradient><radialGradient id="b" cx="0" cy="0" r="1" gradientUnits="userSpaceOnUse" gradientTransform="matrix(-5.75 5.75 -3.24597 -3.24597 23 10)"><stop stop-color="#392108"/><stop offset="1" stop-color="#C87928" stop-opacity="0"/></radialGradient><linearGradient id="c" x1="20.615" y1="10" x2="19.927" y2="14.03" gradientUnits="userSpaceOnUse"><stop stop-color="#553B3E"/><stop offset="1" stop-color="#3D2432"/></linearGradient><linearGradient id="d" x1="20.615" y1="10" x2="19.927" y2="14.03" gradientUnits="userSpaceOnUse"><stop stop-color="#553B3E"/><stop offset="1" stop-color="#3D2432"/></linearGradient></defs></svg>