<svg width="32" height="32" fill="none" xmlns="http://www.w3.org/2000/svg"><path fill-rule="evenodd" clip-rule="evenodd" d="M15 10.5a4.492 4.492 0 0 1-1.694 3.518c-.803-.27-1.83-.518-2.806-.518-.977 0-2.003.248-2.806.518A4.5 4.5 0 1 1 15 10.5zm11 0a4.492 4.492 0 0 1-1.694 3.518c-.803-.27-1.83-.518-2.806-.518-.977 0-2.003.248-2.806.518A4.5 4.5 0 1 1 26 10.5z" fill="#fff"/><path fill-rule="evenodd" clip-rule="evenodd" d="M14 10.5c0 1.434-.74 2.667-1.798 3.208A7.869 7.869 0 0 0 10.5 13.5c-.313 0-.63.025-.944.069C8.63 12.974 8 11.822 8 10.5 8 8.567 9.343 7 11 7s3 1.567 3 3.5zm10 0c0 1.322-.629 2.474-1.556 3.069a6.917 6.917 0 0 0-.944-.069c-.569 0-1.154.084-1.702.208C18.739 13.167 18 11.934 18 10.5 18 8.567 19.343 7 21 7s3 1.567 3 3.5z" fill="url(#a)"/><defs><linearGradient id="a" x1="22.154" y1="7" x2="20.724" y2="13.648" gradientUnits="userSpaceOnUse"><stop stop-color="#553B3E"/><stop offset="1" stop-color="#3D2432"/></linearGradient></defs></svg>