<svg width="32" height="32" fill="none" xmlns="http://www.w3.org/2000/svg"><ellipse cx="8" cy="12.5" rx="5" ry="4.5" fill="url(#a)"/><circle cx="19" cy="12" r="4" fill="url(#b)"/><path d="M15 10.5a4.492 4.492 0 0 1-1.694 3.518c-.803-.27-1.83-.518-2.806-.518-.977 0-2.003.248-2.806.518A4.5 4.5 0 1 1 15 10.5zM26 10.5a4.492 4.492 0 0 1-1.694 3.518c-.803-.27-1.83-.518-2.806-.518-.977 0-2.003.248-2.806.518A4.5 4.5 0 1 1 26 10.5z" fill="#fff"/><path d="M11 13a3 3 0 1 0 0-6 3 3 0 0 0 0 6z" fill="url(#c)"/><path d="M21 13a3 3 0 1 0 0-6 3 3 0 0 0 0 6z" fill="url(#d)"/><defs><radialGradient id="a" cx="0" cy="0" r="1" gradientUnits="userSpaceOnUse" gradientTransform="rotate(138.013 4.218 6.781) scale(9.26805 4.77033)"><stop stop-color="#392108"/><stop offset="1" stop-color="#C87928" stop-opacity="0"/></radialGradient><radialGradient id="b" cx="0" cy="0" r="1" gradientUnits="userSpaceOnUse" gradientTransform="rotate(135 9.215 9.024) scale(7.2282 4.08044)"><stop stop-color="#392108"/><stop offset="1" stop-color="#C87928" stop-opacity="0"/></radialGradient><linearGradient id="c" x1="22.154" y1="7" x2="21" y2="13" gradientUnits="userSpaceOnUse"><stop stop-color="#553B3E"/><stop offset="1" stop-color="#3D2432"/></linearGradient><linearGradient id="d" x1="22.154" y1="7" x2="21" y2="13" gradientUnits="userSpaceOnUse"><stop stop-color="#553B3E"/><stop offset="1" stop-color="#3D2432"/></linearGradient></defs></svg>