<svg width="32" height="32" fill="none" xmlns="http://www.w3.org/2000/svg"><path fill-rule="evenodd" clip-rule="evenodd" d="M6 13.5c0-.169.01-.336.027-.5h8.945A4.5 4.5 0 1 1 6 13.5zm11 0c0-.169.01-.336.027-.5h8.945a4.5 4.5 0 1 1-8.973.5z" fill="#fff"/><path fill-rule="evenodd" clip-rule="evenodd" d="M10 13.25c0-.085.005-.168.014-.25h4.472a2.248 2.248 0 0 1-2.236 2.5A2.26 2.26 0 0 1 10 13.25zm11 0c0-.085.005-.168.014-.25h4.472a2.248 2.248 0 0 1-2.236 2.5A2.26 2.26 0 0 1 21 13.25z" fill="url(#a)"/><defs><linearGradient id="a" x1="23.712" y1="13" x2="23.499" y2="15.575" gradientUnits="userSpaceOnUse"><stop stop-color="#553B3E"/><stop offset="1" stop-color="#3D2432"/></linearGradient></defs></svg>