<svg width="32" height="32" fill="none" xmlns="http://www.w3.org/2000/svg"><path fill-rule="evenodd" clip-rule="evenodd" d="M15 16.5a4.5 4.5 0 1 1-9 0 4.5 4.5 0 0 1 9 0zm10.96-.02a4.48 4.48 0 1 1-8.96 0 4.48 4.48 0 0 1 8.96 0z" fill="#fff"/><path d="M7 15.88C7 13.74 8.74 12 10.88 12c2.14 0 3.88 1.74 3.88 3.88 0 2.14-1.74 3.88-3.88 3.88-2.14 0-3.88-1.74-3.88-3.88z" fill="url(#a)"/><path d="M17 15.88c0-2.14 1.74-3.88 3.88-3.88 2.14 0 3.88 1.74 3.88 3.88 0 2.14-1.74 3.88-3.88 3.88-2.14 0-3.88-1.74-3.88-3.88z" fill="url(#b)"/><path d="M13.844 14.072c.368.795.064 1.628-.681 1.865-.746.237-1.639-.214-2.007-1.01-.368-.794-.064-1.627.681-1.864.746-.238 1.639.221 2.007 1.009z" fill="url(#c)"/><path d="M23.844 14.072c.368.795.064 1.628-.681 1.865-.746.237-1.639-.214-2.007-1.01-.368-.794-.064-1.627.681-1.864.737-.238 1.639.221 2.007 1.009z" fill="url(#d)"/><defs><linearGradient id="a" x1="12.372" y1="12" x2="10.88" y2="19.76" gradientUnits="userSpaceOnUse"><stop stop-color="#553B3E"/><stop offset="1" stop-color="#3D2432"/></linearGradient><linearGradient id="b" x1="22.372" y1="12" x2="20.88" y2="19.76" gradientUnits="userSpaceOnUse"><stop stop-color="#553B3E"/><stop offset="1" stop-color="#3D2432"/></linearGradient><linearGradient id="c" x1="11.783" y1="12.948" x2="12.629" y2="15.598" gradientUnits="userSpaceOnUse"><stop offset=".006" stop-color="#fff"/><stop offset="1" stop-color="#fff" stop-opacity="0"/></linearGradient><linearGradient id="d" x1="21.778" y1="12.948" x2="22.624" y2="15.598" gradientUnits="userSpaceOnUse"><stop offset=".006" stop-color="#fff"/><stop offset="1" stop-color="#fff" stop-opacity="0"/></linearGradient></defs></svg>