<svg width="32" height="32" fill="none" xmlns="http://www.w3.org/2000/svg"><path d="M25.5 18 19 12.5l6-1.5.5 7z" fill="url(#a)"/><path d="M13.5 14.5 7 14l4.5-4 2 4.5z" fill="url(#b)"/><path d="M16.5 6h2c1.6 1.6 1.333 4.667 1 6l-3 1L18 9.5 16.5 6z" fill="url(#c)"/><path d="M3 8h2c1.6 1.6 1.333 4.667 1 6l-3 2 1.5-4.5L3 8z" fill="url(#d)"/><path d="m8.624 12.865-3.05 2.372a.15.15 0 0 1-.242-.132l.3-3.285a2.25 2.25 0 0 0-1.149-2.171L2.5 8.548a.5.5 0 0 1 .058-.902l2.529-1.012a2.25 2.25 0 0 0 1.37-1.647l.472-2.359a.47.47 0 0 1 .837-.19l1.364 1.82a2.25 2.25 0 0 0 2.004.89l3.493-.318a.15.15 0 0 1 .133.24l-1.786 2.38a2.25 2.25 0 0 0-.289 2.186l1.412 3.528-3.65-.73a2.25 2.25 0 0 0-1.823.43z" fill="url(#e)" stroke="url(#f)" stroke-width=".5"/><path d="m23.376 12.865 3.05 2.372a.15.15 0 0 0 .242-.132l-.3-3.285a2.25 2.25 0 0 1 1.149-2.171L29.5 8.548a.5.5 0 0 0-.058-.902l-2.529-1.012a2.25 2.25 0 0 1-1.37-1.647l-.472-2.359a.47.47 0 0 0-.837-.19l-1.364 1.82a2.25 2.25 0 0 1-2.004.89l-3.493-.318a.15.15 0 0 0-.133.24l1.786 2.38a2.25 2.25 0 0 1 .289 2.186l-1.412 3.528 3.65-.73a2.25 2.25 0 0 1 1.823.43z" fill="url(#g)" stroke="url(#h)" stroke-width=".5"/><defs><linearGradient id="a" x1="23.5" y1="11.5" x2="21.814" y2="14.667" gradientUnits="userSpaceOnUse"><stop stop-color="#EC812A"/><stop offset="1" stop-color="#FBA84C" stop-opacity="0"/></linearGradient><linearGradient id="b" x1="10.5" y1="11.5" x2="10.25" y2="14.025" gradientUnits="userSpaceOnUse"><stop stop-color="#C85F27"/><stop offset="1" stop-color="#C85F27" stop-opacity="0"/></linearGradient><linearGradient id="e" x1="7.5" y1="1" x2="10" y2="15" gradientUnits="userSpaceOnUse"><stop stop-color="#7912B2"/><stop offset="1" stop-color="#CF1DA1"/></linearGradient><linearGradient id="f" x1="15" y1="6" x2="8.5" y2="8.5" gradientUnits="userSpaceOnUse"><stop stop-color="#BF33B1"/><stop offset="1" stop-color="#BF33B1" stop-opacity="0"/></linearGradient><linearGradient id="g" x1="22" y1="2.5" x2="22.5" y2="14.5" gradientUnits="userSpaceOnUse"><stop stop-color="#7912B2"/><stop offset="1" stop-color="#CF1DA1"/></linearGradient><linearGradient id="h" x1="29.5" y1="6" x2="23.5" y2="6.5" gradientUnits="userSpaceOnUse"><stop stop-color="#B51AA6"/><stop offset="1" stop-color="#BF33B1" stop-opacity="0"/></linearGradient><radialGradient id="c" cx="0" cy="0" r="1" gradientUnits="userSpaceOnUse" gradientTransform="rotate(158.199 9.19 7.474) scale(5.38516)"><stop stop-color="#EC812A"/><stop offset="1" stop-color="#FBA84C" stop-opacity="0"/></radialGradient><radialGradient id="d" cx="0" cy="0" r="1" gradientUnits="userSpaceOnUse" gradientTransform="rotate(158.199 2.248 7.174) scale(5.38516)"><stop stop-color="#CC7521"/><stop offset="1" stop-color="#E6872B" stop-opacity="0"/></radialGradient></defs></svg>