<svg width="32" height="32" fill="none" xmlns="http://www.w3.org/2000/svg"><path fill-rule="evenodd" clip-rule="evenodd" d="M11 29.297V8H7.5A1.5 1.5 0 0 0 6 9.5v16.91c1.333 1.28 3 2.273 5 2.887zm15-2.89c-1.333 1.282-3 2.275-5 2.89V8h3.5A1.5 1.5 0 0 1 26 9.5v16.907z" fill="url(#a)"/><path d="M6 9s.5-1.5 2.5-1.5S11 9 11 9" stroke="url(#b)" stroke-width="2" stroke-linecap="round" stroke-linejoin="round"/><path d="M21 9s.5-1.5 2.5-1.5S26 9 26 9" stroke="url(#c)" stroke-width="2" stroke-linecap="round" stroke-linejoin="round"/><defs><radialGradient id="b" cx="0" cy="0" r="1" gradientUnits="userSpaceOnUse" gradientTransform="matrix(0 -3.5 3.5 0 8.5 10)"><stop offset=".405" stop-color="#432552"/><stop offset=".703" stop-color="#503F44"/><stop offset=".806" stop-color="#503F44"/><stop offset="1" stop-color="#4C342C"/></radialGradient><radialGradient id="c" cx="0" cy="0" r="1" gradientUnits="userSpaceOnUse" gradientTransform="matrix(0 -3.5 3.5 0 23.5 10)"><stop offset=".405" stop-color="#432552"/><stop offset=".703" stop-color="#503F44"/><stop offset=".806" stop-color="#503F44"/><stop offset="1" stop-color="#4C342C"/></radialGradient><linearGradient id="a" x1="23.5" y1="8" x2="23.5" y2="30" gradientUnits="userSpaceOnUse"><stop stop-color="#6D9DFF"/><stop offset="1" stop-color="#4864FF"/></linearGradient></defs></svg>