<svg width="32" height="32" fill="none" xmlns="http://www.w3.org/2000/svg"><path d="M13.958 17.38a4.5 4.5 0 1 0-6.915 0c.822-.413 2.062-.88 3.457-.88s2.635.467 3.458.88z" fill="#fff"/><path d="M13.198 17.041a3 3 0 1 0-4.615-.264A7.056 7.056 0 0 1 10.5 16.5c1.015 0 1.948.247 2.698.541z" fill="url(#a)"/><path fill-rule="evenodd" clip-rule="evenodd" d="M21 14c-1.455 0-1.952.931-2.03 1.242a1 1 0 1 1-1.94-.485C17.285 13.736 18.455 12 21 12s3.715 1.735 3.97 2.758a1 1 0 1 1-1.94.485C22.952 14.93 22.455 14 21 14z" fill="url(#b)"/><defs><radialGradient id="b" cx="0" cy="0" r="1" gradientUnits="userSpaceOnUse" gradientTransform="matrix(0 4 -5.85926 0 21 15)"><stop offset=".337" stop-color="#4D274B"/><stop offset=".628" stop-color="#514047"/><stop offset="1" stop-color="#4E2553"/><stop offset="1" stop-color="#4A342F"/></radialGradient><linearGradient id="a" x1="13.308" y1="12" x2="11.408" y2="16.409" gradientUnits="userSpaceOnUse"><stop stop-color="#553B3E"/><stop offset="1" stop-color="#3D2432"/></linearGradient></defs></svg>