<svg width="32" height="32" fill="none" xmlns="http://www.w3.org/2000/svg"><path fill-rule="evenodd" clip-rule="evenodd" d="M11.094 14.156c1.096 0 1.448.697 1.498.898a1 1 0 1 0 1.941-.483c-.225-.904-1.244-2.415-3.44-2.415-2.195 0-3.214 1.511-3.439 2.415a1 1 0 0 0 1.941.483c.05-.2.402-.898 1.499-.898z" fill="url(#a)"/><path d="M18.806 17.17c.89-.33 1.85-.53 2.86-.53 1.01 0 1.97.19 2.85.53a4.22 4.22 0 0 0 1.39-3.13c0-2.35-1.9-4.25-4.25-4.25s-4.25 1.9-4.25 4.25a4.25 4.25 0 0 0 1.4 3.13z" fill="#fff"/><path d="M21.209 16a2 2 0 1 0 0-4 2 2 0 0 0 0 4z" fill="url(#b)"/><defs><radialGradient id="a" cx="0" cy="0" r="1" gradientUnits="userSpaceOnUse" gradientTransform="matrix(0 3.3125 -4.82169 0 11.094 14.813)"><stop offset=".337" stop-color="#4D274B"/><stop offset=".628" stop-color="#514047"/><stop offset="1" stop-color="#4E2553"/><stop offset="1" stop-color="#4A342F"/></radialGradient><linearGradient id="b" x1="22.747" y1="12" x2="21.063" y2="15.284" gradientUnits="userSpaceOnUse"><stop stop-color="#553B3E"/><stop offset="1" stop-color="#3D2432"/></linearGradient></defs></svg>