<svg width="32" height="32" fill="none" xmlns="http://www.w3.org/2000/svg"><g opacity=".6" filter="url(#a)"><path fill-rule="evenodd" clip-rule="evenodd" d="M7.293 9.793a1 1 0 0 1 1.414 0l1.793 1.793 1.793-1.793a1 1 0 1 1 1.414 1.414L11.914 13l1.793 1.793a1 1 0 0 1-1.414 1.414L10.5 14.414l-1.793 1.793a1 1 0 0 1-1.414-1.414L9.086 13l-1.793-1.793a1 1 0 0 1 0-1.414zm11 0a1 1 0 0 1 1.414 0l1.793 1.793 1.793-1.793a1 1 0 1 1 1.414 1.414L22.914 13l1.793 1.793a1 1 0 0 1-1.414 1.414L21.5 14.414l-1.793 1.793a1 1 0 0 1-1.414-1.414L20.086 13l-1.793-1.793a1 1 0 0 1 0-1.414z" fill="#B56318"/></g><path d="m13 10-5 5" stroke="url(#b)" stroke-width="2" stroke-linecap="round"/><path d="m8 10 5 5" stroke="url(#c)" stroke-width="2" stroke-linecap="round"/><path d="m24 10-5 5" stroke="url(#d)" stroke-width="2" stroke-linecap="round"/><path d="m19 10 5 5" stroke="url(#e)" stroke-width="2" stroke-linecap="round"/><defs><linearGradient id="b" x1="11.5" y1="13.5" x2="9.5" y2="11.5" gradientUnits="userSpaceOnUse"><stop stop-color="#4F3C43"/><stop offset=".326" stop-color="#52394E"/><stop offset="1" stop-color="#422E2B"/></linearGradient><linearGradient id="c" x1="13" y1="12.5" x2="11" y2="14.5" gradientUnits="userSpaceOnUse"><stop stop-color="#45253E"/><stop offset=".414" stop-color="#55424C"/><stop offset="1" stop-color="#512756"/></linearGradient><linearGradient id="d" x1="22.5" y1="13.5" x2="20.5" y2="11.5" gradientUnits="userSpaceOnUse"><stop stop-color="#4F3C43"/><stop offset=".326" stop-color="#52394E"/><stop offset="1" stop-color="#422E2B"/></linearGradient><linearGradient id="e" x1="24" y1="12.5" x2="22" y2="14.5" gradientUnits="userSpaceOnUse"><stop stop-color="#45253E"/><stop offset=".414" stop-color="#55424C"/><stop offset="1" stop-color="#512756"/></linearGradient><filter id="a" x="6" y="8.5" width="20" height="9" filterUnits="userSpaceOnUse" color-interpolation-filters="sRGB"><feFlood flood-opacity="0" result="BackgroundImageFix"/><feBlend in="SourceGraphic" in2="BackgroundImageFix" result="shape"/><feGaussianBlur stdDeviation=".5" result="effect1_foregroundBlur_961_3694"/></filter></defs></svg>