<svg width="32" height="32" fill="none" xmlns="http://www.w3.org/2000/svg"><path d="M10.5 15.5s-3-.5-5.05-2.866C3.36 10.222 5.311 6.767 9 8.5c1.577-2.572 5.49-1.62 4.97 1.5-.5 3-3.47 5.5-3.47 5.5z" fill="url(#a)"/><path d="M19.517 15.5s3-.5 5.05-2.866c2.09-2.412.14-5.867-3.55-4.134-1.577-2.572-5.49-1.62-4.97 1.5.5 3 3.47 5.5 3.47 5.5z" fill="url(#b)"/><path d="M10.593 14.27c-1.046-.33-2.808-1.078-4.157-2.636-2.09-2.412-.139-5.867 3.55-4.134 1.577-2.572 5.49-1.62 4.97 1.5-.349 2.09-1.895 3.937-2.802 4.866-.409.419-1.003.58-1.561.404z" fill="url(#c)"/><path d="M21.41 14.27c1.046-.33 2.808-1.078 4.157-2.636 2.09-2.412.14-5.867-3.55-4.134-1.577-2.572-5.49-1.62-4.97 1.5.349 2.09 1.895 3.937 2.802 4.866.41.419 1.003.58 1.561.404z" fill="url(#d)"/><ellipse cx="9.432" cy="9.311" rx="1.5" ry="3" transform="rotate(-45 9.432 9.31)" fill="url(#e)"/><ellipse cx="20.919" cy="9.198" rx="2" ry="3" transform="rotate(-12.966 20.92 9.198)" fill="url(#f)"/><circle cx="13.078" cy="7.624" r="1.5" transform="rotate(45 13.078 7.624)" fill="url(#g)"/><ellipse cx="24.371" cy="8.624" rx="1" ry="2" transform="rotate(45 24.371 8.624)" fill="url(#h)"/><defs><radialGradient id="a" cx="0" cy="0" r="1" gradientUnits="userSpaceOnUse" gradientTransform="matrix(-11.99998 -5.5001 2.2862 -4.98797 14 14)"><stop stop-color="#CC7521"/><stop offset="1" stop-color="#E6872B" stop-opacity="0"/></radialGradient><radialGradient id="b" cx="0" cy="0" r="1" gradientUnits="userSpaceOnUse" gradientTransform="rotate(122.005 6.952 11.043) scale(4.71699)"><stop stop-color="#EC812A"/><stop offset="1" stop-color="#FBA84C" stop-opacity="0"/></radialGradient><radialGradient id="e" cx="0" cy="0" r="1" gradientUnits="userSpaceOnUse" gradientTransform="matrix(0 3.10148 -1.5764 0 9.432 9.31)"><stop stop-color="#EC6686"/><stop offset="1" stop-color="#EC6686" stop-opacity="0"/></radialGradient><radialGradient id="f" cx="0" cy="0" r="1" gradientUnits="userSpaceOnUse" gradientTransform="rotate(81.165 5.254 16.795) scale(2.69258 1.82475)"><stop stop-color="#EC6686"/><stop offset=".26" stop-color="#EC6686"/><stop offset="1" stop-color="#EC6686" stop-opacity="0"/></radialGradient><radialGradient id="g" cx="0" cy="0" r="1" gradientUnits="userSpaceOnUse" gradientTransform="matrix(0 1.5 -1.5 0 13.078 7.624)"><stop stop-color="#EC6686"/><stop offset="1" stop-color="#EC6686" stop-opacity="0"/></radialGradient><radialGradient id="h" cx="0" cy="0" r="1" gradientUnits="userSpaceOnUse" gradientTransform="matrix(0 2 -1 0 24.371 8.624)"><stop stop-color="#EC6686"/><stop offset="1" stop-color="#EC6686" stop-opacity="0"/></radialGradient><linearGradient id="c" x1="12.986" y1="7" x2="9.986" y2="14" gradientUnits="userSpaceOnUse"><stop stop-color="#CA0B4A"/><stop offset="1" stop-color="#F70A8D"/></linearGradient><linearGradient id="d" x1="24" y1="7" x2="19" y2="15" gradientUnits="userSpaceOnUse"><stop stop-color="#CA0B4A"/><stop offset="1" stop-color="#F70A8D"/></linearGradient></defs></svg>