<svg width="32" height="32" fill="none" xmlns="http://www.w3.org/2000/svg"><g filter="url(#a)"><path d="M26.29 13.976c-.41-2.6-2.84-4.87-5.73-4.24-2.31.5-3.78 2.78-3.28 5.09a3.42 3.42 0 0 0 4.07 2.62 2.742 2.742 0 0 0 2.1-3.26c-.26-1.18-1.23-1.83-2.41-1.58-.95.2-1.31 1.85-.38 2.13" stroke="#B87506" stroke-width="1.5" stroke-miterlimit="10" stroke-linecap="round" stroke-linejoin="round"/></g><g filter="url(#b)"><path d="M4.29 13.976c.41-2.6 2.84-4.87 5.73-4.24 2.31.5 3.78 2.78 3.28 5.09a3.42 3.42 0 0 1-4.07 2.62 2.742 2.742 0 0 1-2.1-3.26c.26-1.18 1.23-1.83 2.41-1.58.95.2 1.31 1.85.38 2.13" stroke="#B56318" stroke-width="1.5" stroke-miterlimit="10" stroke-linecap="round" stroke-linejoin="round"/></g><path d="M26.978 13.32c-.41-2.6-2.84-4.87-5.73-4.24-2.31.5-3.78 2.78-3.28 5.09a3.42 3.42 0 0 0 4.07 2.62 2.742 2.742 0 0 0 2.1-3.26c-.26-1.18-1.23-1.83-2.41-1.58-.95.2-1.31 1.85-.38 2.13" stroke="url(#c)" stroke-width="2" stroke-miterlimit="10" stroke-linecap="round" stroke-linejoin="round"/><path d="M26.978 13.32c-.41-2.6-2.84-4.87-5.73-4.24-2.31.5-3.78 2.78-3.28 5.09a3.42 3.42 0 0 0 4.07 2.62 2.742 2.742 0 0 0 2.1-3.26c-.26-1.18-1.23-1.83-2.41-1.58-.95.2-1.31 1.85-.38 2.13" stroke="url(#d)" stroke-width="2" stroke-miterlimit="10" stroke-linecap="round" stroke-linejoin="round"/><path d="M26.978 13.32c-.41-2.6-2.84-4.87-5.73-4.24-2.31.5-3.78 2.78-3.28 5.09a3.42 3.42 0 0 0 4.07 2.62 2.742 2.742 0 0 0 2.1-3.26c-.26-1.18-1.23-1.83-2.41-1.58-.95.2-1.31 1.85-.38 2.13" stroke="url(#e)" stroke-width="2" stroke-miterlimit="10" stroke-linecap="round" stroke-linejoin="round"/><path d="M4.978 13.32c.41-2.6 2.84-4.87 5.73-4.24 2.31.5 3.78 2.78 3.28 5.09a3.42 3.42 0 0 1-4.07 2.62 2.742 2.742 0 0 1-2.1-3.26c.26-1.18 1.23-1.83 2.41-1.58.95.2 1.31 1.85.38 2.13" stroke="url(#f)" stroke-width="2" stroke-miterlimit="10" stroke-linecap="round" stroke-linejoin="round"/><path d="M4.978 13.32c.41-2.6 2.84-4.87 5.73-4.24 2.31.5 3.78 2.78 3.28 5.09a3.42 3.42 0 0 1-4.07 2.62 2.742 2.742 0 0 1-2.1-3.26c.26-1.18 1.23-1.83 2.41-1.58.95.2 1.31 1.85.38 2.13" stroke="url(#g)" stroke-width="2" stroke-miterlimit="10" stroke-linecap="round" stroke-linejoin="round"/><path d="M4.978 13.32c.41-2.6 2.84-4.87 5.73-4.24 2.31.5 3.78 2.78 3.28 5.09a3.42 3.42 0 0 1-4.07 2.62 2.742 2.742 0 0 1-2.1-3.26c.26-1.18 1.23-1.83 2.41-1.58.95.2 1.31 1.85.38 2.13" stroke="url(#h)" stroke-width="2" stroke-miterlimit="10" stroke-linecap="round" stroke-linejoin="round"/><g filter="url(#i)"><path d="M26.978 13.32c-.41-2.6-2.84-4.87-5.73-4.24-2.31.5-3.78 2.78-3.28 5.09a3.42 3.42 0 0 0 4.07 2.62 2.742 2.742 0 0 0 2.1-3.26c-.26-1.18-1.23-1.83-2.41-1.58-.95.2-1.31 1.85-.38 2.13" stroke="#694C5E" stroke-width=".4" stroke-linecap="round" stroke-linejoin="round"/></g><g filter="url(#j)"><path d="M4.978 13.32c.41-2.6 2.84-4.87 5.73-4.24 2.31.5 3.78 2.78 3.28 5.09a3.42 3.42 0 0 1-4.07 2.62 2.742 2.742 0 0 1-2.1-3.26c.26-1.18 1.23-1.83 2.41-1.58.95.2 1.31 1.85.38 2.13" stroke="#694C5E" stroke-width=".4" stroke-linecap="round" stroke-linejoin="round"/></g><defs><linearGradient id="d" x1="25.303" y1="18.815" x2="25.303" y2="15.627" gradientUnits="userSpaceOnUse"><stop stop-color="#633563"/><stop offset=".573" stop-color="#633563" stop-opacity="0"/></linearGradient><linearGradient id="e" x1="27.928" y1="8.252" x2="23.803" y2="14.127" gradientUnits="userSpaceOnUse"><stop stop-color="#5A4B4E"/><stop offset="1" stop-color="#5A4B4E" stop-opacity="0"/></linearGradient><linearGradient id="g" x1="6.654" y1="18.815" x2="6.654" y2="15.627" gradientUnits="userSpaceOnUse"><stop stop-color="#633563"/><stop offset=".573" stop-color="#633563" stop-opacity="0"/></linearGradient><linearGradient id="h" x1="4.029" y1="8.252" x2="8.154" y2="14.127" gradientUnits="userSpaceOnUse"><stop stop-color="#5A4B4E"/><stop offset="1" stop-color="#5A4B4E" stop-opacity="0"/></linearGradient><filter id="a" x="15.433" y="7.878" width="12.608" height="11.397" filterUnits="userSpaceOnUse" color-interpolation-filters="sRGB"><feFlood flood-opacity="0" result="BackgroundImageFix"/><feBlend in="SourceGraphic" in2="BackgroundImageFix" result="shape"/><feGaussianBlur stdDeviation=".5" result="effect1_foregroundBlur_7320_6152"/></filter><filter id="b" x="2.541" y="7.878" width="12.608" height="11.397" filterUnits="userSpaceOnUse" color-interpolation-filters="sRGB"><feFlood flood-opacity="0" result="BackgroundImageFix"/><feBlend in="SourceGraphic" in2="BackgroundImageFix" result="shape"/><feGaussianBlur stdDeviation=".5" result="effect1_foregroundBlur_7320_6152"/></filter><filter id="i" x="17.071" y="8.173" width="10.708" height="9.495" filterUnits="userSpaceOnUse" color-interpolation-filters="sRGB"><feFlood flood-opacity="0" result="BackgroundImageFix"/><feBlend in="SourceGraphic" in2="BackgroundImageFix" result="shape"/><feGaussianBlur stdDeviation=".3" result="effect1_foregroundBlur_7320_6152"/></filter><filter id="j" x="4.178" y="8.173" width="10.708" height="9.495" filterUnits="userSpaceOnUse" color-interpolation-filters="sRGB"><feFlood flood-opacity="0" result="BackgroundImageFix"/><feBlend in="SourceGraphic" in2="BackgroundImageFix" result="shape"/><feGaussianBlur stdDeviation=".3" result="effect1_foregroundBlur_7320_6152"/></filter><radialGradient id="c" cx="0" cy="0" r="1" gradientUnits="userSpaceOnUse" gradientTransform="rotate(-119.993 15.044 .628) scale(5.37618 7.49908)"><stop offset=".02" stop-color="#482641"/><stop offset="1" stop-color="#483637"/></radialGradient><radialGradient id="f" cx="0" cy="0" r="1" gradientUnits="userSpaceOnUse" gradientTransform="rotate(-60.007 17.065 -1.617) scale(5.37618 7.49908)"><stop offset=".02" stop-color="#482641"/><stop offset="1" stop-color="#483637"/></radialGradient></defs></svg>