<svg width="32" height="32" fill="none" xmlns="http://www.w3.org/2000/svg"><g filter="url(#a)" fill-opacity=".6"><path d="M9.447 14.328a1 1 0 1 1-.894-1.79l2.206-1.103H14a1 1 0 0 1-.553.893l-4 2z" fill="url(#b)" style="mix-blend-mode:multiply"/><path d="M9.447 8.543a1 1 0 0 0-.894 1.79l2.206 1.102H14a1 1 0 0 0-.553-.892l-4-2z" fill="url(#c)" style="mix-blend-mode:multiply"/></g><path d="M9.447 13.89a1 1 0 1 1-.894-1.789l2.206-1.103H14a1 1 0 0 1-.553.892l-4 2z" fill="url(#d)"/><path d="M9.447 8.106a1 1 0 0 0-.894 1.789l2.206 1.103H14a1 1 0 0 0-.553-.892l-4-2z" fill="url(#e)"/><g filter="url(#f)"><path d="M21.959 14.328a1 1 0 1 0 .894-1.79l-2.206-1.103h-3.24a1 1 0 0 0 .552.893l4 2z" fill="url(#g)"/><path d="M21.959 8.543a1 1 0 1 1 .894 1.79l-2.206 1.102h-3.24a1 1 0 0 1 .552-.892l4-2z" fill="url(#h)"/></g><path d="M22.537 13.89a1 1 0 0 0 .895-1.789l-2.207-1.103h-3.24a1 1 0 0 0 .552.892l4 2z" fill="url(#i)"/><path d="M22.537 8.106a1 1 0 0 1 .895 1.789l-2.207 1.103h-3.24a1 1 0 0 1 .552-.892l4-2z" fill="url(#j)"/><defs><radialGradient id="b" cx="0" cy="0" r="1" gradientUnits="userSpaceOnUse" gradientTransform="matrix(-2.62502 7.125 -9.31237 -3.4309 9.781 8.438)"><stop stop-color="#9F5E0F"/><stop offset=".889" stop-color="#9F5E0F" stop-opacity="0"/></radialGradient><radialGradient id="c" cx="0" cy="0" r="1" gradientUnits="userSpaceOnUse" gradientTransform="matrix(-2.62502 7.125 -9.31237 -3.4309 9.781 8.438)"><stop stop-color="#9F5E0F"/><stop offset=".889" stop-color="#9F5E0F" stop-opacity="0"/></radialGradient><radialGradient id="g" cx="0" cy="0" r="1" gradientUnits="userSpaceOnUse" gradientTransform="rotate(-135.995 16.533 2.298) scale(13.3597 17.4611)"><stop stop-color="#E9830A"/><stop offset=".802" stop-color="#F08B13" stop-opacity="0"/></radialGradient><radialGradient id="h" cx="0" cy="0" r="1" gradientUnits="userSpaceOnUse" gradientTransform="rotate(-135.995 16.533 2.298) scale(13.3597 17.4611)"><stop stop-color="#E9830A"/><stop offset=".802" stop-color="#F08B13" stop-opacity="0"/></radialGradient><linearGradient id="d" x1="10.578" y1="14.732" x2="8" y2="9.388" gradientUnits="userSpaceOnUse"><stop offset=".25" stop-color="#482641"/><stop offset=".406" stop-color="#503A4A"/><stop offset=".511" stop-color="#482641"/></linearGradient><linearGradient id="e" x1="8.86" y1="11.139" x2="11.25" y2="6.451" gradientUnits="userSpaceOnUse"><stop offset=".25" stop-color="#482641"/><stop offset=".406" stop-color="#503A4A"/><stop offset=".511" stop-color="#482641"/></linearGradient><linearGradient id="i" x1="21.406" y1="14.732" x2="23.985" y2="9.388" gradientUnits="userSpaceOnUse"><stop offset=".25" stop-color="#482641"/><stop offset=".406" stop-color="#503A4A"/><stop offset=".511" stop-color="#482641"/></linearGradient><linearGradient id="j" x1="23.125" y1="11.139" x2="20.734" y2="6.451" gradientUnits="userSpaceOnUse"><stop offset=".25" stop-color="#482641"/><stop offset=".406" stop-color="#503A4A"/><stop offset=".511" stop-color="#482641"/></linearGradient><filter id="a" x="7.5" y="7.938" width="7" height="6.996" filterUnits="userSpaceOnUse" color-interpolation-filters="sRGB"><feFlood flood-opacity="0" result="BackgroundImageFix"/><feBlend in="SourceGraphic" in2="BackgroundImageFix" result="shape"/><feGaussianBlur stdDeviation=".25" result="effect1_foregroundBlur_147_1319"/></filter><filter id="f" x="16.906" y="7.938" width="7" height="6.996" filterUnits="userSpaceOnUse" color-interpolation-filters="sRGB"><feFlood flood-opacity="0" result="BackgroundImageFix"/><feBlend in="SourceGraphic" in2="BackgroundImageFix" result="shape"/><feGaussianBlur stdDeviation=".25" result="effect1_foregroundBlur_147_1319"/></filter></defs></svg>