<svg width="32" height="32" fill="none" xmlns="http://www.w3.org/2000/svg"><path fill-rule="evenodd" clip-rule="evenodd" d="M10.75 6a.75.75 0 0 1 .75.75v.8a2.5 2.5 0 0 1 2 2.45v.25a.75.75 0 0 1-1.5 0V10a1 1 0 0 0-1-1h-.5a1 1 0 0 0-1 1v.205a1 1 0 0 0 .876.992l.934.117a2.5 2.5 0 0 1 2.19 2.48V14a2.5 2.5 0 0 1-2 2.45v.8a.75.75 0 0 1-1.5 0v-.8A2.5 2.5 0 0 1 8 14v-.25a.75.75 0 0 1 1.5 0V14a1 1 0 0 0 1 1h.5a1 1 0 0 0 1-1v-.205a1 1 0 0 0-.876-.992l-.934-.117A2.5 2.5 0 0 1 8 10.206V10a2.5 2.5 0 0 1 2-2.45v-.8a.75.75 0 0 1 .75-.75zM21.25 6a.75.75 0 0 1 .75.75v.8A2.5 2.5 0 0 1 24 10v.25a.75.75 0 0 1-1.5 0V10a1 1 0 0 0-1-1H21a1 1 0 0 0-1 1v.205a1 1 0 0 0 .876.992l.934.117a2.5 2.5 0 0 1 2.19 2.48V14a2.5 2.5 0 0 1-2 2.45v.8a.75.75 0 0 1-1.5 0v-.8a2.5 2.5 0 0 1-2-2.45v-.25a.75.75 0 0 1 1.5 0V14a1 1 0 0 0 1 1h.5a1 1 0 0 0 1-1v-.205a1 1 0 0 0-.876-.992l-.934-.117a2.5 2.5 0 0 1-2.19-2.48V10a2.5 2.5 0 0 1 2-2.45v-.8a.75.75 0 0 1 .75-.75z" fill="#402A32"/></svg>