<svg width="32" height="32" fill="none" xmlns="http://www.w3.org/2000/svg"><g clip-path="url(#a)"><path fill-rule="evenodd" clip-rule="evenodd" d="M19.566 29.659a18.04 18.04 0 0 1-3.567.339c-6.84 0-11.172-3.365-12.999-8.205V16h3v3l13.566 10.659z" fill="url(#b)"/><g filter="url(#c)"><path d="M1 23.881V18.5a1.5 1.5 0 0 1 3 0v.64c0 .538.268 1.039.715 1.337l4.513 3.008a4.017 4.017 0 1 1-5.278 5.957L2.38 27.609A5.728 5.728 0 0 1 1 23.88z" fill="url(#d)"/></g><path fill-rule="evenodd" clip-rule="evenodd" d="M12.5 29.659c1.102.222 2.29.339 3.567.339 6.839 0 11.171-3.365 12.998-8.205V16h-3v3L12.5 29.659z" fill="url(#e)"/><g filter="url(#f)"><path d="M31.066 23.881V18.5a1.5 1.5 0 0 0-3 0v.64c0 .538-.269 1.039-.715 1.337l-4.514 3.008a4.017 4.017 0 1 0 5.278 5.957l1.572-1.833a5.729 5.729 0 0 0 1.378-3.728z" fill="url(#g)"/></g><path fill="url(#h)" d="M28 18h3v8h-3z"/></g><defs><radialGradient id="b" cx="0" cy="0" r="1" gradientUnits="userSpaceOnUse" gradientTransform="matrix(7.57068 -5.4915 6.91135 9.52811 .93 26.991)"><stop offset=".576" stop-color="#392108"/><stop offset="1" stop-color="#C87928" stop-opacity="0"/></radialGradient><radialGradient id="e" cx="0" cy="0" r="1" gradientUnits="userSpaceOnUse" gradientTransform="matrix(-7.49998 -6.99996 11.3043 -12.11177 30.5 28.5)"><stop offset=".577" stop-color="#985600"/><stop offset="1" stop-color="#C87928" stop-opacity="0"/></radialGradient><radialGradient id="h" cx="0" cy="0" r="1" gradientUnits="userSpaceOnUse" gradientTransform="matrix(0 3.3 -1.54688 0 29.5 21.2)"><stop stop-color="#FFE045"/><stop offset="1" stop-color="#FFDE44" stop-opacity="0"/></radialGradient><linearGradient id="d" x1="6.5" y1="23.5" x2=".5" y2="28" gradientUnits="userSpaceOnUse"><stop stop-color="#FFD556"/><stop offset=".429" stop-color="#FBA73B"/><stop offset=".84" stop-color="#F07D54"/></linearGradient><linearGradient id="g" x1="30" y1="23" x2="20.5" y2="32.5" gradientUnits="userSpaceOnUse"><stop stop-color="#FFD556"/><stop offset=".345" stop-color="#FFCA40"/><stop offset=".615" stop-color="#FBA73B"/><stop offset=".84" stop-color="#FF6E2E"/></linearGradient><filter id="c" x="1" y="16" width="11.017" height="14.845" filterUnits="userSpaceOnUse" color-interpolation-filters="sRGB"><feFlood flood-opacity="0" result="BackgroundImageFix"/><feBlend in="SourceGraphic" in2="BackgroundImageFix" result="shape"/><feColorMatrix in="SourceAlpha" values="0 0 0 0 0 0 0 0 0 0 0 0 0 0 0 0 0 0 127 0" result="hardAlpha"/><feOffset dx="1" dy="-1"/><feGaussianBlur stdDeviation="1"/><feComposite in2="hardAlpha" operator="arithmetic" k2="-1" k3="1"/><feColorMatrix values="0 0 0 0 0 0 0 0 0 0 0 0 0 0 0 0 0 0 0.12 0"/><feBlend in2="shape" result="effect1_innerShadow_978_4344"/></filter><filter id="f" x="21.048" y="16" width="11.017" height="14.845" filterUnits="userSpaceOnUse" color-interpolation-filters="sRGB"><feFlood flood-opacity="0" result="BackgroundImageFix"/><feBlend in="SourceGraphic" in2="BackgroundImageFix" result="shape"/><feColorMatrix in="SourceAlpha" values="0 0 0 0 0 0 0 0 0 0 0 0 0 0 0 0 0 0 127 0" result="hardAlpha"/><feOffset dx="1" dy="-1"/><feGaussianBlur stdDeviation="1"/><feComposite in2="hardAlpha" operator="arithmetic" k2="-1" k3="1"/><feColorMatrix values="0 0 0 0 0 0 0 0 0 0 0 0 0 0 0 0 0 0 0.12 0"/><feBlend in2="shape" result="effect1_innerShadow_978_4344"/></filter><clipPath id="a"><path fill="#fff" d="M0 0h32v32H0z"/></clipPath></defs></svg>