<svg width="32" height="32" fill="none" xmlns="http://www.w3.org/2000/svg"><path fill-rule="evenodd" clip-rule="evenodd" d="M2.938 21.625c.819.558 1.954.483 2.692-.255L9 18a2.121 2.121 0 0 0-3-3l-3.37 3.37c-.164.164-.296.35-.396.547.157.941.391 1.847.704 2.708z" fill="url(#a)"/><path fill-rule="evenodd" clip-rule="evenodd" d="M29.875 18.125 26.75 15a2.121 2.121 0 0 0-3 3l3.37 3.37a2.116 2.116 0 0 0 1.81.598c.471-1.197.786-2.488.945-3.843z" fill="url(#b)"/><path d="m8 17-3.37 3.37a2.121 2.121 0 1 1-3-3L5 14a2.121 2.121 0 0 1 3 3z" fill="url(#c)"/><path d="m24.25 17 3.37 3.37a2.121 2.121 0 1 0 3-3L27.25 14a2.121 2.121 0 0 0-3 3z" fill="url(#d)"/><defs><radialGradient id="a" cx="0" cy="0" r="1" gradientUnits="userSpaceOnUse" gradientTransform="matrix(4 -2.5 1.62283 2.59652 4 19.5)"><stop stop-color="#6D4534"/><stop offset="1" stop-color="#FF822D" stop-opacity="0"/></radialGradient><radialGradient id="b" cx="0" cy="0" r="1" gradientUnits="userSpaceOnUse" gradientTransform="matrix(4.5 3 -1.94739 2.92108 25.5 16.5)"><stop stop-color="#6D4534"/><stop offset="1" stop-color="#FF822D" stop-opacity="0"/></radialGradient><radialGradient id="c" cx="0" cy="0" r="1" gradientUnits="userSpaceOnUse" gradientTransform="matrix(-5.50001 3.49998 -1.59351 -2.50411 8 15)"><stop stop-color="#508FFF"/><stop offset="1" stop-color="#3D5BF1"/></radialGradient><radialGradient id="d" cx="0" cy="0" r="1" gradientUnits="userSpaceOnUse" gradientTransform="matrix(3 3.5 -1.59352 1.36587 27.5 15.5)"><stop stop-color="#5092FF"/><stop offset="1" stop-color="#3F5FFF"/></radialGradient></defs></svg>