<svg width="32" height="32" fill="none" xmlns="http://www.w3.org/2000/svg"><rect x="8" width="20" height="20" rx="10" fill="url(#a)"/><path fill-rule="evenodd" clip-rule="evenodd" d="M28.78 2.374a1 1 0 0 1 .114 1.073l-2.027 4.056 1.89-.473a1 1 0 1 1 .485 1.94l-4 1a1 1 0 0 1-1.136-1.417l2.027-4.056-1.89.473a1 1 0 1 1-.485-1.94l4-1a1 1 0 0 1 1.022.344z" fill="url(#b)"/><path fill-rule="evenodd" clip-rule="evenodd" d="M28.78 2.374a1 1 0 0 1 .114 1.073l-2.027 4.056 1.89-.473a1 1 0 1 1 .485 1.94l-4 1a1 1 0 0 1-1.136-1.417l2.027-4.056-1.89.473a1 1 0 1 1-.485-1.94l4-1a1 1 0 0 1 1.022.344z" fill="url(#c)"/><path fill-rule="evenodd" clip-rule="evenodd" d="m26.077 2.45 1.68-.42a1 1 0 0 1 1.137 1.417l-.774 1.55L28 5a2 2 0 0 1-1.923-2.55z" fill="url(#d)"/><path fill-rule="evenodd" clip-rule="evenodd" d="M19 6.5a.5.5 0 0 1 .5-.5h3a.5.5 0 0 1 .4.8L20.5 10h2a.5.5 0 0 1 0 1h-3a.5.5 0 0 1-.4-.8L21.5 7h-2a.5.5 0 0 1-.5-.5z" fill="#43BFFF"/><path fill-rule="evenodd" clip-rule="evenodd" d="M14.026 8.342a.5.5 0 0 1 .632-.316l3 1a.5.5 0 0 1 .09.908L15.22 11.38l1.94.647a.5.5 0 1 1-.317.948l-3-1a.5.5 0 0 1-.09-.908L16.28 9.62l-1.94-.647a.5.5 0 0 1-.315-.632z" fill="url(#e)"/><defs><radialGradient id="a" cx="0" cy="0" r="1" gradientUnits="userSpaceOnUse" gradientTransform="matrix(7.5 -3 2.14127 5.35318 16.5 11.5)"><stop stop-color="#EFA031"/><stop offset="1" stop-color="#F0A83E" stop-opacity="0"/></radialGradient><radialGradient id="c" cx="0" cy="0" r="1" gradientUnits="userSpaceOnUse" gradientTransform="matrix(-3.50001 .99998 -.23103 -.80862 29 7.5)"><stop stop-color="#63BEFE"/><stop offset="1" stop-color="#63BEFE" stop-opacity="0"/></radialGradient><radialGradient id="d" cx="0" cy="0" r="1" gradientUnits="userSpaceOnUse" gradientTransform="matrix(1 1 -1 1 28 2.5)"><stop stop-color="#63BEFE"/><stop offset="1" stop-color="#4FB5FC" stop-opacity="0"/></radialGradient><linearGradient id="b" x1="24" y1="8.5" x2="28" y2="6.5" gradientUnits="userSpaceOnUse"><stop stop-color="#2C80E2"/><stop offset="1" stop-color="#36A0FF"/></linearGradient><linearGradient id="e" x1="12.5" y1="12" x2="16.5" y2="11.5" gradientUnits="userSpaceOnUse"><stop stop-color="#697BEC"/><stop offset="1" stop-color="#8CBAF0"/></linearGradient></defs></svg>