<svg width="32" height="32" fill="none" xmlns="http://www.w3.org/2000/svg"><path fill-rule="evenodd" clip-rule="evenodd" d="M16 1c-3.377 0-6.474.256-8.762.685-1.131.212-2.14.48-2.903.818-.376.167-.776.386-1.105.688-.325.298-.73.821-.73 1.559s.405 1.26.73 1.56c.33.3.73.52 1.105.687.102.045.208.09.319.132C6.947 3.998 10.729 2 15.998 2c5.27 0 9.052 1.998 11.346 5.13.11-.043.218-.088.32-.133.376-.167.776-.386 1.105-.688.326-.298.73-.821.73-1.559s-.404-1.26-.73-1.56c-.33-.3-.73-.52-1.105-.687-.762-.338-1.772-.606-2.903-.818C22.474 1.255 19.377 1 16 1z" fill="url(#a)"/><path fill-rule="evenodd" clip-rule="evenodd" d="M3.585 8.873c.184.157.373.292.55.405.789.506 1.832.905 2.988 1.218 2.332.632 5.47 1.004 8.877 1.004 3.407 0 6.545-.372 8.878-1.004 1.155-.313 2.198-.712 2.988-1.218.176-.113.364-.247.547-.404a12.104 12.104 0 0 0-2.526-3.39c-.633.183-1.274.328-1.789.417 1.014.275 1.726.576 2.15.847l.003.002-.003.002c-.425.272-1.139.573-2.155.848-2.01.545-4.872.9-8.093.9-3.22 0-6.082-.355-8.093-.9-1.016-.275-1.73-.576-2.155-.848l-.003-.002.003-.002c.41-.262 1.088-.551 2.047-.819a18.4 18.4 0 0 1-1.767-.37 12.12 12.12 0 0 0-2.447 3.314zM5.441 7l.009-.012a.051.051 0 0 1-.01.012zm21.118 0-.008-.012.009.012zm-.008-.486a.048.048 0 0 1 .009-.012s-.002.004-.01.012zm-21.101 0a.047.047 0 0 1-.01-.012c.001 0 .005.004.01.012z" fill="url(#b)"/><path fill-rule="evenodd" clip-rule="evenodd" d="M3.123 3.295C3.853 4.187 7.6 5 8.5 5h.071c1.981.308 4.57.5 7.429.5 2.922 0 5.563-.2 7.56-.52C24.93 4.83 28.5 3.915 28.5 3v-.029c.094.068.184.141.27.22.326.298.73.821.73 1.559s-.404 1.26-.73 1.56c-.33.3-.73.52-1.105.687-.762.338-1.772.606-2.903.818-2.288.43-5.385.685-8.762.685-3.377 0-6.474-.256-8.762-.685-1.131-.212-2.14-.48-2.903-.818-.376-.167-.776-.386-1.105-.688-.325-.298-.73-.821-.73-1.559 0-.659.322-1.146.623-1.455z" fill="url(#c)"/><path fill-rule="evenodd" clip-rule="evenodd" d="M3.123 3.295C3.853 4.187 7.6 5 8.5 5h.071c1.981.308 4.57.5 7.429.5 2.922 0 5.563-.2 7.56-.52C24.93 4.83 28.5 3.915 28.5 3v-.029c.094.068.184.141.27.22.326.298.73.821.73 1.559s-.404 1.26-.73 1.56c-.33.3-.73.52-1.105.687-.762.338-1.772.606-2.903.818-2.288.43-5.385.685-8.762.685-3.377 0-6.474-.256-8.762-.685-1.131-.212-2.14-.48-2.903-.818-.376-.167-.776-.386-1.105-.688-.325-.298-.73-.821-.73-1.559 0-.659.322-1.146.623-1.455z" fill="url(#d)"/><defs><radialGradient id="b" cx="0" cy="0" r="1" gradientUnits="userSpaceOnUse" gradientTransform="matrix(0 3.5 -19.4266 0 14.5 6.5)"><stop stop-color="#392108"/><stop offset="1" stop-color="#C87928" stop-opacity="0"/></radialGradient><radialGradient id="c" cx="0" cy="0" r="1" gradientUnits="userSpaceOnUse" gradientTransform="matrix(0 33 -38.8902 0 16.5 -23)"><stop offset=".843" stop-color="#425BFF"/><stop offset=".898" stop-color="#508FFF"/><stop offset=".958" stop-color="#4457FF"/></radialGradient><radialGradient id="d" cx="0" cy="0" r="1" gradientUnits="userSpaceOnUse" gradientTransform="matrix(14 0 0 16.4989 6.5 3.5)"><stop stop-color="#5664D2"/><stop offset="1" stop-color="#4457FF" stop-opacity="0"/></radialGradient><linearGradient id="a" x1="16" y1="-1.043" x2="16" y2="3.724" gradientUnits="userSpaceOnUse"><stop stop-color="#3173EC"/><stop offset="1" stop-color="#3A54E1"/></linearGradient></defs></svg>