<svg width="32" height="32" fill="none" xmlns="http://www.w3.org/2000/svg"><g filter="url(#a)"><path d="M4.093 19.362a1.125 1.125 0 0 1 1.584-.138l2.972 2.493-.25-.897a1.17 1.17 0 1 1 2.256-.62l.689 2.539.836 2.012c.015.037.03.075.04.112.299.575.467 1.231.467 1.927 0 2.276-1.805 4.12-4.031 4.12-.98 0-1.878-.356-2.576-.95l-4.483-3.297a1.165 1.165 0 0 1 .436-2.076l-.426-.357a1.177 1.177 0 0 1 .52-2.054l-.132-.11a1.177 1.177 0 1 1 1.513-1.803l.486.407c-.244-.4-.22-.929.099-1.308z" fill="url(#b)"/><path d="M4.093 19.362a1.125 1.125 0 0 1 1.584-.138l2.972 2.493-.25-.897a1.17 1.17 0 1 1 2.256-.62l.689 2.539.836 2.012c.015.037.03.075.04.112.299.575.467 1.231.467 1.927 0 2.276-1.805 4.12-4.031 4.12-.98 0-1.878-.356-2.576-.95l-4.483-3.297a1.165 1.165 0 0 1 .436-2.076l-.426-.357a1.177 1.177 0 0 1 .52-2.054l-.132-.11a1.177 1.177 0 1 1 1.513-1.803l.486.407c-.244-.4-.22-.929.099-1.308z" fill="url(#c)"/><path d="M4.093 19.362a1.125 1.125 0 0 1 1.584-.138l2.972 2.493-.25-.897a1.17 1.17 0 1 1 2.256-.62l.689 2.539.836 2.012c.015.037.03.075.04.112.299.575.467 1.231.467 1.927 0 2.276-1.805 4.12-4.031 4.12-.98 0-1.878-.356-2.576-.95l-4.483-3.297a1.165 1.165 0 0 1 .436-2.076l-.426-.357a1.177 1.177 0 0 1 .52-2.054l-.132-.11a1.177 1.177 0 1 1 1.513-1.803l.486.407c-.244-.4-.22-.929.099-1.308z" fill="url(#d)"/><path d="M4.093 19.362a1.125 1.125 0 0 1 1.584-.138l2.972 2.493-.25-.897a1.17 1.17 0 1 1 2.256-.62l.689 2.539.836 2.012c.015.037.03.075.04.112.299.575.467 1.231.467 1.927 0 2.276-1.805 4.12-4.031 4.12-.98 0-1.878-.356-2.576-.95l-4.483-3.297a1.165 1.165 0 0 1 .436-2.076l-.426-.357a1.177 1.177 0 0 1 .52-2.054l-.132-.11a1.177 1.177 0 1 1 1.513-1.803l.486.407c-.244-.4-.22-.929.099-1.308z" fill="url(#e)"/></g><path d="M3.022 24.764a1.18 1.18 0 0 0-1.39 1.908l.535.393a1.831 1.831 0 0 0 2.281-.09l.744-.642-2.17-1.57z" fill="url(#f)"/><path d="M6.156 25.172c-.218.125-.978.413-1.156.625-.418.498-.65.639-1.149.221l-2.13-1.788a1.177 1.177 0 0 1-.146-1.658c.428-.51.99-.516 1.492-.08l3.09 2.68z" fill="url(#g)"/><path d="M7.375 23.781c-.375.203-.625.438-1.016.766-.417.498-.674.718-1.172.3l-3.172-2.781a1.177 1.177 0 1 1 1.513-1.803l.486.407c.062.102.141.195.238.276l3.123 2.835z" fill="url(#h)"/><path d="M5.642 19.177a1.052 1.052 0 1 0-1.243 1.692l4.82 3.084-.55-2.237-3.027-2.54z" fill="url(#i)"/><g filter="url(#j)"><path d="m5.192 19.871 3.063 2.656" stroke="url(#k)" stroke-linecap="round"/></g><g filter="url(#l)"><path d="m2.954 20.871 3.062 2.656" stroke="url(#m)" stroke-linecap="round"/></g><g filter="url(#n)"><path d="m2.438 22.902 3.063 2.656" stroke="url(#o)" stroke-linecap="round"/></g><g filter="url(#p)"><path d="m2.438 25.25 2.28 1.672" stroke="url(#q)" stroke-linecap="round"/></g><g filter="url(#r)"><path d="M27.923 19.373a1.125 1.125 0 0 0-1.585-.139l-2.972 2.494.25-.897a1.17 1.17 0 1 0-2.256-.62l-.688 2.539-.837 2.012a1.325 1.325 0 0 0-.04.113 4.176 4.176 0 0 0-.467 1.926c0 2.276 1.805 4.12 4.032 4.12.98 0 1.878-.356 2.576-.95l4.483-3.297a1.165 1.165 0 0 0-.436-2.076l.426-.357a1.177 1.177 0 0 0-.52-2.054l.131-.11a1.177 1.177 0 0 0-1.513-1.803l-.485.407c.244-.4.219-.929-.1-1.308z" fill="url(#s)"/><path d="M27.923 19.373a1.125 1.125 0 0 0-1.585-.139l-2.972 2.494.25-.897a1.17 1.17 0 1 0-2.256-.62l-.688 2.539-.837 2.012a1.325 1.325 0 0 0-.04.113 4.176 4.176 0 0 0-.467 1.926c0 2.276 1.805 4.12 4.032 4.12.98 0 1.878-.356 2.576-.95l4.483-3.297a1.165 1.165 0 0 0-.436-2.076l.426-.357a1.177 1.177 0 0 0-.52-2.054l.131-.11a1.177 1.177 0 0 0-1.513-1.803l-.485.407c.244-.4.219-.929-.1-1.308z" fill="url(#t)"/><path d="M27.923 19.373a1.125 1.125 0 0 0-1.585-.139l-2.972 2.494.25-.897a1.17 1.17 0 1 0-2.256-.62l-.688 2.539-.837 2.012a1.325 1.325 0 0 0-.04.113 4.176 4.176 0 0 0-.467 1.926c0 2.276 1.805 4.12 4.032 4.12.98 0 1.878-.356 2.576-.95l4.483-3.297a1.165 1.165 0 0 0-.436-2.076l.426-.357a1.177 1.177 0 0 0-.52-2.054l.131-.11a1.177 1.177 0 0 0-1.513-1.803l-.485.407c.244-.4.219-.929-.1-1.308z" fill="url(#u)"/><path d="M27.923 19.373a1.125 1.125 0 0 0-1.585-.139l-2.972 2.494.25-.897a1.17 1.17 0 1 0-2.256-.62l-.688 2.539-.837 2.012a1.325 1.325 0 0 0-.04.113 4.176 4.176 0 0 0-.467 1.926c0 2.276 1.805 4.12 4.032 4.12.98 0 1.878-.356 2.576-.95l4.483-3.297a1.165 1.165 0 0 0-.436-2.076l.426-.357a1.177 1.177 0 0 0-.52-2.054l.131-.11a1.177 1.177 0 0 0-1.513-1.803l-.485.407c.244-.4.219-.929-.1-1.308z" fill="url(#v)"/></g><path d="M28.995 24.762a1.178 1.178 0 0 1 1.384 1.907l-.63.459a1.937 1.937 0 0 1-2.84-.64l-.085-.155 2.171-1.571z" fill="url(#w)"/><path d="M26.09 25.018c-.322.279-.054.789.123 1 .418.498 1.453.418 1.951 0l2.131-1.788c.498-.418.648-1.166.23-1.664-.448-.534-1.087-.495-1.611-.034l-2.823 2.486z" fill="url(#x)"/><path d="M25.17 23.212c-.502.429-.335 1.09 0 1.49.418.498 1.16.563 1.658.145L30 22.066a1.177 1.177 0 1 0-1.513-1.803l-.485.407a1.124 1.124 0 0 1-.238.276l-2.594 2.265z" fill="url(#y)"/><path d="M26.31 19.23a1.136 1.136 0 0 1 1.477 1.726L25.6 22.865c-.926.808-2.364.075-2.254-1.15l2.963-2.485z" fill="url(#z)"/><g filter="url(#A)"><ellipse cx="22.811" cy="20.215" rx=".744" ry=".665" transform="rotate(33.98 22.81 20.215)" fill="url(#B)"/></g><g filter="url(#C)"><ellipse cx="27.273" cy="19.971" rx=".798" ry=".767" transform="rotate(64.924 27.273 19.97)" fill="url(#D)"/></g><g filter="url(#E)"><ellipse cx="29.709" cy="21.101" rx=".798" ry=".631" transform="rotate(64.924 29.71 21.1)" fill="url(#F)"/></g><g filter="url(#G)"><ellipse cx="30.078" cy="23.273" rx=".798" ry=".631" transform="rotate(64.924 30.078 23.273)" fill="url(#H)"/></g><g filter="url(#I)"><ellipse cx="30.187" cy="25.695" rx=".798" ry=".631" transform="rotate(64.924 30.187 25.695)" fill="url(#J)"/></g><g filter="url(#K)"><path d="M23.096 23.125c1.781.75 3.25 2.594 3.25 4.438" stroke="#FFEA6E" stroke-opacity=".6" stroke-linecap="round"/></g><defs><linearGradient id="c" x1="15.688" y1="23.313" x2="8.464" y2="26.375" gradientUnits="userSpaceOnUse"><stop offset=".328" stop-color="#FFF478"/><stop offset=".724" stop-color="#FFF478" stop-opacity="0"/></linearGradient><linearGradient id="d" x1="16.818" y1="10.76" x2="2.985" y2="31.4" gradientUnits="userSpaceOnUse"><stop offset=".844" stop-color="#FF63C4" stop-opacity="0"/><stop offset=".941" stop-color="#FF63C4"/></linearGradient><linearGradient id="f" x1="3.172" y1="24.156" x2="2.62" y2="24.998" gradientUnits="userSpaceOnUse"><stop offset=".386" stop-color="#83480A"/><stop offset=".545" stop-color="#CD7313"/><stop offset="1" stop-color="#FA9428" stop-opacity="0"/></linearGradient><linearGradient id="g" x1="4.813" y1="22.984" x2="4.027" y2="23.956" gradientUnits="userSpaceOnUse"><stop offset=".386" stop-color="#83480A"/><stop offset=".545" stop-color="#CD7313"/><stop offset="1" stop-color="#FA9428" stop-opacity="0"/></linearGradient><linearGradient id="h" x1="6.063" y1="21.281" x2="5.132" y2="22.313" gradientUnits="userSpaceOnUse"><stop offset=".386" stop-color="#83480A"/><stop offset=".545" stop-color="#CD7313"/><stop offset="1" stop-color="#FA9428" stop-opacity="0"/></linearGradient><linearGradient id="k" x1="3.911" y1="19.871" x2="7.187" y2="25.029" gradientUnits="userSpaceOnUse"><stop offset=".328" stop-color="#FFF478" stop-opacity=".5"/><stop offset=".724" stop-color="#FFF478" stop-opacity="0"/></linearGradient><linearGradient id="m" x1="1.673" y1="20.871" x2="4.949" y2="26.029" gradientUnits="userSpaceOnUse"><stop offset=".328" stop-color="#FFF478" stop-opacity=".5"/><stop offset=".724" stop-color="#FFF478" stop-opacity="0"/></linearGradient><linearGradient id="o" x1="1.157" y1="22.902" x2="4.433" y2="28.061" gradientUnits="userSpaceOnUse"><stop offset=".328" stop-color="#FFF478" stop-opacity=".5"/><stop offset=".724" stop-color="#FFF478" stop-opacity="0"/></linearGradient><linearGradient id="q" x1="1.157" y1="25.25" x2="4.433" y2="30.409" gradientUnits="userSpaceOnUse"><stop offset=".328" stop-color="#FFF478" stop-opacity=".5"/><stop offset=".724" stop-color="#FFF478" stop-opacity="0"/></linearGradient><linearGradient id="t" x1="17.313" y1="24.313" x2="23.125" y2="24.947" gradientUnits="userSpaceOnUse"><stop offset=".214" stop-color="#CC6C07"/><stop offset=".328" stop-color="#EE891E"/><stop offset=".865" stop-color="#FA9428" stop-opacity="0"/></linearGradient><linearGradient id="u" x1="15.197" y1="10.771" x2="29.03" y2="31.411" gradientUnits="userSpaceOnUse"><stop offset=".844" stop-color="#FF63C4" stop-opacity="0"/><stop offset=".941" stop-color="#FF63C4"/></linearGradient><linearGradient id="w" x1="28.943" y1="24.005" x2="29.483" y2="24.834" gradientUnits="userSpaceOnUse"><stop offset=".386" stop-color="#83480A"/><stop offset=".545" stop-color="#CD7313"/><stop offset="1" stop-color="#FA9428" stop-opacity="0"/></linearGradient><linearGradient id="x" x1="27.018" y1="22.781" x2="27.97" y2="23.841" gradientUnits="userSpaceOnUse"><stop offset=".386" stop-color="#83480A"/><stop offset=".545" stop-color="#CD7313"/><stop offset="1" stop-color="#FA9428" stop-opacity="0"/></linearGradient><linearGradient id="y" x1="25.991" y1="20.995" x2="26.977" y2="22.18" gradientUnits="userSpaceOnUse"><stop offset=".386" stop-color="#83480A"/><stop offset=".545" stop-color="#CD7313"/><stop offset="1" stop-color="#FA9428" stop-opacity="0"/></linearGradient><linearGradient id="z" x1="26.12" y1="18.583" x2="26.961" y2="19.606" gradientUnits="userSpaceOnUse"><stop offset=".328" stop-color="#EE891E"/><stop offset=".865" stop-color="#FA9428" stop-opacity="0"/></linearGradient><filter id="a" x="1.122" y="16.96" width="13.565" height="13.951" filterUnits="userSpaceOnUse" color-interpolation-filters="sRGB"><feFlood flood-opacity="0" result="BackgroundImageFix"/><feBlend in="SourceGraphic" in2="BackgroundImageFix" result="shape"/><feColorMatrix in="SourceAlpha" values="0 0 0 0 0 0 0 0 0 0 0 0 0 0 0 0 0 0 127 0" result="hardAlpha"/><feOffset dx="2" dy="-2"/><feGaussianBlur stdDeviation="2"/><feComposite in2="hardAlpha" operator="arithmetic" k2="-1" k3="1"/><feColorMatrix values="0 0 0 0 0 0 0 0 0 0 0 0 0 0 0 0 0 0 0.08 0"/><feBlend in2="shape" result="effect1_innerShadow_6806_5229"/></filter><filter id="j" x="3.692" y="18.371" width="6.063" height="5.656" filterUnits="userSpaceOnUse" color-interpolation-filters="sRGB"><feFlood flood-opacity="0" result="BackgroundImageFix"/><feBlend in="SourceGraphic" in2="BackgroundImageFix" result="shape"/><feGaussianBlur stdDeviation=".5" result="effect1_foregroundBlur_6806_5229"/></filter><filter id="l" x="1.454" y="19.371" width="6.063" height="5.656" filterUnits="userSpaceOnUse" color-interpolation-filters="sRGB"><feFlood flood-opacity="0" result="BackgroundImageFix"/><feBlend in="SourceGraphic" in2="BackgroundImageFix" result="shape"/><feGaussianBlur stdDeviation=".5" result="effect1_foregroundBlur_6806_5229"/></filter><filter id="n" x=".938" y="21.402" width="6.063" height="5.656" filterUnits="userSpaceOnUse" color-interpolation-filters="sRGB"><feFlood flood-opacity="0" result="BackgroundImageFix"/><feBlend in="SourceGraphic" in2="BackgroundImageFix" result="shape"/><feGaussianBlur stdDeviation=".5" result="effect1_foregroundBlur_6806_5229"/></filter><filter id="p" x=".938" y="23.75" width="5.281" height="4.672" filterUnits="userSpaceOnUse" color-interpolation-filters="sRGB"><feFlood flood-opacity="0" result="BackgroundImageFix"/><feBlend in="SourceGraphic" in2="BackgroundImageFix" result="shape"/><feGaussianBlur stdDeviation=".5" result="effect1_foregroundBlur_6806_5229"/></filter><filter id="r" x="19.328" y="16.971" width="13.565" height="13.951" filterUnits="userSpaceOnUse" color-interpolation-filters="sRGB"><feFlood flood-opacity="0" result="BackgroundImageFix"/><feBlend in="SourceGraphic" in2="BackgroundImageFix" result="shape"/><feColorMatrix in="SourceAlpha" values="0 0 0 0 0 0 0 0 0 0 0 0 0 0 0 0 0 0 127 0" result="hardAlpha"/><feOffset dx="2" dy="-2"/><feGaussianBlur stdDeviation="2"/><feComposite in2="hardAlpha" operator="arithmetic" k2="-1" k3="1"/><feColorMatrix values="0 0 0 0 0 0 0 0 0 0 0 0 0 0 0 0 0 0 0.08 0"/><feBlend in2="shape" result="effect1_innerShadow_6806_5229"/></filter><filter id="A" x="21.59" y="19.024" width="2.441" height="2.382" filterUnits="userSpaceOnUse" color-interpolation-filters="sRGB"><feFlood flood-opacity="0" result="BackgroundImageFix"/><feBlend in="SourceGraphic" in2="BackgroundImageFix" result="shape"/><feGaussianBlur stdDeviation=".25" result="effect1_foregroundBlur_6806_5229"/></filter><filter id="C" x="26" y="18.678" width="2.546" height="2.585" filterUnits="userSpaceOnUse" color-interpolation-filters="sRGB"><feFlood flood-opacity="0" result="BackgroundImageFix"/><feBlend in="SourceGraphic" in2="BackgroundImageFix" result="shape"/><feGaussianBlur stdDeviation=".25" result="effect1_foregroundBlur_6806_5229"/></filter><filter id="E" x="28.545" y="19.83" width="2.328" height="2.542" filterUnits="userSpaceOnUse" color-interpolation-filters="sRGB"><feFlood flood-opacity="0" result="BackgroundImageFix"/><feBlend in="SourceGraphic" in2="BackgroundImageFix" result="shape"/><feGaussianBlur stdDeviation=".25" result="effect1_foregroundBlur_6806_5229"/></filter><filter id="G" x="28.914" y="22.002" width="2.328" height="2.542" filterUnits="userSpaceOnUse" color-interpolation-filters="sRGB"><feFlood flood-opacity="0" result="BackgroundImageFix"/><feBlend in="SourceGraphic" in2="BackgroundImageFix" result="shape"/><feGaussianBlur stdDeviation=".25" result="effect1_foregroundBlur_6806_5229"/></filter><filter id="I" x="29.023" y="24.425" width="2.328" height="2.542" filterUnits="userSpaceOnUse" color-interpolation-filters="sRGB"><feFlood flood-opacity="0" result="BackgroundImageFix"/><feBlend in="SourceGraphic" in2="BackgroundImageFix" result="shape"/><feGaussianBlur stdDeviation=".25" result="effect1_foregroundBlur_6806_5229"/></filter><filter id="K" x="21.096" y="21.125" width="7.25" height="8.438" filterUnits="userSpaceOnUse" color-interpolation-filters="sRGB"><feFlood flood-opacity="0" result="BackgroundImageFix"/><feBlend in="SourceGraphic" in2="BackgroundImageFix" result="shape"/><feGaussianBlur stdDeviation=".75" result="effect1_foregroundBlur_6806_5229"/></filter><radialGradient id="b" cx="0" cy="0" r="1" gradientUnits="userSpaceOnUse" gradientTransform="matrix(20.55298 18.7639 -18.70767 20.49139 -.724 18.353)"><stop offset=".25" stop-color="#F9AF20"/><stop offset=".641" stop-color="#FFC83C"/></radialGradient><radialGradient id="e" cx="0" cy="0" r="1" gradientUnits="userSpaceOnUse" gradientTransform="matrix(6.375 15.21872 -11.81176 4.94785 5.138 17.313)"><stop offset=".776" stop-color="#FD61C2" stop-opacity="0"/><stop offset=".941" stop-color="#FF63C4"/></radialGradient><radialGradient id="i" cx="0" cy="0" r="1" gradientUnits="userSpaceOnUse" gradientTransform="rotate(152.835 2.353 11.136) scale(2.66945 6.63133)"><stop offset=".386" stop-color="#83480A"/><stop offset=".545" stop-color="#CD7313"/><stop offset="1" stop-color="#FA9428" stop-opacity="0"/></radialGradient><radialGradient id="s" cx="0" cy="0" r="1" gradientUnits="userSpaceOnUse" gradientTransform="rotate(137.605 12.809 15.53) scale(27.83 27.7466)"><stop offset=".23" stop-color="#F9AF20"/><stop offset=".538" stop-color="#FFD362"/><stop offset=".824" stop-color="#F9AF20"/></radialGradient><radialGradient id="v" cx="0" cy="0" r="1" gradientUnits="userSpaceOnUse" gradientTransform="rotate(112.728 7.676 17.603) scale(16.5 12.8062)"><stop offset=".776" stop-color="#FD61C2" stop-opacity="0"/><stop offset=".941" stop-color="#FF63C4"/></radialGradient><radialGradient id="B" cx="0" cy="0" r="1" gradientUnits="userSpaceOnUse" gradientTransform="rotate(118.681 5.413 16.869) scale(.82938 .9118)"><stop offset=".328" stop-color="#FAF194" stop-opacity=".2"/><stop offset=".724" stop-color="#FFF478" stop-opacity="0"/></radialGradient><radialGradient id="D" cx="0" cy="0" r="1" gradientUnits="userSpaceOnUse" gradientTransform="rotate(116.983 7.516 18.345) scale(.94107 .99355)"><stop offset=".328" stop-color="#FAF194" stop-opacity=".4"/><stop offset=".724" stop-color="#FFF478" stop-opacity="0"/></radialGradient><radialGradient id="F" cx="0" cy="0" r="1" gradientUnits="userSpaceOnUse" gradientTransform="matrix(-.427 .68986 -.8061 -.49894 29.71 21.1)"><stop offset=".391" stop-color="#FAF194" stop-opacity=".3"/><stop offset=".813" stop-color="#FFF478" stop-opacity="0"/></radialGradient><radialGradient id="H" cx="0" cy="0" r="1" gradientUnits="userSpaceOnUse" gradientTransform="matrix(-.427 .68986 -.8061 -.49894 30.078 23.273)"><stop offset=".328" stop-color="#FAF194" stop-opacity=".3"/><stop offset=".724" stop-color="#FFF478" stop-opacity="0"/></radialGradient><radialGradient id="J" cx="0" cy="0" r="1" gradientUnits="userSpaceOnUse" gradientTransform="matrix(-.427 .68986 -.8061 -.49894 30.187 25.695)"><stop offset=".328" stop-color="#FAF194" stop-opacity=".3"/><stop offset=".724" stop-color="#FFF478" stop-opacity="0"/></radialGradient></defs></svg>