<svg width="32" height="32" fill="none" xmlns="http://www.w3.org/2000/svg"><g filter="url(#a)"><circle cx="13.809" cy="21.344" r="5.125" fill="url(#b)"/></g><g filter="url(#c)"><path d="M16.207 16.427a1.355 1.355 0 0 0-1.874.049l-3.167 3.22.18-1.052c.125-.73-.383-1.415-1.134-1.531-.755-.117-1.468.386-1.588 1.12l-.486 2.974-.725 2.394a1.445 1.445 0 0 0-.034.133 4.652 4.652 0 0 0-.303 2.248c.287 2.584 2.635 4.444 5.244 4.154a4.76 4.76 0 0 0 2.899-1.416l4.835-4.329a1.304 1.304 0 0 0 .066-1.901 1.373 1.373 0 0 0-.839-.399l.454-.461c.53-.54.513-1.39-.04-1.902a1.39 1.39 0 0 0-.828-.363l.14-.142c.53-.54.512-1.39-.04-1.901a1.418 1.418 0 0 0-1.961.051l-.518.526a1.254 1.254 0 0 0-.281-1.472z" fill="url(#d)"/><path d="M16.207 16.427a1.355 1.355 0 0 0-1.874.049l-3.167 3.22.18-1.052c.125-.73-.383-1.415-1.134-1.531-.755-.117-1.468.386-1.588 1.12l-.486 2.974-.725 2.394a1.445 1.445 0 0 0-.034.133 4.652 4.652 0 0 0-.303 2.248c.287 2.584 2.635 4.444 5.244 4.154a4.76 4.76 0 0 0 2.899-1.416l4.835-4.329a1.304 1.304 0 0 0 .066-1.901 1.373 1.373 0 0 0-.839-.399l.454-.461c.53-.54.513-1.39-.04-1.902a1.39 1.39 0 0 0-.828-.363l.14-.142c.53-.54.512-1.39-.04-1.901a1.418 1.418 0 0 0-1.961.051l-.518.526a1.254 1.254 0 0 0-.281-1.472z" fill="url(#e)"/><path d="M16.207 16.427a1.355 1.355 0 0 0-1.874.049l-3.167 3.22.18-1.052c.125-.73-.383-1.415-1.134-1.531-.755-.117-1.468.386-1.588 1.12l-.486 2.974-.725 2.394a1.445 1.445 0 0 0-.034.133 4.652 4.652 0 0 0-.303 2.248c.287 2.584 2.635 4.444 5.244 4.154a4.76 4.76 0 0 0 2.899-1.416l4.835-4.329a1.304 1.304 0 0 0 .066-1.901 1.373 1.373 0 0 0-.839-.399l.454-.461c.53-.54.513-1.39-.04-1.902a1.39 1.39 0 0 0-.828-.363l.14-.142c.53-.54.512-1.39-.04-1.901a1.418 1.418 0 0 0-1.961.051l-.518.526a1.254 1.254 0 0 0-.281-1.472z" fill="url(#f)"/></g><path d="M14.306 16.484a1.364 1.364 0 0 1 1.887-.046c.525.486.552 1.291.06 1.81l-4.193 4.434c-.473.5-1.267.548-1.799.11l-.418-.345a.696.696 0 0 1-.096-.986l1.367-1.727 3.192-3.25z" fill="url(#g)"/><path d="M13.366 21.3a1.312 1.312 0 0 0 .29 1.55c.553.51 1.431.487 1.962-.052l3.365-3.572c.53-.54.513-1.39-.04-1.902a1.418 1.418 0 0 0-1.96.052l-.486.515c-.094.093-.253.282-.356.386L13.366 21.3z" fill="url(#h)"/><path d="M14.776 23.088c.04.29.36.7.594.917.553.51 1.43.488 1.961-.052l2.27-2.308c.531-.54.651-1.4.099-1.91a1.796 1.796 0 0 0-.412-.265c-.396-.194-.839-.033-1.151.277l-3.361 3.341z" fill="url(#i)"/><path d="m16.544 24.688 1.36 1.609 1.374-1.219.74-.682a1.314 1.314 0 0 0 .063-1.92 1.382 1.382 0 0 0-.454-.304c-.267-.111-.559.012-.764.216l-2.32 2.3z" fill="url(#j)"/><path d="m8.934 22.438 2.246-2.782c.415-1.562-.023-1.925-.128-2.086l-2.118 4.867z" fill="url(#k)"/><g filter="url(#l)"><path d="M20.2 23.945c-.316.147-.723-.057-.91-.456-.187-.399-.082-.842.233-.99.316-.148.723.056.91.455.187.4.082.843-.233.99z" fill="url(#m)"/></g><g filter="url(#n)"><path d="M19.753 21.182c-.316.148-.723-.056-.91-.455-.186-.4-.082-.843.233-.99.316-.148.723.056.91.455.187.399.082.842-.233.99z" fill="url(#o)"/></g><g filter="url(#p)"><path d="M18.843 18.748c-.315.148-.723-.056-.91-.455-.186-.4-.082-.842.234-.99.315-.148.723.056.91.455.186.4.082.843-.234.99z" fill="url(#q)"/></g><g filter="url(#r)"><path d="M16.312 17.758c-.316.148-.723-.056-.91-.455-.186-.4-.082-.843.234-.99.315-.148.722.056.91.455.186.4.082.842-.234.99z" fill="url(#s)"/></g><g filter="url(#t)"><path d="M12.438 20.977c.99.625 3.1 2.43 3.624 4.656" stroke="url(#u)" stroke-width="1.5" stroke-linecap="round"/></g><path d="M11.204 18.797c-.295.543-1.018.735-1.642.42-.624-.316-.892-1.012-.597-1.555.294-.543 1.04-.728 1.663-.413.625.316.87 1.005.576 1.548z" fill="url(#v)"/><defs><radialGradient id="b" cx="0" cy="0" r="1" gradientUnits="userSpaceOnUse" gradientTransform="matrix(3.21875 -4.5625 4.91078 3.46445 10.216 19.969)"><stop offset=".307" stop-color="#C16A0E" stop-opacity=".53"/><stop offset="1" stop-color="#FA9428" stop-opacity="0"/></radialGradient><radialGradient id="d" cx="0" cy="0" r="1" gradientUnits="userSpaceOnUse" gradientTransform="rotate(132.147 7.61 12.145) scale(32.3525 32.1482)"><stop offset=".24" stop-color="#FFD43C"/><stop offset=".614" stop-color="#FFB02E"/><stop offset="1" stop-color="#F70A8D"/></radialGradient><radialGradient id="f" cx="0" cy="0" r="1" gradientUnits="userSpaceOnUse" gradientTransform="rotate(110.989 4.784 14.762) scale(20.6714 28.2125)"><stop offset=".732" stop-color="#FD61C2" stop-opacity="0"/><stop offset="1" stop-color="#FF63C4"/></radialGradient><radialGradient id="m" cx="0" cy="0" r="1" gradientUnits="userSpaceOnUse" gradientTransform="rotate(-173.321 10.519 11.112) scale(.81131 .94802)"><stop offset=".328" stop-color="#FAF194" stop-opacity=".4"/><stop offset=".724" stop-color="#FFF478" stop-opacity="0"/></radialGradient><radialGradient id="o" cx="0" cy="0" r="1" gradientUnits="userSpaceOnUse" gradientTransform="rotate(-173.321 10.215 9.743) scale(.81131 .94802)"><stop offset=".328" stop-color="#FAF194" stop-opacity=".4"/><stop offset=".724" stop-color="#FFF478" stop-opacity="0"/></radialGradient><radialGradient id="q" cx="0" cy="0" r="1" gradientUnits="userSpaceOnUse" gradientTransform="rotate(-173.321 9.69 8.553) scale(.81131 .94802)"><stop offset=".328" stop-color="#FAF194" stop-opacity=".4"/><stop offset=".724" stop-color="#FFF478" stop-opacity="0"/></radialGradient><radialGradient id="s" cx="0" cy="0" r="1" gradientUnits="userSpaceOnUse" gradientTransform="rotate(-173.321 8.395 8.132) scale(.81131 .94802)"><stop offset=".328" stop-color="#FAF194" stop-opacity=".4"/><stop offset=".724" stop-color="#FFF478" stop-opacity="0"/></radialGradient><radialGradient id="v" cx="0" cy="0" r="1" gradientUnits="userSpaceOnUse" gradientTransform="rotate(142.226 2.263 10.792) scale(1.91039 2.0065)"><stop offset=".328" stop-color="#FFF478" stop-opacity=".3"/><stop offset=".724" stop-color="#FFF478" stop-opacity="0"/></radialGradient><linearGradient id="e" x1="3.686" y1="17.979" x2="8.828" y2="17.419" gradientUnits="userSpaceOnUse"><stop offset=".328" stop-color="#EE891E"/><stop offset=".865" stop-color="#FA9428" stop-opacity="0"/></linearGradient><linearGradient id="g" x1="10.937" y1="15.383" x2="13.75" y2="18.289" gradientUnits="userSpaceOnUse"><stop offset=".386" stop-color="#83480A"/><stop offset=".545" stop-color="#CD7313"/><stop offset="1" stop-color="#FA9428" stop-opacity="0"/></linearGradient><linearGradient id="h" x1="14.188" y1="18.602" x2="15.254" y2="19.718" gradientUnits="userSpaceOnUse"><stop offset=".386" stop-color="#83480A"/><stop offset=".545" stop-color="#CD7313"/><stop offset="1" stop-color="#FA9428" stop-opacity="0"/></linearGradient><linearGradient id="i" x1="15.75" y1="20.039" x2="16.991" y2="21.377" gradientUnits="userSpaceOnUse"><stop offset=".386" stop-color="#83480A"/><stop offset=".545" stop-color="#CD7313"/><stop offset="1" stop-color="#FA9428" stop-opacity="0"/></linearGradient><linearGradient id="j" x1="17.656" y1="22.067" x2="18.669" y2="23.156" gradientUnits="userSpaceOnUse"><stop offset=".386" stop-color="#83480A"/><stop offset=".545" stop-color="#CD7313"/><stop offset="1" stop-color="#FA9428" stop-opacity="0"/></linearGradient><linearGradient id="k" x1="10.157" y1="21.656" x2="9.555" y2="21.338" gradientUnits="userSpaceOnUse"><stop offset=".307" stop-color="#E27F17" stop-opacity=".53"/><stop offset="1" stop-color="#FA9428" stop-opacity="0"/></linearGradient><linearGradient id="u" x1="10.921" y1="20.977" x2="17.254" y2="27.71" gradientUnits="userSpaceOnUse"><stop offset=".328" stop-color="#FFF478" stop-opacity=".5"/><stop offset="1" stop-color="#FFF478" stop-opacity="0"/></linearGradient><filter id="a" x="7.684" y="15.219" width="12.25" height="12.25" filterUnits="userSpaceOnUse" color-interpolation-filters="sRGB"><feFlood flood-opacity="0" result="BackgroundImageFix"/><feBlend in="SourceGraphic" in2="BackgroundImageFix" result="shape"/><feGaussianBlur stdDeviation=".5" result="effect1_foregroundBlur_6806_5260"/></filter><filter id="c" x="7.047" y="14.074" width="15.453" height="16.091" filterUnits="userSpaceOnUse" color-interpolation-filters="sRGB"><feFlood flood-opacity="0" result="BackgroundImageFix"/><feBlend in="SourceGraphic" in2="BackgroundImageFix" result="shape"/><feColorMatrix in="SourceAlpha" values="0 0 0 0 0 0 0 0 0 0 0 0 0 0 0 0 0 0 127 0" result="hardAlpha"/><feOffset dx="2" dy="-2"/><feGaussianBlur stdDeviation="2"/><feComposite in2="hardAlpha" operator="arithmetic" k2="-1" k3="1"/><feColorMatrix values="0 0 0 0 0 0 0 0 0 0 0 0 0 0 0 0 0 0 0.08 0"/><feBlend in2="shape" result="effect1_innerShadow_6806_5260"/></filter><filter id="l" x="18.697" y="21.951" width="2.328" height="2.542" filterUnits="userSpaceOnUse" color-interpolation-filters="sRGB"><feFlood flood-opacity="0" result="BackgroundImageFix"/><feBlend in="SourceGraphic" in2="BackgroundImageFix" result="shape"/><feGaussianBlur stdDeviation=".25" result="effect1_foregroundBlur_6806_5260"/></filter><filter id="n" x="18.25" y="19.188" width="2.328" height="2.542" filterUnits="userSpaceOnUse" color-interpolation-filters="sRGB"><feFlood flood-opacity="0" result="BackgroundImageFix"/><feBlend in="SourceGraphic" in2="BackgroundImageFix" result="shape"/><feGaussianBlur stdDeviation=".25" result="effect1_foregroundBlur_6806_5260"/></filter><filter id="p" x="17.341" y="16.755" width="2.328" height="2.542" filterUnits="userSpaceOnUse" color-interpolation-filters="sRGB"><feFlood flood-opacity="0" result="BackgroundImageFix"/><feBlend in="SourceGraphic" in2="BackgroundImageFix" result="shape"/><feGaussianBlur stdDeviation=".25" result="effect1_foregroundBlur_6806_5260"/></filter><filter id="r" x="14.81" y="15.765" width="2.328" height="2.542" filterUnits="userSpaceOnUse" color-interpolation-filters="sRGB"><feFlood flood-opacity="0" result="BackgroundImageFix"/><feBlend in="SourceGraphic" in2="BackgroundImageFix" result="shape"/><feGaussianBlur stdDeviation=".25" result="effect1_foregroundBlur_6806_5260"/></filter><filter id="t" x="10.188" y="18.726" width="8.125" height="9.157" filterUnits="userSpaceOnUse" color-interpolation-filters="sRGB"><feFlood flood-opacity="0" result="BackgroundImageFix"/><feBlend in="SourceGraphic" in2="BackgroundImageFix" result="shape"/><feGaussianBlur stdDeviation=".75" result="effect1_foregroundBlur_6806_5260"/></filter></defs></svg>