<svg width="32" height="32" fill="none" xmlns="http://www.w3.org/2000/svg"><g clip-path="url(#a)"><g filter="url(#b)"><path d="M7.02 11.707a1.34 1.34 0 0 0-1.707.72l-1.755 4.106-.213-1.032c-.148-.717-.863-1.165-1.596-1.001-.738.165-1.213.885-1.058 1.604l.625 2.913.195 2.465c.003.045.01.09.017.134a4.6 4.6 0 0 0 .531 2.18c1.197 2.275 4.029 3.14 6.326 1.932a4.707 4.707 0 0 0 2.158-2.348l2.89-5.728a1.29 1.29 0 0 0-.625-1.774 1.358 1.358 0 0 0-.915-.065l.251-.588a1.301 1.301 0 0 0-.722-1.736 1.376 1.376 0 0 0-.894-.036l.077-.18a1.301 1.301 0 0 0-.722-1.737 1.402 1.402 0 0 0-1.786.754l-.287.67a1.24 1.24 0 0 0-.79-1.253z" fill="url(#c)"/><path d="M7.02 11.707a1.34 1.34 0 0 0-1.707.72l-1.755 4.106-.213-1.032c-.148-.717-.863-1.165-1.596-1.001-.738.165-1.213.885-1.058 1.604l.625 2.913.195 2.465c.003.045.01.09.017.134a4.6 4.6 0 0 0 .531 2.18c1.197 2.275 4.029 3.14 6.326 1.932a4.707 4.707 0 0 0 2.158-2.348l2.89-5.728a1.29 1.29 0 0 0-.625-1.774 1.358 1.358 0 0 0-.915-.065l.251-.588a1.301 1.301 0 0 0-.722-1.736 1.376 1.376 0 0 0-.894-.036l.077-.18a1.301 1.301 0 0 0-.722-1.737 1.402 1.402 0 0 0-1.786.754l-.287.67a1.24 1.24 0 0 0-.79-1.253z" fill="url(#d)"/><path d="M7.02 11.707a1.34 1.34 0 0 0-1.707.72l-1.755 4.106-.213-1.032c-.148-.717-.863-1.165-1.596-1.001-.738.165-1.213.885-1.058 1.604l.625 2.913.195 2.465c.003.045.01.09.017.134a4.6 4.6 0 0 0 .531 2.18c1.197 2.275 4.029 3.14 6.326 1.932a4.707 4.707 0 0 0 2.158-2.348l2.89-5.728a1.29 1.29 0 0 0-.625-1.774 1.358 1.358 0 0 0-.915-.065l.251-.588a1.301 1.301 0 0 0-.722-1.736 1.376 1.376 0 0 0-.894-.036l.077-.18a1.301 1.301 0 0 0-.722-1.737 1.402 1.402 0 0 0-1.786.754l-.287.67a1.24 1.24 0 0 0-.79-1.253z" fill="url(#e)"/><path d="M7.02 11.707a1.34 1.34 0 0 0-1.707.72l-1.755 4.106-.213-1.032c-.148-.717-.863-1.165-1.596-1.001-.738.165-1.213.885-1.058 1.604l.625 2.913.195 2.465c.003.045.01.09.017.134a4.6 4.6 0 0 0 .531 2.18c1.197 2.275 4.029 3.14 6.326 1.932a4.707 4.707 0 0 0 2.158-2.348l2.89-5.728a1.29 1.29 0 0 0-.625-1.774 1.358 1.358 0 0 0-.915-.065l.251-.588a1.301 1.301 0 0 0-.722-1.736 1.376 1.376 0 0 0-.894-.036l.077-.18a1.301 1.301 0 0 0-.722-1.737 1.402 1.402 0 0 0-1.786.754l-.287.67a1.24 1.24 0 0 0-.79-1.253z" fill="url(#f)"/></g><path d="M7.02 11.707a1.34 1.34 0 0 0-1.707.72l-1.755 4.106-.213-1.032c-.148-.717-.863-1.165-1.596-1.001-.738.165-1.213.885-1.058 1.604l.625 2.913.195 2.465c.003.045.01.09.017.134a4.6 4.6 0 0 0 .531 2.18c1.197 2.275 4.029 3.14 6.326 1.932a4.707 4.707 0 0 0 2.158-2.348l2.89-5.728a1.29 1.29 0 0 0-.625-1.774 1.358 1.358 0 0 0-.915-.065l.251-.588a1.301 1.301 0 0 0-.722-1.736 1.376 1.376 0 0 0-.894-.036l.077-.18a1.301 1.301 0 0 0-.722-1.737 1.402 1.402 0 0 0-1.786.754l-.287.67a1.24 1.24 0 0 0-.79-1.253z" fill="url(#g)"/><path d="M7.815 12.97 5.6 18.273l-2.042-1.74 1.755-4.105a1.34 1.34 0 0 1 1.707-.721c.51.2.824.69.795 1.263z" fill="#FEC249"/><path d="M7.815 12.97 5.6 18.273l-2.042-1.74 1.755-4.105a1.34 1.34 0 0 1 1.707-.721c.51.2.824.69.795 1.263z" fill="url(#h)"/><path d="M7.815 12.97 5.6 18.273l-2.042-1.74 1.755-4.105a1.34 1.34 0 0 1 1.707-.721c.51.2.824.69.795 1.263z" fill="url(#i)"/><path d="M7.815 12.97 5.6 18.273l-2.042-1.74 1.755-4.105a1.34 1.34 0 0 1 1.707-.721c.51.2.824.69.795 1.263z" fill="url(#j)"/><path d="M7.815 12.97 5.6 18.273l-2.042-1.74 1.755-4.105a1.34 1.34 0 0 1 1.707-.721c.51.2.824.69.795 1.263z" fill="url(#k)"/><path d="m7.87 12.83-2.234 5.315 2.186 1.13 2.715-5.825-.009.003.077-.181a1.301 1.301 0 0 0-.722-1.736 1.402 1.402 0 0 0-1.786.754l-.225.526-.001.015z" fill="#FEC249"/><path d="m7.87 12.83-2.234 5.315 2.186 1.13 2.715-5.825-.009.003.077-.181a1.301 1.301 0 0 0-.722-1.736 1.402 1.402 0 0 0-1.786.754l-.225.526-.001.015z" fill="url(#l)"/><path d="m7.87 12.83-2.234 5.315 2.186 1.13 2.715-5.825-.009.003.077-.181a1.301 1.301 0 0 0-.722-1.736 1.402 1.402 0 0 0-1.786.754l-.225.526-.001.015z" fill="url(#m)"/><path d="m7.87 12.83-2.234 5.315 2.186 1.13 2.715-5.825-.009.003.077-.181a1.301 1.301 0 0 0-.722-1.736 1.402 1.402 0 0 0-1.786.754l-.225.526-.001.015z" fill="url(#n)"/><path d="m7.87 12.83-2.234 5.315 2.186 1.13 2.715-5.825-.009.003.077-.181a1.301 1.301 0 0 0-.722-1.736 1.402 1.402 0 0 0-1.786.754l-.225.526-.001.015z" fill="url(#o)"/><path fill-rule="evenodd" clip-rule="evenodd" d="m8.214 18.435-.033.08 1.91.929 1.834-3.706.22-.513a1.301 1.301 0 0 0-.723-1.736 1.374 1.374 0 0 0-.885-.039l-.009.003.077-.18a1.35 1.35 0 0 0 .093-.322m-2.484 5.484 2.323-4.985-2.323 4.985z" fill="#FEC249"/><path fill-rule="evenodd" clip-rule="evenodd" d="m8.214 18.435-.033.08 1.91.929 1.834-3.706.22-.513a1.301 1.301 0 0 0-.723-1.736 1.374 1.374 0 0 0-.885-.039l-.009.003.077-.18a1.35 1.35 0 0 0 .093-.322m-2.484 5.484 2.323-4.985-2.323 4.985z" fill="url(#p)"/><path fill-rule="evenodd" clip-rule="evenodd" d="m8.214 18.435-.033.08 1.91.929 1.834-3.706.22-.513a1.301 1.301 0 0 0-.723-1.736 1.374 1.374 0 0 0-.885-.039l-.009.003.077-.18a1.35 1.35 0 0 0 .093-.322m-2.484 5.484 2.323-4.985-2.323 4.985z" fill="url(#q)"/><path fill-rule="evenodd" clip-rule="evenodd" d="m8.214 18.435-.033.08 1.91.929 1.834-3.706.22-.513a1.301 1.301 0 0 0-.723-1.736 1.374 1.374 0 0 0-.885-.039l-.009.003.077-.18a1.35 1.35 0 0 0 .093-.322m-2.484 5.484 2.323-4.985-2.323 4.985z" fill="url(#r)"/><path fill-rule="evenodd" clip-rule="evenodd" d="m8.214 18.435-.033.08 1.91.929 1.834-3.706.22-.513a1.301 1.301 0 0 0-.723-1.736 1.374 1.374 0 0 0-.885-.039l-.009.003.077-.18a1.35 1.35 0 0 0 .093-.322m-2.484 5.484 2.323-4.985-2.323 4.985z" fill="url(#s)"/><path d="m11.902 15.791-1.797 3.645 1.956.936 1.372-2.72a1.29 1.29 0 0 0-.625-1.775 1.358 1.358 0 0 0-.915-.064l.01-.022z" fill="url(#t)"/><path d="m11.902 15.791-1.797 3.645 1.956.936 1.372-2.72a1.29 1.29 0 0 0-.625-1.775 1.358 1.358 0 0 0-.915-.064l.01-.022z" fill="url(#u)"/><g filter="url(#v)"><path d="M7.001 18.123c1.191-.425 1.708-.855 1.784-1.012-.15.727-.012 1.667.21 2.07l-1.994-1.058z" fill="url(#w)"/></g><g filter="url(#x)"><path d="M8.966 19.197c1.191-.426 1.709-.855 1.785-1.013-.151.728-.012 1.668.21 2.07l-1.995-1.057z" fill="url(#y)"/></g><g filter="url(#z)"><path d="M4.646 17.27c1.19-.425 1.708-.855 1.784-1.012-.15.727-.012 1.667.21 2.07L4.646 17.27z" fill="url(#A)"/></g><g filter="url(#B)"><path d="m2.566 19.142.89-2.3c-.399.608-1.423 1.024-1.53.868l.64 1.432z" fill="url(#C)"/></g><g filter="url(#D)"><path d="M4.167 17.336c1.25 0 4.237.495 6.174 2.466" stroke="#FFD25B" stroke-linecap="round"/></g><g filter="url(#E)"><path d="M24.533 13.085a1.297 1.297 0 0 0-1.452-1.115c-.704.09-1.206.73-1.116 1.435.133 1.056.34 2.613.563 4.06.023.146-.157.235-.258.127a526.618 526.618 0 0 0-1.994-2.105c-.508-.53-1.34-.506-1.85 0a1.286 1.286 0 0 0-.008 1.817l.408.413a1.297 1.297 0 0 0-1.612 2.009l.753.76c.27.28 1 1.003 1.645 2.075l.176.294c.668 1.122 1.422 2.385 2.627 3.166a4.409 4.409 0 0 0 5.945-.731 4.579 4.579 0 0 0 1.096-2.152c.224-.966.253-1.385.298-2.028l.026-.357c.047-.619.258-1.648.386-2.225l.515-1.75c.225-.707-.074-1.455-.861-1.706-.708-.225-1.492.228-1.753 1.078l-.542 1.69-.34-4.647a1.3 1.3 0 0 0-1.416-1.195 1.287 1.287 0 0 0-1.17 1.394c.018.205.04.428.063.665l-.13-.972z" fill="#FFC23E"/><path d="M24.533 13.085a1.297 1.297 0 0 0-1.452-1.115c-.704.09-1.206.73-1.116 1.435.133 1.056.34 2.613.563 4.06.023.146-.157.235-.258.127a526.618 526.618 0 0 0-1.994-2.105c-.508-.53-1.34-.506-1.85 0a1.286 1.286 0 0 0-.008 1.817l.408.413a1.297 1.297 0 0 0-1.612 2.009l.753.76c.27.28 1 1.003 1.645 2.075l.176.294c.668 1.122 1.422 2.385 2.627 3.166a4.409 4.409 0 0 0 5.945-.731 4.579 4.579 0 0 0 1.096-2.152c.224-.966.253-1.385.298-2.028l.026-.357c.047-.619.258-1.648.386-2.225l.515-1.75c.225-.707-.074-1.455-.861-1.706-.708-.225-1.492.228-1.753 1.078l-.542 1.69-.34-4.647a1.3 1.3 0 0 0-1.416-1.195 1.287 1.287 0 0 0-1.17 1.394c.018.205.04.428.063.665l-.13-.972z" fill="url(#F)"/><path d="M24.533 13.085a1.297 1.297 0 0 0-1.452-1.115c-.704.09-1.206.73-1.116 1.435.133 1.056.34 2.613.563 4.06.023.146-.157.235-.258.127a526.618 526.618 0 0 0-1.994-2.105c-.508-.53-1.34-.506-1.85 0a1.286 1.286 0 0 0-.008 1.817l.408.413a1.297 1.297 0 0 0-1.612 2.009l.753.76c.27.28 1 1.003 1.645 2.075l.176.294c.668 1.122 1.422 2.385 2.627 3.166a4.409 4.409 0 0 0 5.945-.731 4.579 4.579 0 0 0 1.096-2.152c.224-.966.253-1.385.298-2.028l.026-.357c.047-.619.258-1.648.386-2.225l.515-1.75c.225-.707-.074-1.455-.861-1.706-.708-.225-1.492.228-1.753 1.078l-.542 1.69-.34-4.647a1.3 1.3 0 0 0-1.416-1.195 1.287 1.287 0 0 0-1.17 1.394c.018.205.04.428.063.665l-.13-.972z" fill="url(#G)"/><path d="M24.533 13.085a1.297 1.297 0 0 0-1.452-1.115c-.704.09-1.206.73-1.116 1.435.133 1.056.34 2.613.563 4.06.023.146-.157.235-.258.127a526.618 526.618 0 0 0-1.994-2.105c-.508-.53-1.34-.506-1.85 0a1.286 1.286 0 0 0-.008 1.817l.408.413a1.297 1.297 0 0 0-1.612 2.009l.753.76c.27.28 1 1.003 1.645 2.075l.176.294c.668 1.122 1.422 2.385 2.627 3.166a4.409 4.409 0 0 0 5.945-.731 4.579 4.579 0 0 0 1.096-2.152c.224-.966.253-1.385.298-2.028l.026-.357c.047-.619.258-1.648.386-2.225l.515-1.75c.225-.707-.074-1.455-.861-1.706-.708-.225-1.492.228-1.753 1.078l-.542 1.69-.34-4.647a1.3 1.3 0 0 0-1.416-1.195 1.287 1.287 0 0 0-1.17 1.394c.018.205.04.428.063.665l-.13-.972z" fill="url(#H)"/></g><path d="M19.099 21.795a2.64 2.64 0 0 0 2.121-1.817l-2.409-2.27a1.297 1.297 0 0 0-1.597 2.018l.753.76.066.068c.222.23.631.652 1.066 1.24z" fill="url(#I)"/><path d="M19.099 21.795a2.64 2.64 0 0 0 2.121-1.817l-2.409-2.27a1.297 1.297 0 0 0-1.597 2.018l.753.76.066.068c.222.23.631.652 1.066 1.24z" fill="url(#J)"/><path d="M19.099 21.795a2.64 2.64 0 0 0 2.121-1.817l-2.409-2.27a1.297 1.297 0 0 0-1.597 2.018l.753.76.066.068c.222.23.631.652 1.066 1.24z" fill="url(#K)"/><g filter="url(#L)"><rect x="17.669" y="18.402" width=".791" height="4.013" rx=".395" transform="rotate(-47.707 17.669 18.402)" fill="#FFD93D"/></g><path d="M22.427 17.76c.01.01.02.016.032.02l.682.838c-.45 1.05-1.314 1.479-1.673 1.596l-.249-.234v-.002l-2.408-2.27a1.174 1.174 0 0 0 .015.009l-.409-.413a1.286 1.286 0 0 1 .009-1.818c.51-.505 1.342-.528 1.85 0 .34.355 1.454 1.534 2.151 2.273z" fill="url(#M)"/><path d="M22.427 17.76c.01.01.02.016.032.02l.682.838c-.45 1.05-1.314 1.479-1.673 1.596l-.249-.234v-.002l-2.408-2.27a1.174 1.174 0 0 0 .015.009l-.409-.413a1.286 1.286 0 0 1 .009-1.818c.51-.505 1.342-.528 1.85 0 .34.355 1.454 1.534 2.151 2.273z" fill="url(#N)"/><path d="M22.427 17.76c.01.01.02.016.032.02l.682.838c-.45 1.05-1.314 1.479-1.673 1.596l-.249-.234v-.002l-2.408-2.27a1.174 1.174 0 0 0 .015.009l-.409-.413a1.286 1.286 0 0 1 .009-1.818c.51-.505 1.342-.528 1.85 0 .34.355 1.454 1.534 2.151 2.273z" fill="url(#O)"/><path d="M22.427 17.76c.01.01.02.016.032.02l.682.838c-.45 1.05-1.314 1.479-1.673 1.596l-.249-.234v-.002l-2.408-2.27a1.174 1.174 0 0 0 .015.009l-.409-.413a1.286 1.286 0 0 1 .009-1.818c.51-.505 1.342-.528 1.85 0 .34.355 1.454 1.534 2.151 2.273z" fill="url(#P)"/><path d="M22.427 17.76c.01.01.02.016.032.02l.682.838c-.45 1.05-1.314 1.479-1.673 1.596l-.249-.234v-.002l-2.408-2.27a1.174 1.174 0 0 0 .015.009l-.409-.413a1.286 1.286 0 0 1 .009-1.818c.51-.505 1.342-.528 1.85 0 .34.355 1.454 1.534 2.151 2.273z" fill="url(#Q)"/><g filter="url(#R)"><rect x="19.032" y="16.113" width=".791" height="4.696" rx=".395" transform="rotate(-44.235 19.032 16.113)" fill="#FFD93D"/></g><path d="M22.545 17.757c.644 1.27 2.184 1.212 2.671.782l-.604-4.859-.08-.595a1.297 1.297 0 0 0-1.45-1.115c-.705.09-1.207.73-1.117 1.435.14 1.112.361 2.779.599 4.287a.078.078 0 0 1-.019.065z" fill="url(#S)"/><path d="M22.545 17.757c.644 1.27 2.184 1.212 2.671.782l-.604-4.859-.08-.595a1.297 1.297 0 0 0-1.45-1.115c-.705.09-1.207.73-1.117 1.435.14 1.112.361 2.779.599 4.287a.078.078 0 0 1-.019.065z" fill="url(#T)"/><path d="M22.545 17.757c.644 1.27 2.184 1.212 2.671.782l-.604-4.859-.08-.595a1.297 1.297 0 0 0-1.45-1.115c-.705.09-1.207.73-1.117 1.435.14 1.112.361 2.779.599 4.287a.078.078 0 0 1-.019.065z" fill="url(#U)"/><path d="M22.545 17.757c.644 1.27 2.184 1.212 2.671.782l-.604-4.859-.08-.595a1.297 1.297 0 0 0-1.45-1.115c-.705.09-1.207.73-1.117 1.435.14 1.112.361 2.779.599 4.287a.078.078 0 0 1-.019.065z" fill="url(#V)"/><path d="M22.545 17.757c.644 1.27 2.184 1.212 2.671.782l-.604-4.859-.08-.595a1.297 1.297 0 0 0-1.45-1.115c-.705.09-1.207.73-1.117 1.435.14 1.112.361 2.779.599 4.287a.078.078 0 0 1-.019.065z" fill="url(#W)"/><g filter="url(#X)"><rect x="23.31" y="12.811" width=".791" height="5.532" rx=".395" transform="rotate(-8.366 23.31 12.811)" fill="url(#Y)"/></g><path d="m24.64 13.833.585 4.8c.359.19 1.273.487 2.257.076-.008-.017.012-.347.051-.871l-.34-4.647a1.3 1.3 0 0 0-1.416-1.196 1.287 1.287 0 0 0-1.17 1.395c.018.204.04.427.063.665l-.03-.222z" fill="url(#Z)"/><path d="m24.64 13.833.585 4.8c.359.19 1.273.487 2.257.076-.008-.017.012-.347.051-.871l-.34-4.647a1.3 1.3 0 0 0-1.416-1.196 1.287 1.287 0 0 0-1.17 1.395c.018.204.04.427.063.665l-.03-.222z" fill="url(#aa)"/><path d="m24.64 13.833.585 4.8c.359.19 1.273.487 2.257.076-.008-.017.012-.347.051-.871l-.34-4.647a1.3 1.3 0 0 0-1.416-1.196 1.287 1.287 0 0 0-1.17 1.395c.018.204.04.427.063.665l-.03-.222z" fill="url(#ab)"/><path d="m24.64 13.833.585 4.8c.359.19 1.273.487 2.257.076-.008-.017.012-.347.051-.871l-.34-4.647a1.3 1.3 0 0 0-1.416-1.196 1.287 1.287 0 0 0-1.17 1.395c.018.204.04.427.063.665l-.03-.222z" fill="url(#ac)"/><g filter="url(#ad)"><rect x="25.866" y="12.744" width=".841" height="5.532" rx=".42" transform="rotate(-4.34 25.866 12.744)" fill="url(#ae)"/></g><g filter="url(#af)"><path d="m27.045 19.024-.271-1.989" stroke="url(#ag)" stroke-linecap="round"/></g></g><defs><radialGradient id="d" cx="0" cy="0" r="1" gradientUnits="userSpaceOnUse" gradientTransform="rotate(127.137 -2.408 8.084) scale(1.22484 .98884)"><stop stop-color="#FFD862"/><stop offset="1" stop-color="#FFD862" stop-opacity="0"/></radialGradient><radialGradient id="e" cx="0" cy="0" r="1" gradientUnits="userSpaceOnUse" gradientTransform="matrix(3.3394 -2.40624 4.19529 5.82226 3.206 26.117)"><stop stop-color="#EF9D34"/><stop offset="1" stop-color="#EF9D34" stop-opacity="0"/></radialGradient><radialGradient id="f" cx="0" cy="0" r="1" gradientUnits="userSpaceOnUse" gradientTransform="matrix(.39063 1.71875 -.61321 .13937 2.554 15.712)"><stop stop-color="#FFD363"/><stop offset="1" stop-color="#FFD363" stop-opacity="0"/></radialGradient><radialGradient id="g" cx="0" cy="0" r="1" gradientUnits="userSpaceOnUse" gradientTransform="rotate(83.149 -7.094 12.37) scale(8.51135 8.94512)"><stop offset=".932" stop-color="#FA8BB2" stop-opacity="0"/><stop offset=".985" stop-color="#FA8BB2"/></radialGradient><radialGradient id="h" cx="0" cy="0" r="1" gradientUnits="userSpaceOnUse" gradientTransform="matrix(-2.13831 4.59044 -1.1754 -.54752 7.698 13.706)"><stop offset=".477" stop-color="#F9B417"/><stop offset="1" stop-color="#F9B417" stop-opacity="0"/></radialGradient><radialGradient id="k" cx="0" cy="0" r="1" gradientUnits="userSpaceOnUse" gradientTransform="rotate(112.275 -.586 8.391) scale(1.11278 .7544)"><stop stop-color="#FFDA65"/><stop offset="1" stop-color="#FFDA65" stop-opacity="0"/></radialGradient><radialGradient id="l" cx="0" cy="0" r="1" gradientUnits="userSpaceOnUse" gradientTransform="rotate(114.19 1.488 9.912) scale(7.98173 1.50515)"><stop offset=".477" stop-color="#F9B417"/><stop offset="1" stop-color="#F9B417" stop-opacity="0"/></radialGradient><radialGradient id="n" cx="0" cy="0" r="1" gradientUnits="userSpaceOnUse" gradientTransform="rotate(113.339 1.108 9.032) scale(1.60626 .95774)"><stop stop-color="#FFDA65"/><stop offset="1" stop-color="#FFDA65" stop-opacity="0"/></radialGradient><radialGradient id="p" cx="0" cy="0" r="1" gradientUnits="userSpaceOnUse" gradientTransform="matrix(-3.6565 6.96579 -1.25313 -.6578 13.777 12.722)"><stop offset=".477" stop-color="#F9B417"/><stop offset="1" stop-color="#F9B417" stop-opacity="0"/></radialGradient><radialGradient id="r" cx="0" cy="0" r="1" gradientUnits="userSpaceOnUse" gradientTransform="rotate(119.468 1.855 10.1) scale(1.36663 1.007)"><stop stop-color="#FFDA65"/><stop offset="1" stop-color="#FFDA65" stop-opacity="0"/></radialGradient><radialGradient id="t" cx="0" cy="0" r="1" gradientUnits="userSpaceOnUse" gradientTransform="matrix(1.0272 .40527 -1.0288 2.6076 11.1 16.77)"><stop offset=".429" stop-color="#F7B51D"/><stop offset="1" stop-color="#F7B51D" stop-opacity="0"/></radialGradient><radialGradient id="u" cx="0" cy="0" r="1" gradientUnits="userSpaceOnUse" gradientTransform="matrix(-.53148 .91556 -.66607 -.38665 12.99 15.928)"><stop stop-color="#FFDA65"/><stop offset="1" stop-color="#FFDA65" stop-opacity="0"/></radialGradient><radialGradient id="F" cx="0" cy="0" r="1" gradientUnits="userSpaceOnUse" gradientTransform="matrix(.77438 5.09182 -2.61747 .39807 29.15 21.925)"><stop stop-color="#FFCD46"/><stop offset="1" stop-color="#FFCD46" stop-opacity="0"/></radialGradient><radialGradient id="G" cx="0" cy="0" r="1" gradientUnits="userSpaceOnUse" gradientTransform="rotate(-55.555 36.545 -8.317) scale(3.42497 6.74663)"><stop stop-color="#F0A028"/><stop offset="1" stop-color="#F0A028" stop-opacity="0"/></radialGradient><radialGradient id="H" cx="0" cy="0" r="1" gradientUnits="userSpaceOnUse" gradientTransform="matrix(-1.5 0 0 -1.08614 30.647 15.868)"><stop stop-color="#FFDF66"/><stop offset="1" stop-color="#FFDF66" stop-opacity="0"/></radialGradient><radialGradient id="K" cx="0" cy="0" r="1" gradientUnits="userSpaceOnUse" gradientTransform="rotate(75.964 -2.1 20.57) scale(1.15962 .98893)"><stop stop-color="#FFDF66"/><stop offset="1" stop-color="#FFDF66" stop-opacity="0"/></radialGradient><radialGradient id="N" cx="0" cy="0" r="1" gradientUnits="userSpaceOnUse" gradientTransform="rotate(-115.129 17.208 3.11) scale(.64107 4.04627)"><stop stop-color="#FFC23E"/><stop offset="1" stop-color="#FFC23E" stop-opacity="0"/></radialGradient><radialGradient id="O" cx="0" cy="0" r="1" gradientUnits="userSpaceOnUse" gradientTransform="matrix(-.35816 .34565 -1.85865 -1.9259 21.92 16.824)"><stop stop-color="#C5923E"/><stop offset="1" stop-color="#C5923E" stop-opacity="0"/></radialGradient><radialGradient id="P" cx="0" cy="0" r="1" gradientUnits="userSpaceOnUse" gradientTransform="matrix(.1714 -.15747 1.78394 1.94165 20.226 19.16)"><stop stop-color="#803800"/><stop offset="1" stop-color="#803800" stop-opacity="0"/></radialGradient><radialGradient id="Q" cx="0" cy="0" r="1" gradientUnits="userSpaceOnUse" gradientTransform="matrix(.1875 1.15625 -1.16572 .18904 19.647 15.15)"><stop stop-color="#FFDF66"/><stop offset="1" stop-color="#FFDF66" stop-opacity="0"/></radialGradient><radialGradient id="W" cx="0" cy="0" r="1" gradientUnits="userSpaceOnUse" gradientTransform="rotate(116.892 7.88 13.635) scale(.87598 .78795)"><stop stop-color="#FFDF66"/><stop offset="1" stop-color="#FFDF66" stop-opacity="0"/></radialGradient><radialGradient id="ab" cx="0" cy="0" r="1" gradientUnits="userSpaceOnUse" gradientTransform="matrix(-.39255 .03915 -.10068 -1.0096 27.628 17.962)"><stop stop-color="#B47525"/><stop offset="1" stop-color="#B47525" stop-opacity="0"/></radialGradient><radialGradient id="ac" cx="0" cy="0" r="1" gradientUnits="userSpaceOnUse" gradientTransform="matrix(-.875 .59375 -.6573 -.96863 26.749 12.866)"><stop stop-color="#FFDF66"/><stop offset="1" stop-color="#FFDF66" stop-opacity="0"/></radialGradient><linearGradient id="c" x1="10.464" y1="12.386" x2="4.353" y2="26.139" gradientUnits="userSpaceOnUse"><stop offset=".206" stop-color="#FFC549"/><stop offset="1" stop-color="#FBA945"/></linearGradient><linearGradient id="i" x1="4.24" y1="13.943" x2="5.666" y2="14.499" gradientUnits="userSpaceOnUse"><stop stop-color="#EDB225"/><stop offset="1" stop-color="#EDB225" stop-opacity="0"/></linearGradient><linearGradient id="j" x1="4.802" y1="17.72" x2="5.697" y2="15.308" gradientUnits="userSpaceOnUse"><stop stop-color="#FEBC48"/><stop offset="1" stop-color="#FEBC48" stop-opacity="0"/></linearGradient><linearGradient id="m" x1="6.788" y1="14.761" x2="7.961" y2="15.245" gradientUnits="userSpaceOnUse"><stop stop-color="#F7B51D"/><stop offset="1" stop-color="#F7B51D" stop-opacity="0"/></linearGradient><linearGradient id="o" x1="6.802" y1="18.777" x2="7.673" y2="16.702" gradientUnits="userSpaceOnUse"><stop offset=".314" stop-color="#FEBB48"/><stop offset="1" stop-color="#FEBB48" stop-opacity="0"/></linearGradient><linearGradient id="q" x1="9.321" y1="14.958" x2="10.397" y2="15.483" gradientUnits="userSpaceOnUse"><stop stop-color="#F7B51D"/><stop offset="1" stop-color="#F7B51D" stop-opacity="0"/></linearGradient><linearGradient id="s" x1="9.118" y1="18.701" x2="9.835" y2="16.628" gradientUnits="userSpaceOnUse"><stop offset=".314" stop-color="#FEBB48"/><stop offset="1" stop-color="#FEBB48" stop-opacity="0"/></linearGradient><linearGradient id="w" x1="8.836" y1="17.082" x2="8.087" y2="18.674" gradientUnits="userSpaceOnUse"><stop offset=".241" stop-color="#FFD563"/><stop offset="1" stop-color="#FFD563" stop-opacity="0"/></linearGradient><linearGradient id="y" x1="10.801" y1="18.156" x2="10.052" y2="19.748" gradientUnits="userSpaceOnUse"><stop offset=".241" stop-color="#FFD563"/><stop offset="1" stop-color="#FFD563" stop-opacity="0"/></linearGradient><linearGradient id="A" x1="6.48" y1="16.229" x2="5.732" y2="17.821" gradientUnits="userSpaceOnUse"><stop offset=".241" stop-color="#FFD563"/><stop offset="1" stop-color="#FFD563" stop-opacity="0"/></linearGradient><linearGradient id="C" x1="3.504" y1="16.814" x2="2.925" y2="18.268" gradientUnits="userSpaceOnUse"><stop offset=".241" stop-color="#FFD563"/><stop offset="1" stop-color="#FFD563" stop-opacity="0"/></linearGradient><linearGradient id="I" x1="20.343" y1="18.838" x2="20.006" y2="19.207" gradientUnits="userSpaceOnUse"><stop stop-color="#C97C00"/><stop offset="1" stop-color="#C97C00" stop-opacity="0"/></linearGradient><linearGradient id="J" x1="21.279" y1="19.929" x2="20.346" y2="19.619" gradientUnits="userSpaceOnUse"><stop stop-color="#FFC23E"/><stop offset="1" stop-color="#FFC23E" stop-opacity="0"/></linearGradient><linearGradient id="M" x1="19.78" y1="19.012" x2="20.763" y2="18.015" gradientUnits="userSpaceOnUse"><stop stop-color="#E5910C"/><stop offset="1" stop-color="#E5910C" stop-opacity="0"/></linearGradient><linearGradient id="S" x1="21.905" y1="16.057" x2="23.303" y2="15.858" gradientUnits="userSpaceOnUse"><stop stop-color="#DD9627"/><stop offset="1" stop-color="#DD9627" stop-opacity="0"/></linearGradient><linearGradient id="T" x1="25.239" y1="15.774" x2="24.545" y2="15.884" gradientUnits="userSpaceOnUse"><stop stop-color="#C67700"/><stop offset="1" stop-color="#C67700" stop-opacity="0"/></linearGradient><linearGradient id="U" x1="24.915" y1="15.913" x2="24.726" y2="15.936" gradientUnits="userSpaceOnUse"><stop stop-color="#803800"/><stop offset="1" stop-color="#803800" stop-opacity="0"/></linearGradient><linearGradient id="V" x1="25.042" y1="18.554" x2="23.399" y2="17.297" gradientUnits="userSpaceOnUse"><stop stop-color="#FFC23E"/><stop offset="1" stop-color="#FFC23E" stop-opacity="0"/></linearGradient><linearGradient id="Y" x1="23.828" y1="12.389" x2="23.923" y2="19.273" gradientUnits="userSpaceOnUse"><stop stop-color="#FFD93D"/><stop offset="1" stop-color="#FFD93D" stop-opacity="0"/></linearGradient><linearGradient id="Z" x1="24.596" y1="16.111" x2="26.306" y2="15.891" gradientUnits="userSpaceOnUse"><stop stop-color="#DD9627"/><stop offset="1" stop-color="#DD9627" stop-opacity="0"/></linearGradient><linearGradient id="aa" x1="26.282" y1="18.779" x2="26.352" y2="17.338" gradientUnits="userSpaceOnUse"><stop stop-color="#FFC23E"/><stop offset="1" stop-color="#FFC23E" stop-opacity="0"/></linearGradient><linearGradient id="ae" x1="26.417" y1="12.322" x2="26.507" y2="19.206" gradientUnits="userSpaceOnUse"><stop stop-color="#FFD93D"/><stop offset="1" stop-color="#FFD93D" stop-opacity="0"/></linearGradient><linearGradient id="ag" x1="27.038" y1="19.287" x2="27.032" y2="17.335" gradientUnits="userSpaceOnUse"><stop stop-color="#FFD842"/><stop offset=".632" stop-color="#FFD842" stop-opacity=".368"/><stop offset="1" stop-color="#FFD842" stop-opacity="0"/></linearGradient><filter id="b" x=".662" y="10.942" width="13.415" height="15.332" filterUnits="userSpaceOnUse" color-interpolation-filters="sRGB"><feFlood flood-opacity="0" result="BackgroundImageFix"/><feBlend in="SourceGraphic" in2="BackgroundImageFix" result="shape"/><feColorMatrix in="SourceAlpha" values="0 0 0 0 0 0 0 0 0 0 0 0 0 0 0 0 0 0 127 0" result="hardAlpha"/><feOffset dx=".25" dy="-.5"/><feGaussianBlur stdDeviation=".5"/><feComposite in2="hardAlpha" operator="arithmetic" k2="-1" k3="1"/><feColorMatrix values="0 0 0 0 0.988235 0 0 0 0 0.603922 0 0 0 0 0.329412 0 0 0 1 0"/><feBlend in2="shape" result="effect1_innerShadow_14394_1027"/><feColorMatrix in="SourceAlpha" values="0 0 0 0 0 0 0 0 0 0 0 0 0 0 0 0 0 0 127 0" result="hardAlpha"/><feOffset dx=".5"/><feGaussianBlur stdDeviation=".625"/><feComposite in2="hardAlpha" operator="arithmetic" k2="-1" k3="1"/><feColorMatrix values="0 0 0 0 0.835294 0 0 0 0 0.537255 0 0 0 0 0.247059 0 0 0 1 0"/><feBlend in2="effect1_innerShadow_14394_1027" result="effect2_innerShadow_14394_1027"/></filter><filter id="v" x="6.801" y="16.911" width="2.394" height="2.47" filterUnits="userSpaceOnUse" color-interpolation-filters="sRGB"><feFlood flood-opacity="0" result="BackgroundImageFix"/><feBlend in="SourceGraphic" in2="BackgroundImageFix" result="shape"/><feGaussianBlur stdDeviation=".1" result="effect1_foregroundBlur_14394_1027"/></filter><filter id="x" x="8.766" y="17.984" width="2.394" height="2.47" filterUnits="userSpaceOnUse" color-interpolation-filters="sRGB"><feFlood flood-opacity="0" result="BackgroundImageFix"/><feBlend in="SourceGraphic" in2="BackgroundImageFix" result="shape"/><feGaussianBlur stdDeviation=".1" result="effect1_foregroundBlur_14394_1027"/></filter><filter id="z" x="4.446" y="16.058" width="2.394" height="2.47" filterUnits="userSpaceOnUse" color-interpolation-filters="sRGB"><feFlood flood-opacity="0" result="BackgroundImageFix"/><feBlend in="SourceGraphic" in2="BackgroundImageFix" result="shape"/><feGaussianBlur stdDeviation=".1" result="effect1_foregroundBlur_14394_1027"/></filter><filter id="B" x="1.726" y="16.641" width="1.931" height="2.701" filterUnits="userSpaceOnUse" color-interpolation-filters="sRGB"><feFlood flood-opacity="0" result="BackgroundImageFix"/><feBlend in="SourceGraphic" in2="BackgroundImageFix" result="shape"/><feGaussianBlur stdDeviation=".1" result="effect1_foregroundBlur_14394_1027"/></filter><filter id="D" x="2.167" y="15.336" width="10.175" height="6.466" filterUnits="userSpaceOnUse" color-interpolation-filters="sRGB"><feFlood flood-opacity="0" result="BackgroundImageFix"/><feBlend in="SourceGraphic" in2="BackgroundImageFix" result="shape"/><feGaussianBlur stdDeviation=".75" result="effect1_foregroundBlur_14394_1027"/></filter><filter id="E" x="16.839" y="11.209" width="14.665" height="15.644" filterUnits="userSpaceOnUse" color-interpolation-filters="sRGB"><feFlood flood-opacity="0" result="BackgroundImageFix"/><feBlend in="SourceGraphic" in2="BackgroundImageFix" result="shape"/><feColorMatrix in="SourceAlpha" values="0 0 0 0 0 0 0 0 0 0 0 0 0 0 0 0 0 0 127 0" result="hardAlpha"/><feOffset dx=".75" dy="-.75"/><feGaussianBlur stdDeviation=".75"/><feComposite in2="hardAlpha" operator="arithmetic" k2="-1" k3="1"/><feColorMatrix values="0 0 0 0 0.878431 0 0 0 0 0.537255 0 0 0 0 0.188235 0 0 0 1 0"/><feBlend in2="shape" result="effect1_innerShadow_14394_1027"/></filter><filter id="L" x="16.331" y="16.48" width="6.174" height="5.959" filterUnits="userSpaceOnUse" color-interpolation-filters="sRGB"><feFlood flood-opacity="0" result="BackgroundImageFix"/><feBlend in="SourceGraphic" in2="BackgroundImageFix" result="shape"/><feGaussianBlur stdDeviation=".75" result="effect1_foregroundBlur_14394_1027"/></filter><filter id="R" x="18.196" y="14.725" width="5.515" height="5.589" filterUnits="userSpaceOnUse" color-interpolation-filters="sRGB"><feFlood flood-opacity="0" result="BackgroundImageFix"/><feBlend in="SourceGraphic" in2="BackgroundImageFix" result="shape"/><feGaussianBlur stdDeviation=".5" result="effect1_foregroundBlur_14394_1027"/></filter><filter id="X" x="21.863" y="11.249" width="4.481" height="8.482" filterUnits="userSpaceOnUse" color-interpolation-filters="sRGB"><feFlood flood-opacity="0" result="BackgroundImageFix"/><feBlend in="SourceGraphic" in2="BackgroundImageFix" result="shape"/><feGaussianBlur stdDeviation=".75" result="effect1_foregroundBlur_14394_1027"/></filter><filter id="ad" x="24.396" y="11.211" width="4.196" height="8.519" filterUnits="userSpaceOnUse" color-interpolation-filters="sRGB"><feFlood flood-opacity="0" result="BackgroundImageFix"/><feBlend in="SourceGraphic" in2="BackgroundImageFix" result="shape"/><feGaussianBlur stdDeviation=".75" result="effect1_foregroundBlur_14394_1027"/></filter><filter id="af" x="25.274" y="15.535" width="3.271" height="4.989" filterUnits="userSpaceOnUse" color-interpolation-filters="sRGB"><feFlood flood-opacity="0" result="BackgroundImageFix"/><feBlend in="SourceGraphic" in2="BackgroundImageFix" result="shape"/><feGaussianBlur stdDeviation=".5" result="effect1_foregroundBlur_14394_1027"/></filter><clipPath id="a"><path fill="#fff" d="M0 0h32v32H0z"/></clipPath></defs></svg>