<svg width="32" height="32" fill="none" xmlns="http://www.w3.org/2000/svg"><path d="M18.79 22.02c-.77 0-.77-.77-.77-.77v-3.23c0-1.1-.9-2-2-2s-2 .9-2 2V27.72c0 2.34 1.9 4.23 4.23 4.23h.53c2.34 0 4.23-1.9 4.23-4.23v-1.47c.01-2.33-1.71-4.23-4.22-4.23z" fill="url(#a)"/><path d="M18.245 21.817c-.225-.228-.225-.567-.225-.567v-3.23c0-1.1-.9-2-2-2s-2 .9-2 2v8.23C16.5 24 17 23.5 18.245 21.817z" fill="url(#b)"/><path d="M18.79 22.02c-.77 0-.77-.77-.77-.77v-3.23c0-1.1-.9-2-2-2s-2 .9-2 2V27.72c0 2.34 1.9 4.23 4.23 4.23h.53c2.34 0 4.23-1.9 4.23-4.23v-1.47c.01-2.33-1.71-4.23-4.22-4.23z" fill="url(#c)"/><defs><radialGradient id="a" cx="0" cy="0" r="1" gradientUnits="userSpaceOnUse" gradientTransform="matrix(-9 0 0 -18.5521 22 23)"><stop offset=".143" stop-color="#FFEA67"/><stop offset=".575" stop-color="#FFC13F"/><stop offset=".904" stop-color="#DF9030"/></radialGradient><radialGradient id="c" cx="0" cy="0" r="1" gradientUnits="userSpaceOnUse" gradientTransform="matrix(-3.99996 14.5 -20.31202 -5.60325 16 20)"><stop offset=".556" stop-color="#FFEA67" stop-opacity="0"/><stop offset=".794" stop-color="#F9708E"/></radialGradient><linearGradient id="b" x1="18.5" y1="20.5" x2="13.5" y2="21" gradientUnits="userSpaceOnUse"><stop offset=".143" stop-color="#FFEA67"/><stop offset="1" stop-color="#E09332" stop-opacity="0"/></linearGradient></defs></svg>