<svg width="32" height="32" fill="none" xmlns="http://www.w3.org/2000/svg"><path d="M10 21.5v-3.06A1.44 1.44 0 0 0 8.56 17c-.84 0-1.505.718-1.517 1.559C7.023 19.92 6.835 21.722 6 22c-3 1-4 5.5-1.5 7.5 2 1.6 4 1.5 5.5 1.5h2.764a1.236 1.236 0 0 0 .553-2.342L13 28.5h.72a1 1 0 0 0 .97-.758l.067-.272A.78.78 0 0 0 14 26.5l.33-.165a1.214 1.214 0 0 0 0-2.17L14 24h1.75a1.25 1.25 0 1 0 0-2.5H10z" fill="url(#a)"/><g filter="url(#b)"><path fill-rule="evenodd" clip-rule="evenodd" d="m12.703 28.688.055-.218A.78.78 0 0 0 12 27.5l.33-.165a1.214 1.214 0 0 0 0-2.17L12 25h1.75a1.25 1.25 0 0 0 0-2.5H8v-3.06A1.44 1.44 0 0 0 6.56 18c-.84 0-1.505.718-1.517 1.559-.015 1.058-.132 2.381-.575 3.05 1.537 3.041 4.282 5.287 8.235 6.08z" fill="#E4694E"/></g><path d="M10 21.5v-3.06A1.44 1.44 0 0 0 8.56 17c-.84 0-1.505.718-1.517 1.559C7.023 19.92 6.835 21.722 6 22c-3 1-4 5.5-1.5 7.5 2 1.6 4 1.5 5.5 1.5h2.764a1.236 1.236 0 0 0 .553-2.342L13 28.5h.72a1 1 0 0 0 .97-.758l.067-.272A.78.78 0 0 0 14 26.5l.33-.165a1.214 1.214 0 0 0 0-2.17L14 24h1.75a1.25 1.25 0 1 0 0-2.5H10z" fill="url(#c)"/><path d="M10 21.5v-3.06A1.44 1.44 0 0 0 8.56 17c-.84 0-1.505.718-1.517 1.559C7.023 19.92 6.835 21.722 6 22c-3 1-4 5.5-1.5 7.5 2 1.6 4 1.5 5.5 1.5h2.764a1.236 1.236 0 0 0 .553-2.342L13 28.5h.72a1 1 0 0 0 .97-.758l.067-.272A.78.78 0 0 0 14 26.5l.33-.165a1.214 1.214 0 0 0 0-2.17L14 24h1.75a1.25 1.25 0 1 0 0-2.5H10z" fill="url(#d)"/><g opacity=".8" filter="url(#e)"><path fill="#FFA048" d="M10 23h7v1h-7z"/></g><path d="M11 24h3a1 1 0 0 1 1 1l-4-1z" fill="url(#f)"/><path d="M11 28.5h2a1 1 0 0 1 1 1l-3-1z" fill="url(#g)"/><path d="M11 26.5h3a1 1 0 0 1 1 1l-4-1z" fill="url(#h)"/><defs><radialGradient id="a" cx="0" cy="0" r="1" gradientUnits="userSpaceOnUse" gradientTransform="matrix(-16.50002 -.50009 .46634 -15.38663 15.5 22)"><stop offset=".066" stop-color="#FFEA67"/><stop offset=".593" stop-color="#FFC13F"/><stop offset=".904" stop-color="#DF9030"/></radialGradient><radialGradient id="c" cx="0" cy="0" r="1" gradientUnits="userSpaceOnUse" gradientTransform="matrix(-16.50002 -.50009 .46634 -15.38663 15.5 22)"><stop offset=".066" stop-color="#FFEA67"/><stop offset=".593" stop-color="#FFC13F"/><stop offset=".904" stop-color="#DF9030"/></radialGradient><radialGradient id="d" cx="0" cy="0" r="1" gradientUnits="userSpaceOnUse" gradientTransform="matrix(-11 1.49997 -1.53804 -11.27922 10.5 22.5)"><stop offset=".5" stop-color="#FFEA67" stop-opacity="0"/><stop offset=".851" stop-color="#F9708E"/></radialGradient><linearGradient id="f" x1="12.5" y1="24" x2="14" y2="25.5" gradientUnits="userSpaceOnUse"><stop stop-color="#FA9428"/><stop offset="1" stop-color="#FA9428" stop-opacity="0"/></linearGradient><linearGradient id="g" x1="11.5" y1="28.5" x2="13" y2="30" gradientUnits="userSpaceOnUse"><stop stop-color="#FA9428"/><stop offset="1" stop-color="#FA9428" stop-opacity="0"/></linearGradient><linearGradient id="h" x1="11.5" y1="26.5" x2="13" y2="28" gradientUnits="userSpaceOnUse"><stop stop-color="#FA9428"/><stop offset="1" stop-color="#FA9428" stop-opacity="0"/></linearGradient><filter id="b" x="2.468" y="16" width="14.533" height="14.688" filterUnits="userSpaceOnUse" color-interpolation-filters="sRGB"><feFlood flood-opacity="0" result="BackgroundImageFix"/><feBlend in="SourceGraphic" in2="BackgroundImageFix" result="shape"/><feGaussianBlur stdDeviation="1" result="effect1_foregroundBlur_31_62"/></filter><filter id="e" x="8.5" y="21.5" width="10" height="4" filterUnits="userSpaceOnUse" color-interpolation-filters="sRGB"><feFlood flood-opacity="0" result="BackgroundImageFix"/><feBlend in="SourceGraphic" in2="BackgroundImageFix" result="shape"/><feGaussianBlur stdDeviation=".75" result="effect1_foregroundBlur_31_62"/></filter></defs></svg>