<svg width="32" height="32" fill="none" xmlns="http://www.w3.org/2000/svg"><path d="M4.127 13.108c-.963-.325-1.453-.93-1.613-1.242l5.02-5.383 6.687-1.39.828 2.922-3.578 2.984c-1 .425-3.604 1.458-4.782 1.922-.453.198-1.6.512-2.562.187z" fill="url(#a)"/><path d="M4.127 13.108c-.963-.325-1.453-.93-1.613-1.242l5.02-5.383 6.687-1.39.828 2.922-3.578 2.984c-1 .425-3.604 1.458-4.782 1.922-.453.198-1.6.512-2.562.187z" fill="url(#b)"/><path d="M4.127 13.108c-.963-.325-1.453-.93-1.613-1.242l5.02-5.383 6.687-1.39.828 2.922-3.578 2.984c-1 .425-3.604 1.458-4.782 1.922-.453.198-1.6.512-2.562.187z" fill="url(#c)"/><path d="M4.127 13.108c-.963-.325-1.453-.93-1.613-1.242l5.02-5.383 6.687-1.39.828 2.922-3.578 2.984c-1 .425-3.604 1.458-4.782 1.922-.453.198-1.6.512-2.562.187z" fill="url(#d)"/><path d="M4.127 13.108c-.963-.325-1.453-.93-1.613-1.242l5.02-5.383 6.687-1.39.828 2.922-3.578 2.984c-1 .425-3.604 1.458-4.782 1.922-.453.198-1.6.512-2.562.187z" fill="url(#e)"/><g filter="url(#f)"><path d="M11.26 11.054c1.351-.406 3.164-1.086 4.71-1.719 1.61-.567 1.7-1.751 1.38-2.465-.334-.747-1.276-1.18-2.291-.762-.8.328-1.112 1.11-1.042 2.063l-2.757 2.883z" fill="#FFC744"/></g><path d="M11.26 11.054c1.351-.406 3.164-1.086 4.71-1.719 1.61-.567 1.7-1.751 1.38-2.465-.334-.747-1.276-1.18-2.291-.762-.8.328-1.112 1.11-1.042 2.063l-2.757 2.883z" fill="url(#g)"/><path d="M11.26 11.054c1.351-.406 3.164-1.086 4.71-1.719 1.61-.567 1.7-1.751 1.38-2.465-.334-.747-1.276-1.18-2.291-.762-.8.328-1.112 1.11-1.042 2.063l-2.757 2.883z" fill="url(#h)"/><path d="M13.44 8.82c1.049-.626 3.484-2.078 4.468-2.563 1.484-.842 1.324-1.923.883-2.57-.46-.676-1.465-.935-2.39-.345-.73.465-3.9 2.338-4.641 2.767l1.68 2.71z" fill="url(#i)"/><path d="M13.44 8.82c1.049-.626 3.484-2.078 4.468-2.563 1.484-.842 1.324-1.923.883-2.57-.46-.676-1.465-.935-2.39-.345-.73.465-3.9 2.338-4.641 2.767l1.68 2.71z" fill="url(#j)"/><path d="M13.44 8.82c1.049-.626 3.484-2.078 4.468-2.563 1.484-.842 1.324-1.923.883-2.57-.46-.676-1.465-.935-2.39-.345-.73.465-3.9 2.338-4.641 2.767l1.68 2.71z" fill="url(#k)"/><path d="M13.44 8.82c1.049-.626 3.484-2.078 4.468-2.563 1.484-.842 1.324-1.923.883-2.57-.46-.676-1.465-.935-2.39-.345-.73.465-3.9 2.338-4.641 2.767l1.68 2.71z" fill="url(#l)"/><path d="M13.44 8.82c1.049-.626 3.484-2.078 4.468-2.563 1.484-.842 1.324-1.923.883-2.57-.46-.676-1.465-.935-2.39-.345-.73.465-3.9 2.338-4.641 2.767l1.68 2.71z" fill="url(#m)"/><path d="M13.44 8.82c1.049-.626 3.484-2.078 4.468-2.563 1.484-.842 1.324-1.923.883-2.57-.46-.676-1.465-.935-2.39-.345-.73.465-3.9 2.338-4.641 2.767l1.68 2.71z" fill="url(#n)"/><path d="M12.846 7.858c1.05-.625 3.437-2.15 4.156-2.587 1.484-.842 1.375-1.955.934-2.601-.461-.676-1.446-.988-2.371-.399-.73.465-3.736 2.322-4.477 2.751l1.758 2.836z" fill="url(#o)"/><path d="M12.846 7.858c1.05-.625 3.437-2.15 4.156-2.587 1.484-.842 1.375-1.955.934-2.601-.461-.676-1.446-.988-2.371-.399-.73.465-3.736 2.322-4.477 2.751l1.758 2.836z" fill="url(#p)"/><path d="M12.846 7.858c1.05-.625 3.437-2.15 4.156-2.587 1.484-.842 1.375-1.955.934-2.601-.461-.676-1.446-.988-2.371-.399-.73.465-3.736 2.322-4.477 2.751l1.758 2.836z" fill="url(#q)"/><path d="M12.846 7.858c1.05-.625 3.437-2.15 4.156-2.587 1.484-.842 1.375-1.955.934-2.601-.461-.676-1.446-.988-2.371-.399-.73.465-3.736 2.322-4.477 2.751l1.758 2.836z" fill="url(#r)"/><path d="M12.846 7.858c1.05-.625 3.437-2.15 4.156-2.587 1.484-.842 1.375-1.955.934-2.601-.461-.676-1.446-.988-2.371-.399-.73.465-3.736 2.322-4.477 2.751l1.758 2.836z" fill="url(#s)"/><path d="M12.846 7.858c1.05-.625 3.437-2.15 4.156-2.587 1.484-.842 1.375-1.955.934-2.601-.461-.676-1.446-.988-2.371-.399-.73.465-3.736 2.322-4.477 2.751l1.758 2.836z" fill="url(#t)"/><path d="M9.984 7.195a.991.991 0 0 0 1.359.327c1.01-.615 2.225-1.37 2.776-1.704 1.485-.842 1.375-1.955.934-2.601-.461-.676-1.445-.989-2.371-.399-.729.465-3.196 1.947-3.938 2.376l1.24 2z" fill="#FFC52F"/><path d="M9.984 7.195a.991.991 0 0 0 1.359.327c1.01-.615 2.225-1.37 2.776-1.704 1.485-.842 1.375-1.955.934-2.601-.461-.676-1.445-.989-2.371-.399-.729.465-3.196 1.947-3.938 2.376l1.24 2z" fill="url(#u)"/><path d="M9.984 7.195a.991.991 0 0 0 1.359.327c1.01-.615 2.225-1.37 2.776-1.704 1.485-.842 1.375-1.955.934-2.601-.461-.676-1.445-.989-2.371-.399-.729.465-3.196 1.947-3.938 2.376l1.24 2z" fill="url(#v)"/><path d="M9.984 7.195a.991.991 0 0 0 1.359.327c1.01-.615 2.225-1.37 2.776-1.704 1.485-.842 1.375-1.955.934-2.601-.461-.676-1.445-.989-2.371-.399-.729.465-3.196 1.947-3.938 2.376l1.24 2z" fill="url(#w)"/><path d="M9.984 7.195a.991.991 0 0 0 1.359.327c1.01-.615 2.225-1.37 2.776-1.704 1.485-.842 1.375-1.955.934-2.601-.461-.676-1.445-.989-2.371-.399-.729.465-3.196 1.947-3.938 2.376l1.24 2z" fill="url(#x)"/><path d="M9.984 7.195a.991.991 0 0 0 1.359.327c1.01-.615 2.225-1.37 2.776-1.704 1.485-.842 1.375-1.955.934-2.601-.461-.676-1.445-.989-2.371-.399-.729.465-3.196 1.947-3.938 2.376l1.24 2z" fill="url(#y)"/><path d="M9.984 7.195a.991.991 0 0 0 1.359.327c1.01-.615 2.225-1.37 2.776-1.704 1.485-.842 1.375-1.955.934-2.601-.461-.676-1.445-.989-2.371-.399-.729.465-3.196 1.947-3.938 2.376l1.24 2z" fill="url(#z)"/><g filter="url(#A)"><path d="M11.065 6.905C8.939 8.195 4.614 10.738 2.588 12c-.453-.594-.763-1.915.055-3.125C4.01 6.851 5.658 6.155 6.627 5.718a79.676 79.676 0 0 0 3-1.813c.926-.59 1.91-.277 2.371.399.441.646.574 1.78-.933 2.601z" fill="url(#B)"/><path d="M11.065 6.905C8.939 8.195 4.614 10.738 2.588 12c-.453-.594-.763-1.915.055-3.125C4.01 6.851 5.658 6.155 6.627 5.718a79.676 79.676 0 0 0 3-1.813c.926-.59 1.91-.277 2.371.399.441.646.574 1.78-.933 2.601z" fill="url(#C)"/><path d="M11.065 6.905C8.939 8.195 4.614 10.738 2.588 12c-.453-.594-.763-1.915.055-3.125C4.01 6.851 5.658 6.155 6.627 5.718a79.676 79.676 0 0 0 3-1.813c.926-.59 1.91-.277 2.371.399.441.646.574 1.78-.933 2.601z" fill="url(#D)"/><path d="M11.065 6.905C8.939 8.195 4.614 10.738 2.588 12c-.453-.594-.763-1.915.055-3.125C4.01 6.851 5.658 6.155 6.627 5.718a79.676 79.676 0 0 0 3-1.813c.926-.59 1.91-.277 2.371.399.441.646.574 1.78-.933 2.601z" fill="url(#E)"/></g><defs><radialGradient id="b" cx="0" cy="0" r="1" gradientUnits="userSpaceOnUse" gradientTransform="matrix(3.1875 -2.6875 2.14102 2.53935 4.611 13.624)"><stop stop-color="#EE9654"/><stop offset="1" stop-color="#EE9654" stop-opacity="0"/></radialGradient><radialGradient id="c" cx="0" cy="0" r="1" gradientUnits="userSpaceOnUse" gradientTransform="rotate(130.301 1.968 5.668) scale(6.62467 10.1816)"><stop offset=".769" stop-color="#F3A731" stop-opacity="0"/><stop offset="1" stop-color="#D1A64E"/></radialGradient><radialGradient id="d" cx="0" cy="0" r="1" gradientUnits="userSpaceOnUse" gradientTransform="matrix(3.2508 .70115 -.3739 1.7335 10.028 7.437)"><stop stop-color="#FFB639"/><stop offset="1" stop-color="#FFB639" stop-opacity="0"/></radialGradient><radialGradient id="e" cx="0" cy="0" r="1" gradientUnits="userSpaceOnUse" gradientTransform="matrix(4.09375 -3.76574 2.15105 2.33842 7.486 12.937)"><stop stop-color="#F7A23E"/><stop offset="1" stop-color="#F7A23E" stop-opacity="0"/></radialGradient><radialGradient id="h" cx="0" cy="0" r="1" gradientUnits="userSpaceOnUse" gradientTransform="matrix(-1.40624 2.25001 -2.14896 -1.34308 17.299 6.78)"><stop stop-color="#FFE667"/><stop offset="1" stop-color="#FFC744" stop-opacity="0"/></radialGradient><radialGradient id="j" cx="0" cy="0" r="1" gradientUnits="userSpaceOnUse" gradientTransform="matrix(-2.0625 1.01563 -1.08792 -2.2093 18.658 4.28)"><stop stop-color="#FFF064"/><stop offset="1" stop-color="#FEBA32" stop-opacity="0"/></radialGradient><radialGradient id="l" cx="0" cy="0" r="1" gradientUnits="userSpaceOnUse" gradientTransform="matrix(3.00402 -3.3837 4.37322 3.88252 13.76 8.65)"><stop offset=".302" stop-color="#FDA04C"/><stop offset="1" stop-color="#FDA04C" stop-opacity="0"/></radialGradient><radialGradient id="n" cx="0" cy="0" r="1" gradientUnits="userSpaceOnUse" gradientTransform="matrix(-4.85935 2.76566 -1.4409 -2.53172 17.877 5.312)"><stop offset=".619" stop-color="#FFA24E" stop-opacity="0"/><stop offset=".922" stop-color="#FFB639"/></radialGradient><radialGradient id="p" cx="0" cy="0" r="1" gradientUnits="userSpaceOnUse" gradientTransform="matrix(-1.90626 1.06249 -1.16524 -2.0906 18.018 2.718)"><stop stop-color="#FFF064"/><stop offset="1" stop-color="#FEBA32" stop-opacity="0"/></radialGradient><radialGradient id="r" cx="0" cy="0" r="1" gradientUnits="userSpaceOnUse" gradientTransform="rotate(-49.636 14.827 -10.248) scale(4.51151 5.7955)"><stop offset=".302" stop-color="#FDA04C"/><stop offset="1" stop-color="#FDA04C" stop-opacity="0"/></radialGradient><radialGradient id="t" cx="0" cy="0" r="1" gradientUnits="userSpaceOnUse" gradientTransform="matrix(-5.28123 3.28127 -1.97232 -3.17447 17.033 3.812)"><stop offset=".639" stop-color="#FFA24E" stop-opacity="0"/><stop offset=".922" stop-color="#FFB639"/></radialGradient><radialGradient id="u" cx="0" cy="0" r="1" gradientUnits="userSpaceOnUse" gradientTransform="matrix(4.45392 -.89237 .8955 4.46951 10.889 7.47)"><stop offset=".142" stop-color="#FC9F4D"/><stop offset="1" stop-color="#FC9F4D" stop-opacity="0"/></radialGradient><radialGradient id="w" cx="0" cy="0" r="1" gradientUnits="userSpaceOnUse" gradientTransform="matrix(-1.3704 3.66512 -5.32541 -1.9912 12.243 4.139)"><stop offset=".842" stop-color="#FFB639" stop-opacity="0"/><stop offset="1" stop-color="#FFB639"/></radialGradient><radialGradient id="x" cx="0" cy="0" r="1" gradientUnits="userSpaceOnUse" gradientTransform="matrix(.84375 -.20702 .28711 1.17021 11.705 5.269)"><stop offset=".334" stop-color="#FFA80F"/><stop offset="1" stop-color="#FFA80F" stop-opacity="0"/></radialGradient><radialGradient id="z" cx="0" cy="0" r="1" gradientUnits="userSpaceOnUse" gradientTransform="matrix(-1.82812 1.01564 -1.222 -2.19958 14.846 3.546)"><stop stop-color="#FFF266"/><stop offset="1" stop-color="#FFC033" stop-opacity="0"/></radialGradient><radialGradient id="C" cx="0" cy="0" r="1" gradientUnits="userSpaceOnUse" gradientTransform="matrix(-2.43751 1.37498 -1.39761 -2.47763 11.799 4.561)"><stop stop-color="#FFF166"/><stop offset="1" stop-color="#FFBB32" stop-opacity="0"/></radialGradient><radialGradient id="D" cx="0" cy="0" r="1" gradientUnits="userSpaceOnUse" gradientTransform="matrix(-.625 -1.125 4.5106 -2.50593 9.08 8.061)"><stop stop-color="#FEA24F"/><stop offset="1" stop-color="#FEA24F" stop-opacity="0"/></radialGradient><radialGradient id="E" cx="0" cy="0" r="1" gradientUnits="userSpaceOnUse" gradientTransform="rotate(-120.801 7.235 .865) scale(.47296 3.46252)"><stop offset=".185" stop-color="#F19B3D"/><stop offset="1" stop-color="#F19B3D" stop-opacity="0"/></radialGradient><linearGradient id="a" x1="8.781" y1="8.905" x2="4.049" y2="11.593" gradientUnits="userSpaceOnUse"><stop stop-color="#FFB438"/><stop offset="1" stop-color="#F1A530"/></linearGradient><linearGradient id="g" x1="12.267" y1="9.906" x2="14.267" y2="10.406" gradientUnits="userSpaceOnUse"><stop offset=".316" stop-color="#FFB032"/><stop offset="1" stop-color="#FFC946" stop-opacity="0"/></linearGradient><linearGradient id="i" x1="18.378" y1="3.855" x2="11.936" y2="8.217" gradientUnits="userSpaceOnUse"><stop stop-color="#FFBC32"/><stop offset="1" stop-color="#F0A42F"/></linearGradient><linearGradient id="k" x1="15.848" y1="3.514" x2="17.159" y2="4.77" gradientUnits="userSpaceOnUse"><stop stop-color="#C7A357"/><stop offset=".851" stop-color="#FFC42D" stop-opacity="0"/></linearGradient><linearGradient id="m" x1="16.812" y1="7.143" x2="16.466" y2="6.546" gradientUnits="userSpaceOnUse"><stop stop-color="#F19B3A"/><stop offset="1" stop-color="#F19B3A" stop-opacity="0"/></linearGradient><linearGradient id="o" x1="17.525" y1="2.814" x2="11.091" y2="6.986" gradientUnits="userSpaceOnUse"><stop stop-color="#FFBC32"/><stop offset="1" stop-color="#F0A42F"/></linearGradient><linearGradient id="q" x1="15.065" y1="2.468" x2="16.393" y2="3.687" gradientUnits="userSpaceOnUse"><stop stop-color="#C7A357"/><stop offset=".851" stop-color="#FFC42D" stop-opacity="0"/></linearGradient><linearGradient id="s" x1="16.002" y1="6.155" x2="15.643" y2="5.562" gradientUnits="userSpaceOnUse"><stop stop-color="#F19B3A"/><stop offset="1" stop-color="#F19B3A" stop-opacity="0"/></linearGradient><linearGradient id="v" x1="12.471" y1="7.046" x2="12.143" y2="6.499" gradientUnits="userSpaceOnUse"><stop offset=".189" stop-color="#F09A35"/><stop offset="1" stop-color="#F09A35" stop-opacity="0"/></linearGradient><linearGradient id="y" x1="11.361" y1="3.53" x2="12.377" y2="4.624" gradientUnits="userSpaceOnUse"><stop offset=".048" stop-color="#C6A253"/><stop offset="1" stop-color="#FFBD38" stop-opacity="0"/></linearGradient><linearGradient id="B" x1="11.299" y1="4.811" x2="2.134" y2="10.749" gradientUnits="userSpaceOnUse"><stop stop-color="#FFBC32"/><stop offset="1" stop-color="#F0A42F"/></linearGradient><filter id="f" x="11.259" y="5.645" width="6.439" height="5.409" filterUnits="userSpaceOnUse" color-interpolation-filters="sRGB"><feFlood flood-opacity="0" result="BackgroundImageFix"/><feBlend in="SourceGraphic" in2="BackgroundImageFix" result="shape"/><feColorMatrix in="SourceAlpha" values="0 0 0 0 0 0 0 0 0 0 0 0 0 0 0 0 0 0 127 0" result="hardAlpha"/><feOffset dx=".1" dy="-.3"/><feGaussianBlur stdDeviation=".25"/><feComposite in2="hardAlpha" operator="arithmetic" k2="-1" k3="1"/><feColorMatrix values="0 0 0 0 0.960784 0 0 0 0 0.635294 0 0 0 0 0.203922 0 0 0 1 0"/><feBlend in2="shape" result="effect1_innerShadow_14396_1026"/><feColorMatrix in="SourceAlpha" values="0 0 0 0 0 0 0 0 0 0 0 0 0 0 0 0 0 0 127 0" result="hardAlpha"/><feOffset dx=".2" dy="-.1"/><feGaussianBlur stdDeviation=".1"/><feComposite in2="hardAlpha" operator="arithmetic" k2="-1" k3="1"/><feColorMatrix values="0 0 0 0 0.811765 0 0 0 0 0.541176 0 0 0 0 0.258824 0 0 0 1 0"/><feBlend in2="effect1_innerShadow_14396_1026" result="effect2_innerShadow_14396_1026"/></filter><filter id="A" x="2.134" y="3.594" width="10.41" height="8.555" filterUnits="userSpaceOnUse" color-interpolation-filters="sRGB"><feFlood flood-opacity="0" result="BackgroundImageFix"/><feBlend in="SourceGraphic" in2="BackgroundImageFix" result="shape"/><feColorMatrix in="SourceAlpha" values="0 0 0 0 0 0 0 0 0 0 0 0 0 0 0 0 0 0 127 0" result="hardAlpha"/><feOffset dx=".25" dy=".15"/><feGaussianBlur stdDeviation=".25"/><feComposite in2="hardAlpha" operator="arithmetic" k2="-1" k3="1"/><feColorMatrix values="0 0 0 0 0.780392 0 0 0 0 0.654902 0 0 0 0 0.345098 0 0 0 1 0"/><feBlend in2="shape" result="effect1_innerShadow_14396_1026"/></filter></defs></svg>