<svg width="32" height="32" fill="none" xmlns="http://www.w3.org/2000/svg"><path d="M8 6s-2.392-.733-3.542-2.773c-.28-.51-.6 0-.6 0S1.85 7 4 11c.26.69 1.51 1 2.5 1 1.79 0 3.108-1.533 3.108-3.313C9.618 7.467 9.08 6.36 8 6z" fill="url(#a)"/><path d="M24.006 6s2.392-.733 3.542-2.773c.28-.51.6 0 .6 0S30.156 7 28.006 11c-.26.69-1.51 1-2.5 1-1.79 0-3.108-1.533-3.108-3.313-.01-1.22.528-2.327 1.608-2.687z" fill="url(#b)"/><path d="M24.006 6s2.392-.733 3.542-2.773c.28-.51.6 0 .6 0S30.156 7 28.006 11c-.26.69-1.51 1-2.5 1-1.79 0-3.108-1.533-3.108-3.313-.01-1.22.528-2.327 1.608-2.687z" fill="url(#c)"/><defs><radialGradient id="a" cx="0" cy="0" r="1" gradientUnits="userSpaceOnUse" gradientTransform="rotate(165.379 5.904 1.52) scale(11.8849)"><stop offset=".473" stop-color="#8649AC"/><stop offset=".645" stop-color="#AE7CC7"/><stop offset=".759" stop-color="#9353B3"/><stop offset=".946" stop-color="#733295"/></radialGradient><radialGradient id="b" cx="0" cy="0" r="1" gradientUnits="userSpaceOnUse" gradientTransform="matrix(16.99996 -2.5 2.5 16.99996 15 5)"><stop offset=".473" stop-color="#613184"/><stop offset=".727" stop-color="#9353B8"/><stop offset=".946" stop-color="#792F9F"/></radialGradient><radialGradient id="c" cx="0" cy="0" r="1" gradientUnits="userSpaceOnUse" gradientTransform="matrix(-3.49999 14.99998 -5.14234 -1.19988 28 4.5)"><stop stop-color="#B676D6"/><stop offset=".305" stop-color="#B676D6" stop-opacity="0"/></radialGradient></defs></svg>