<svg width="32" height="32" fill="none" xmlns="http://www.w3.org/2000/svg"><path d="M29.998 15.999c0 7.731-4.665 13.999-14 13.999C6.665 29.998 2 23.73 2 15.998c0-.676.036-1.343.107-1.994 12.479.405 22.553-6.32 24.538-7.743 2.235 2.52 3.353 5.954 3.353 9.738z" fill="url(#a)" style="mix-blend-mode:multiply"/><path d="M2.107 14.004c12.479.405 22.553-6.32 24.538-7.742C24.313 3.633 20.765 2 15.999 2 7.482 2 2.853 7.217 2.107 14.004z" fill="url(#b)"/><path d="M2.107 14.004c12.479.405 22.553-6.32 24.538-7.742C24.313 3.633 20.765 2 15.999 2 7.482 2 2.853 7.217 2.107 14.004z" fill="url(#c)"/><path d="M26.645 6.262c-1.985 1.422-12.059 8.147-24.538 7.742.176-1.597.566-3.107 1.172-4.482 6.114.38 13.995-1.945 18.856-6.418 1.819.738 3.322 1.819 4.51 3.158z" fill="url(#d)" fill-opacity=".5" style="mix-blend-mode:multiply"/><path d="M22.135 3.104C20.382 2.394 18.337 2 15.999 2 9.486 2 5.247 5.051 3.279 9.522c6.114.38 13.995-1.945 18.856-6.418z" fill="url(#e)" fill-opacity=".75" style="mix-blend-mode:multiply"/><path d="M17.152 6.507c-.617.313-1.249.604-1.893.87-1.28-.845-3.236-1.469-4.915-1.69-1-.131-3.102-.27-4.245-.193.398-.373.825-.722 1.281-1.042a29.055 29.055 0 0 1 3.86.24c2.039.268 4.236.804 5.912 1.815z" fill="url(#f)"/><path d="M17.152 6.507c-.617.313-1.249.604-1.893.87-1.28-.845-3.236-1.469-4.915-1.69-1-.131-3.102-.27-4.245-.193.398-.373.825-.722 1.281-1.042a29.055 29.055 0 0 1 3.86.24c2.039.268 4.236.804 5.912 1.815z" fill="url(#g)" fill-opacity=".6" style="mix-blend-mode:multiply"/><path fill-rule="evenodd" clip-rule="evenodd" d="M15.999 2c2.338 0 4.383.393 6.136 1.104-1.44 1.326-3.146 2.463-4.993 3.397-1.675-1.008-3.867-1.542-5.902-1.81a29.056 29.056 0 0 0-3.86-.24C9.58 2.906 12.452 2 16 2z" fill="url(#h)"/><defs><radialGradient id="a" cx="0" cy="0" r="1" gradientUnits="userSpaceOnUse" gradientTransform="matrix(4 12.24997 -35.0162 11.4339 8.563 8.187)"><stop offset=".151" stop-color="#CB5C10"/><stop offset=".659" stop-color="#CB5C10" stop-opacity="0"/></radialGradient><radialGradient id="b" cx="0" cy="0" r="1" gradientUnits="userSpaceOnUse" gradientTransform="matrix(-16.50002 7.50003 -15.30867 -33.679 22 5)"><stop stop-color="#FFFEFF"/><stop offset="1" stop-color="#DEB6D4"/></radialGradient><radialGradient id="c" cx="0" cy="0" r="1" gradientUnits="userSpaceOnUse" gradientTransform="matrix(-1.876 -10.6875 18.89029 -3.31584 14.376 13.25)"><stop offset=".803" stop-color="#D4CDCC" stop-opacity="0"/><stop offset="1" stop-color="#D4CDCC"/></radialGradient><radialGradient id="d" cx="0" cy="0" r="1" gradientUnits="userSpaceOnUse" gradientTransform="matrix(1.125 7.00029 -14.0745 2.26188 11.688 1.563)"><stop offset=".842" stop-color="#BEBAB9"/><stop offset="1" stop-color="#D4CDCC" stop-opacity="0"/></radialGradient><radialGradient id="e" cx="0" cy="0" r="1" gradientUnits="userSpaceOnUse" gradientTransform="matrix(1.875 6.375 -16.02764 4.714 9.875 2.75)"><stop offset=".803" stop-color="#D4CDCC" stop-opacity="0"/><stop offset="1" stop-color="#D4CDCC"/></radialGradient><radialGradient id="f" cx="0" cy="0" r="1" gradientUnits="userSpaceOnUse" gradientTransform="matrix(-1.443 4.03124 -81.22537 -29.0749 13.125 3.688)"><stop stop-color="#C4B0C9"/><stop offset=".547" stop-color="#C4B0C9" stop-opacity="0"/><stop offset="1" stop-color="#C4B0C9" stop-opacity="0"/></radialGradient><radialGradient id="g" cx="0" cy="0" r="1" gradientUnits="userSpaceOnUse" gradientTransform="matrix(-1.35935 3.07813 -20.59192 -9.09371 15.344 2.625)"><stop offset=".842" stop-color="#BEBAB9"/><stop offset="1" stop-color="#D4CDCC" stop-opacity="0"/></radialGradient><radialGradient id="h" cx="0" cy="0" r="1" gradientUnits="userSpaceOnUse" gradientTransform="rotate(-71.565 12.612 -7.215) scale(7.41159 27.7885)"><stop offset=".067" stop-color="#C4B0C9"/><stop offset=".323" stop-color="#C4B0C9" stop-opacity="0"/></radialGradient></defs></svg>