<svg width="32" height="32" fill="none" xmlns="http://www.w3.org/2000/svg"><g clip-path="url(#a)"><circle cx="29" cy="27" r="7" fill="url(#b)"/><g filter="url(#c)"><path fill-rule="evenodd" clip-rule="evenodd" d="M26.114 20.62A6.976 6.976 0 0 1 29 20a6.998 6.998 0 0 1 6.135 3.627 5.502 5.502 0 0 1-9.021-3.007z" fill="#BAA6BA"/></g><circle cx="32.5" cy="19.5" r="5.5" fill="url(#d)"/><g filter="url(#e)"><circle cx="32.5" cy="19.5" r="5.25" stroke="url(#f)" stroke-width=".5"/></g><circle cx="6" cy="28" r="8" fill="url(#g)"/><g filter="url(#h)"><path fill-rule="evenodd" clip-rule="evenodd" d="M10.84 29.218a4.5 4.5 0 1 1 8.467-3.026 8.5 8.5 0 1 1-8.467 3.026z" fill="#AC8CC6"/></g><circle cx="15.5" cy="25.5" r="4.5" fill="url(#i)"/><circle cx=".5" cy="20.5" r="5.5" fill="url(#j)"/><g filter="url(#k)"><circle cx=".5" cy="20.5" r="5.25" stroke="url(#l)" stroke-width=".5"/></g><circle cx="19.5" cy="32.5" r="8.5" fill="url(#m)"/><circle cx="29" cy="4" r="7" fill="url(#n)"/><circle cx="6.5" cy="2.5" r="7.5" fill="url(#o)"/><g filter="url(#p)"><path fill-rule="evenodd" clip-rule="evenodd" d="M12.334 6.37A6.968 6.968 0 0 0 13.5 2.5a6.967 6.967 0 0 0-.947-3.518L11-.5c.667.5 1.9 2 1.5 4-.264 1.319-.252 2.275-.166 2.87z" fill="#9A7FA9"/></g><g filter="url(#q)"><path fill-rule="evenodd" clip-rule="evenodd" d="M35.685 6.082a7.003 7.003 0 0 1-8.78 4.599 8.5 8.5 0 0 1 8.78-4.599z" fill="#BAA8C4"/></g><circle cx="36.5" cy="11.5" r="8.5" fill="url(#r)"/><circle opacity=".08" cx="36.5" cy="11.5" r="8.375" stroke="url(#s)" stroke-width=".25"/><g filter="url(#t)"><circle cx="36.5" cy="11.5" r="8.25" stroke="url(#u)" stroke-width=".5"/></g><circle cx="19.5" cy="-.5" r="6.5" fill="url(#v)"/><circle cx="-2" cy="10" r="7" fill="url(#w)"/><g opacity=".8" filter="url(#x)"><circle cx="3" cy="6" r="3" fill="#fff"/></g><g opacity=".8" filter="url(#y)"><ellipse cx="27.136" cy="29.507" rx="2" ry="3.525" transform="rotate(-15 27.136 29.507)" fill="#fff"/></g><g filter="url(#z)"><ellipse cx=".5" cy="26" rx="2.5" ry="1" fill="#AC84D3"/></g></g><defs><filter id="c" x="24.114" y="18" width="13.021" height="9" filterUnits="userSpaceOnUse" color-interpolation-filters="sRGB"><feFlood flood-opacity="0" result="BackgroundImageFix"/><feBlend in="SourceGraphic" in2="BackgroundImageFix" result="shape"/><feGaussianBlur stdDeviation="1" result="effect1_foregroundBlur_30_40"/></filter><filter id="e" x="25.5" y="12.5" width="14" height="14" filterUnits="userSpaceOnUse" color-interpolation-filters="sRGB"><feFlood flood-opacity="0" result="BackgroundImageFix"/><feBlend in="SourceGraphic" in2="BackgroundImageFix" result="shape"/><feGaussianBlur stdDeviation=".75" result="effect1_foregroundBlur_30_40"/></filter><filter id="h" x="7" y="21" width="21" height="24" filterUnits="userSpaceOnUse" color-interpolation-filters="sRGB"><feFlood flood-opacity="0" result="BackgroundImageFix"/><feBlend in="SourceGraphic" in2="BackgroundImageFix" result="shape"/><feGaussianBlur stdDeviation="1" result="effect1_foregroundBlur_30_40"/></filter><filter id="k" x="-5.5" y="14.5" width="12" height="12" filterUnits="userSpaceOnUse" color-interpolation-filters="sRGB"><feFlood flood-opacity="0" result="BackgroundImageFix"/><feBlend in="SourceGraphic" in2="BackgroundImageFix" result="shape"/><feGaussianBlur stdDeviation=".25" result="effect1_foregroundBlur_30_40"/></filter><filter id="p" x="9" y="-3.018" width="6.5" height="11.387" filterUnits="userSpaceOnUse" color-interpolation-filters="sRGB"><feFlood flood-opacity="0" result="BackgroundImageFix"/><feBlend in="SourceGraphic" in2="BackgroundImageFix" result="shape"/><feGaussianBlur stdDeviation="1" result="effect1_foregroundBlur_30_40"/></filter><filter id="q" x="24.904" y="4" width="12.781" height="9" filterUnits="userSpaceOnUse" color-interpolation-filters="sRGB"><feFlood flood-opacity="0" result="BackgroundImageFix"/><feBlend in="SourceGraphic" in2="BackgroundImageFix" result="shape"/><feGaussianBlur stdDeviation="1" result="effect1_foregroundBlur_30_40"/></filter><filter id="t" x="26.5" y="1.5" width="20" height="20" filterUnits="userSpaceOnUse" color-interpolation-filters="sRGB"><feFlood flood-opacity="0" result="BackgroundImageFix"/><feBlend in="SourceGraphic" in2="BackgroundImageFix" result="shape"/><feGaussianBlur stdDeviation=".75" result="effect1_foregroundBlur_30_40"/></filter><filter id="x" x="-3" y="0" width="12" height="12" filterUnits="userSpaceOnUse" color-interpolation-filters="sRGB"><feFlood flood-opacity="0" result="BackgroundImageFix"/><feBlend in="SourceGraphic" in2="BackgroundImageFix" result="shape"/><feGaussianBlur stdDeviation="1.5" result="effect1_foregroundBlur_30_40"/></filter><filter id="y" x="21.999" y="23.063" width="10.274" height="12.889" filterUnits="userSpaceOnUse" color-interpolation-filters="sRGB"><feFlood flood-opacity="0" result="BackgroundImageFix"/><feBlend in="SourceGraphic" in2="BackgroundImageFix" result="shape"/><feGaussianBlur stdDeviation="1.5" result="effect1_foregroundBlur_30_40"/></filter><filter id="z" x="-4" y="23" width="9" height="6" filterUnits="userSpaceOnUse" color-interpolation-filters="sRGB"><feFlood flood-opacity="0" result="BackgroundImageFix"/><feBlend in="SourceGraphic" in2="BackgroundImageFix" result="shape"/><feGaussianBlur stdDeviation="1" result="effect1_foregroundBlur_30_40"/></filter><radialGradient id="b" cx="0" cy="0" r="1" gradientUnits="userSpaceOnUse" gradientTransform="matrix(0 8 -8 0 29 27)"><stop stop-color="#F4ECFD"/><stop offset="1" stop-color="#C3B7C1"/></radialGradient><radialGradient id="f" cx="0" cy="0" r="1" gradientUnits="userSpaceOnUse" gradientTransform="rotate(-56.31 36.456 -14.883) scale(4.66601)"><stop stop-color="#fff"/><stop offset="1" stop-color="#fff" stop-opacity="0"/></radialGradient><radialGradient id="i" cx="0" cy="0" r="1" gradientUnits="userSpaceOnUse" gradientTransform="matrix(-8 3 -3 -8 17.5 24)"><stop offset=".118" stop-color="#E9E1F0"/><stop offset="1" stop-color="#BBA2D3"/></radialGradient><radialGradient id="l" cx="0" cy="0" r="1" gradientUnits="userSpaceOnUse" gradientTransform="matrix(-3 -3 2.0999 -2.0999 5.5 23.5)"><stop stop-color="#fff"/><stop offset="1" stop-color="#fff" stop-opacity="0"/></radialGradient><radialGradient id="n" cx="0" cy="0" r="1" gradientUnits="userSpaceOnUse" gradientTransform="matrix(-3.99992 10.50003 -17.75364 -6.76313 30 2)"><stop offset=".133" stop-color="#F4EFFB"/><stop offset="1" stop-color="#B499C0"/></radialGradient><radialGradient id="o" cx="0" cy="0" r="1" gradientUnits="userSpaceOnUse" gradientTransform="rotate(53.842 2.985 3.439) scale(16.1012)"><stop offset=".185" stop-color="#DDDBE0"/><stop offset=".571" stop-color="#D4C3E1"/><stop offset=".82" stop-color="#B897CD"/></radialGradient><radialGradient id="s" cx="0" cy="0" r="1" gradientUnits="userSpaceOnUse" gradientTransform="matrix(4 -6 6 4 30.5 18)"><stop stop-color="#fff"/><stop offset="1" stop-color="#fff" stop-opacity="0"/></radialGradient><radialGradient id="u" cx="0" cy="0" r="1" gradientUnits="userSpaceOnUse" gradientTransform="matrix(4 -6 6 4 30.5 18)"><stop stop-color="#fff"/><stop offset="1" stop-color="#fff" stop-opacity="0"/></radialGradient><radialGradient id="v" cx="0" cy="0" r="1" gradientUnits="userSpaceOnUse" gradientTransform="matrix(-8 8 -8 -8 25 -.5)"><stop stop-color="#FFFDFF"/><stop offset=".556" stop-color="#D4CDDB"/><stop offset="1" stop-color="#C1AFD1"/></radialGradient><linearGradient id="d" x1="32.5" y1="14" x2="32.5" y2="25" gradientUnits="userSpaceOnUse"><stop stop-color="#BCB1C1"/><stop offset="1" stop-color="#C8B3DF"/></linearGradient><linearGradient id="g" x1="6" y1="20" x2="6" y2="36" gradientUnits="userSpaceOnUse"><stop stop-color="#F0E2F0"/><stop offset="1" stop-color="#D4C4E4"/></linearGradient><linearGradient id="j" x1=".5" y1="16.179" x2="-3" y2="25.5" gradientUnits="userSpaceOnUse"><stop stop-color="#FCFBFD"/><stop offset="1" stop-color="#BC96E3"/></linearGradient><linearGradient id="m" x1="26" y1="30.5" x2="13" y2="34" gradientUnits="userSpaceOnUse"><stop stop-color="#FFFCFF"/><stop offset="1" stop-color="#D3C5E0"/></linearGradient><linearGradient id="r" x1="36.5" y1="3" x2="36.5" y2="20" gradientUnits="userSpaceOnUse"><stop stop-color="#EBE9ED"/><stop offset="1" stop-color="#BDA7D3"/></linearGradient><linearGradient id="w" x1="-2" y1="4.5" x2="-2" y2="17" gradientUnits="userSpaceOnUse"><stop stop-color="#FCFBFD"/><stop offset="1" stop-color="#BC96E3"/></linearGradient><clipPath id="a"><rect width="32" height="32" rx="4" fill="#fff"/></clipPath></defs></svg>