<svg width="32" height="32" fill="none" xmlns="http://www.w3.org/2000/svg"><mask id="c" fill="#fff"><path fill-rule="evenodd" clip-rule="evenodd" d="M17.67 16.92a1 1 0 1 0 0 2 .52.52 0 1 1 0 1.04 1 1 0 1 0 0 2 .52.52 0 1 1 0 1.04 1 1 0 1 0 0 2 2.52 2.52 0 0 0 2.01-4.04 2.52 2.52 0 0 0-2.01-4.04z"/></mask><path fill-rule="evenodd" clip-rule="evenodd" d="M17.67 16.92a1 1 0 1 0 0 2 .52.52 0 1 1 0 1.04 1 1 0 1 0 0 2 .52.52 0 1 1 0 1.04 1 1 0 1 0 0 2 2.52 2.52 0 0 0 2.01-4.04 2.52 2.52 0 0 0-2.01-4.04z" fill="url(#a)"/><path d="m19.68 20.96-.398-.302-.229.302.229.302.398-.302zm-2.51-3.04a.5.5 0 0 1 .5-.5v-1a1.5 1.5 0 0 0-1.5 1.5h1zm.5.5a.5.5 0 0 1-.5-.5h-1a1.5 1.5 0 0 0 1.5 1.5v-1zm1.02 1.02a1.02 1.02 0 0 0-1.02-1.02v1a.02.02 0 0 1 .02.02h1zm-1.02 1.02a1.02 1.02 0 0 0 1.02-1.02h-1a.02.02 0 0 1-.02.02v1zm-.5.5a.5.5 0 0 1 .5-.5v-1a1.5 1.5 0 0 0-1.5 1.5h1zm0 0h-1 1zm.5.5a.5.5 0 0 1-.5-.5h-1a1.5 1.5 0 0 0 1.5 1.5v-1zm1.02 1.02a1.02 1.02 0 0 0-1.02-1.02v1a.02.02 0 0 1 .02.02h1zm-1.02 1.02a1.02 1.02 0 0 0 1.02-1.02h-1a.02.02 0 0 1-.02.02v1zm-.5.5a.5.5 0 0 1 .5-.5v-1a1.5 1.5 0 0 0-1.5 1.5h1zm.5.5a.5.5 0 0 1-.5-.5h-1a1.5 1.5 0 0 0 1.5 1.5v-1zm2.02-2.02a2.02 2.02 0 0 1-2.02 2.02v1a3.02 3.02 0 0 0 3.02-3.02h-1zm-.408-1.218c.256.338.408.76.408 1.218h1a3.01 3.01 0 0 0-.611-1.822l-.797.604zm.408-1.822c0 .458-.152.88-.408 1.218l.797.604a3.01 3.01 0 0 0 .61-1.822h-1zm-2.02-2.02a2.02 2.02 0 0 1 2.02 2.02h1a3.02 3.02 0 0 0-3.02-3.02v1z" fill="url(#b)" mask="url(#c)"/><defs><radialGradient id="a" cx="0" cy="0" r="1" gradientUnits="userSpaceOnUse" gradientTransform="matrix(6.33008 0 0 7.26524 16.67 20.96)"><stop stop-color="#3E3537"/><stop offset=".313" stop-color="#523A4F"/><stop offset=".676" stop-color="#6A5763"/></radialGradient><linearGradient id="b" x1="19" y1="21" x2="20.5" y2="20.5" gradientUnits="userSpaceOnUse"><stop stop-color="#664F62" stop-opacity="0"/><stop offset="1" stop-color="#765D72"/></linearGradient></defs></svg>