<svg width="32" height="32" fill="none" xmlns="http://www.w3.org/2000/svg"><rect x="8" y="19" width="16" height="6" rx="3" fill="url(#a)"/><path fill-rule="evenodd" clip-rule="evenodd" d="M23 19.764v.736a1 1 0 0 1-1 1H10a1 1 0 0 1-1-1v-.736A2.989 2.989 0 0 1 11 19h10c.768 0 1.47.289 2 .764z" fill="url(#b)"/><path fill-rule="evenodd" clip-rule="evenodd" d="M23 19.764v.736a1 1 0 0 1-1 1H10a1 1 0 0 1-1-1v-.736A2.989 2.989 0 0 1 11 19h10c.768 0 1.47.289 2 .764z" fill="url(#c)"/><path fill-rule="evenodd" clip-rule="evenodd" d="M23 24.236A2.989 2.989 0 0 1 21 25H11c-.768 0-1.47-.289-2-.764V23.5a1 1 0 0 1 1-1h12a1 1 0 0 1 1 1v.736z" fill="url(#d)"/><defs><radialGradient id="a" cx="0" cy="0" r="1" gradientUnits="userSpaceOnUse" gradientTransform="matrix(0 -7.5 20 0 16 25)"><stop stop-color="#F70A8D"/><stop offset="1" stop-color="#89029C"/></radialGradient><radialGradient id="b" cx="0" cy="0" r="1" gradientUnits="userSpaceOnUse" gradientTransform="rotate(141.546 7 12.536) scale(8.44211 8.28716)"><stop stop-color="#fff"/><stop offset="1" stop-color="#ECCDFF"/></radialGradient><radialGradient id="d" cx="0" cy="0" r="1" gradientUnits="userSpaceOnUse" gradientTransform="rotate(141.546 6.39 14.286) scale(8.44211 8.28716)"><stop stop-color="#fff"/><stop offset="1" stop-color="#ECCDFF"/></radialGradient><linearGradient id="c" x1="16" y1="21" x2="16" y2="21.75" gradientUnits="userSpaceOnUse"><stop stop-color="#E181F4" stop-opacity="0"/><stop offset="1" stop-color="#E181F4"/></linearGradient></defs></svg>