<svg width="32" height="32" fill="none" xmlns="http://www.w3.org/2000/svg"><path d="M6 24.5 7.5 23l3.5 3.5L9.5 28 6 24.5z" fill="url(#a)"/><path d="m11 24.5 2-2 3.5 3.5-2 2-3.5-3.5z" fill="url(#b)"/><path d="m17 24.5 2-2 3.5 3.5-2 2-3.5-3.5z" fill="url(#c)"/><path d="m8 23 2 2 3-3 3 3 3-3 3 3 2-2" stroke="#402A32" stroke-width="2" stroke-linecap="round" stroke-linejoin="round"/><ellipse cx="14.39" cy="22.89" rx=".5" ry="2.173" transform="rotate(-45 14.39 22.89)" fill="url(#d)"/><ellipse cx="8.84" cy="23.34" rx=".5" ry="1.537" transform="rotate(-45 8.84 23.34)" fill="url(#e)"/><ellipse cx="20.39" cy="22.89" rx=".5" ry="2.173" transform="rotate(-45 20.39 22.89)" fill="url(#f)"/><ellipse cx="24.32" cy="22.613" rx=".5" ry=".66" transform="rotate(-45 24.32 22.613)" fill="url(#g)"/><defs><radialGradient id="a" cx="0" cy="0" r="1" gradientUnits="userSpaceOnUse" gradientTransform="matrix(-2.91352 3.12262 -2.16535 -2.02036 11 23)"><stop stop-color="#C20AA5"/><stop offset="1" stop-color="#C20A78" stop-opacity="0"/></radialGradient><radialGradient id="b" cx="0" cy="0" r="1" gradientUnits="userSpaceOnUse" gradientTransform="matrix(-2.50002 3.49998 -4.11839 -2.94174 15.5 22)"><stop stop-color="#C20AA5"/><stop offset="1" stop-color="#C20A78" stop-opacity="0"/></radialGradient><radialGradient id="c" cx="0" cy="0" r="1" gradientUnits="userSpaceOnUse" gradientTransform="matrix(-2.50002 3.49998 -4.11839 -2.94174 21.5 22)"><stop stop-color="#C20AA5"/><stop offset="1" stop-color="#C20A78" stop-opacity="0"/></radialGradient><radialGradient id="d" cx="0" cy="0" r="1" gradientUnits="userSpaceOnUse" gradientTransform="matrix(0 2.17277 -.5 0 14.428 22.89)"><stop stop-color="#4F3C43"/><stop offset="1" stop-color="#4F3C43" stop-opacity="0"/></radialGradient><radialGradient id="e" cx="0" cy="0" r="1" gradientUnits="userSpaceOnUse" gradientTransform="matrix(0 1.53672 -.5 0 8.878 23.34)"><stop stop-color="#4F3C43"/><stop offset="1" stop-color="#4F3C43" stop-opacity="0"/></radialGradient><radialGradient id="f" cx="0" cy="0" r="1" gradientUnits="userSpaceOnUse" gradientTransform="matrix(0 2.17277 -.5 0 20.428 22.89)"><stop stop-color="#4F3C43"/><stop offset="1" stop-color="#4F3C43" stop-opacity="0"/></radialGradient><radialGradient id="g" cx="0" cy="0" r="1" gradientUnits="userSpaceOnUse" gradientTransform="matrix(0 .6597 -.5 0 24.358 22.613)"><stop stop-color="#4F3C43"/><stop offset="1" stop-color="#4F3C43" stop-opacity="0"/></radialGradient></defs></svg>