<svg width="32" height="32" fill="none" xmlns="http://www.w3.org/2000/svg"><path d="M8 17.562a2 2 0 0 1 1.515-1.94l4.545-1.137a8 8 0 0 1 3.88 0l4.545 1.136A2 2 0 0 1 24 17.561v6.053a2 2 0 0 1-1.298 1.873l-1.084.406a16 16 0 0 1-11.236 0l-1.084-.406A2 2 0 0 1 8 23.614v-6.052z" fill="url(#a)"/><path fill-rule="evenodd" clip-rule="evenodd" d="M3.523 23H9v-1H3.08c.135.341.283.675.443 1z" fill="url(#b)"/><path fill-rule="evenodd" clip-rule="evenodd" d="m2.167 13.523 6.063 3.898.54-.842-6.419-4.126a16.4 16.4 0 0 0-.184 1.07z" fill="url(#c)"/><path fill-rule="evenodd" clip-rule="evenodd" d="M29.647 12.454 23.23 16.58l.54.842 6.06-3.896c-.05-.362-.11-.72-.183-1.07z" fill="url(#d)"/><path fill-rule="evenodd" clip-rule="evenodd" d="M28.918 22H24v1h4.475c.16-.325.308-.659.443-1z" fill="url(#e)"/><defs><linearGradient id="a" x1="8.5" y1="23.5" x2="24" y2="17" gradientUnits="userSpaceOnUse"><stop stop-color="#DFB6FF"/><stop offset="1" stop-color="#F3EFF9"/></linearGradient><linearGradient id="b" x1="3" y1="22.5" x2="8" y2="22.5" gradientUnits="userSpaceOnUse"><stop stop-color="#BB8FC3"/><stop offset="1" stop-color="#E1BBFF"/></linearGradient><linearGradient id="c" x1="1.5" y1="12.5" x2="8.5" y2="17" gradientUnits="userSpaceOnUse"><stop stop-color="#D5A4A9"/><stop offset="1" stop-color="#E3C1FF"/></linearGradient><linearGradient id="d" x1="24" y1="16.5" x2="30.5" y2="12.5" gradientUnits="userSpaceOnUse"><stop stop-color="#F3EDFA"/><stop offset="1" stop-color="#D7D7D7"/></linearGradient><linearGradient id="e" x1="30" y1="22.5" x2="25" y2="22.5" gradientUnits="userSpaceOnUse"><stop stop-color="#E1CCF6"/><stop offset="1" stop-color="#F1E7FA"/></linearGradient></defs></svg>