<svg width="32" height="32" fill="none" xmlns="http://www.w3.org/2000/svg"><path d="M15.999 26c-7 0-7-7-7-7h14s0 7-7 7z" fill="url(#a)"/><g filter="url(#b)"><path d="M16.015 31c5 0 4.87-6.2 5-7.25.1-.85-.35-1.28-.84-1.57-.49-.29-1.96-.56-4.16-.56s-3.66.27-4.16.56c-.5.29-.95.72-.84 1.57.13 1.05 0 7.25 5 7.25z" fill="url(#c)"/></g><g opacity=".5" filter="url(#d)"><path d="M18 26.5c1-.5 2-1.5 2-3" stroke="#71FCB2"/></g><path d="M22.859 20.43c.09-.46.14-.94.14-1.43h-14c0 .49.05.96.14 1.43h13.72z" fill="url(#e)"/><path fill-rule="evenodd" clip-rule="evenodd" d="M15.849 30.998a2.543 2.543 0 0 1-.914-.314c-1.7-.981-1.926-3.77-.506-6.23.797-1.38 1.943-2.364 3.095-2.787 1.365.09 2.284.295 2.651.513.49.29.94.72.84 1.57a9.433 9.433 0 0 0-.035.449c-.083 1.224-.271 4.033-1.893 5.632-.482.414-1 .73-1.52.933a4.868 4.868 0 0 1-1.718.234z" fill="url(#f)"/><path fill-rule="evenodd" clip-rule="evenodd" d="M16 22.5a.5.5 0 0 1 .5.5v.5a.504.504 0 0 1-.007.083A1.5 1.5 0 0 1 17.5 25a.5.5 0 0 1-1 0 .5.5 0 0 0-.5-.5h-.073a.427.427 0 0 0-.19.809l.974.488a1.427 1.427 0 0 1-.215 2.64c.003.02.004.041.004.063v.5a.5.5 0 0 1-1 0v-.5c0-.028.002-.056.007-.083A1.5 1.5 0 0 1 14.5 27a.5.5 0 0 1 1 0 .5.5 0 0 0 .5.5h.073a.427.427 0 0 0 .19-.809l-.974-.488a1.427 1.427 0 0 1 .215-2.64.514.514 0 0 1-.004-.063V23a.5.5 0 0 1 .5-.5z" fill="#402A32"/><defs><radialGradient id="a" cx="0" cy="0" r="1" gradientUnits="userSpaceOnUse" gradientTransform="matrix(0 -8.55556 17.1111 0 15.999 27.556)"><stop stop-color="#F70A8D"/><stop offset="1" stop-color="#89029C"/></radialGradient><radialGradient id="c" cx="0" cy="0" r="1" gradientUnits="userSpaceOnUse" gradientTransform="matrix(-.5 -10 17.38428 -.86921 16.5 30.5)"><stop stop-color="#56B7B8"/><stop offset=".392" stop-color="#50F099"/><stop offset=".675" stop-color="#45CD7F"/><stop offset=".832" stop-color="#3BA66E"/><stop offset=".886" stop-color="#477063"/></radialGradient><radialGradient id="f" cx="0" cy="0" r="1" gradientUnits="userSpaceOnUse" gradientTransform="matrix(-1.99996 4.50002 -1.9947 -.88651 19 26.5)"><stop stop-color="#72FDB3"/><stop offset=".603" stop-color="#72FDB3" stop-opacity="0"/></radialGradient><filter id="b" x="10.999" y="21.62" width="11.031" height="10.38" filterUnits="userSpaceOnUse" color-interpolation-filters="sRGB"><feFlood flood-opacity="0" result="BackgroundImageFix"/><feBlend in="SourceGraphic" in2="BackgroundImageFix" result="shape"/><feColorMatrix in="SourceAlpha" values="0 0 0 0 0 0 0 0 0 0 0 0 0 0 0 0 0 0 127 0" result="hardAlpha"/><feOffset dx="1" dy="1"/><feGaussianBlur stdDeviation="1"/><feComposite in2="hardAlpha" operator="arithmetic" k2="-1" k3="1"/><feColorMatrix values="0 0 0 0 0 0 0 0 0 0 0 0 0 0 0 0 0 0 0.24 0"/><feBlend in2="shape" result="effect1_innerShadow_922_485"/></filter><filter id="d" x="16.776" y="22.5" width="4.724" height="5.447" filterUnits="userSpaceOnUse" color-interpolation-filters="sRGB"><feFlood flood-opacity="0" result="BackgroundImageFix"/><feBlend in="SourceGraphic" in2="BackgroundImageFix" result="shape"/><feGaussianBlur stdDeviation=".5" result="effect1_foregroundBlur_922_485"/></filter><linearGradient id="e" x1="15.999" y1="19" x2="15.999" y2="20.43" gradientUnits="userSpaceOnUse"><stop stop-color="#ECCDFF"/><stop offset="1" stop-color="#fff"/></linearGradient></defs></svg>