<svg width="32" height="32" fill="none" xmlns="http://www.w3.org/2000/svg"><rect x="8" y="20" width="16" height="8" rx="3" fill="url(#a)"/><g filter="url(#b)"><path d="M27.02 28.03c-3.23 0-5.86-2.22-6.01-4.87L21 20H11l.01 2.92c0 2.76-2.7 5.11-6.03 5.11C3.87 28.03 3 28.89 3 30h26c0-1-.88-1.97-1.98-1.97z" fill="url(#c)"/></g><path d="M5.5 27a1.5 1.5 0 1 0 0-3 1.5 1.5 0 0 0 0 3z" fill="url(#d)"/><path d="M28.75 26.5a.75.75 0 1 0 0-1.5.75.75 0 0 0 0 1.5z" fill="url(#e)"/><path d="M26.5 24a1.5 1.5 0 1 0 0-3 1.5 1.5 0 0 0 0 3z" fill="url(#f)"/><path fill-rule="evenodd" clip-rule="evenodd" d="M26.373 28c.212.02.428.03.647.03 1.1 0 1.98.97 1.98 1.97H16v-2h10.373z" fill="url(#g)"/><path fill-rule="evenodd" clip-rule="evenodd" d="M21.537 25a4.416 4.416 0 0 1-.527-1.84L21 20H11l.01 2.92c0 .735-.191 1.44-.535 2.08h11.062z" fill="url(#h)"/><ellipse cx="19" cy="23.5" rx="2" ry="2.5" fill="url(#i)"/><defs><radialGradient id="a" cx="0" cy="0" r="1" gradientUnits="userSpaceOnUse" gradientTransform="matrix(0 -9.77778 19.5556 0 16 29.778)"><stop stop-color="#F70A8D"/><stop offset="1" stop-color="#89029C"/></radialGradient><radialGradient id="d" cx="0" cy="0" r="1" gradientUnits="userSpaceOnUse" gradientTransform="matrix(-1.5 1.5 -1.5 -1.5 6 25)"><stop stop-color="#6EF3AE"/><stop offset="1" stop-color="#4F9C92"/></radialGradient><radialGradient id="e" cx="0" cy="0" r="1" gradientUnits="userSpaceOnUse" gradientTransform="matrix(-.75 .75 -.75 -.75 29 25.5)"><stop stop-color="#6EF3AE"/><stop offset="1" stop-color="#4F9C92"/></radialGradient><radialGradient id="f" cx="0" cy="0" r="1" gradientUnits="userSpaceOnUse" gradientTransform="matrix(-1.5 1.5 -1.5 -1.5 27 22)"><stop stop-color="#6EF3AE"/><stop offset="1" stop-color="#4F9C92"/></radialGradient><radialGradient id="g" cx="0" cy="0" r="1" gradientUnits="userSpaceOnUse" gradientTransform="matrix(0 .5 -7.29658 0 23 29.5)"><stop stop-color="#71ECB1"/><stop offset="1" stop-color="#72ECB2" stop-opacity="0"/></radialGradient><radialGradient id="h" cx="0" cy="0" r="1" gradientUnits="userSpaceOnUse" gradientTransform="matrix(0 -11 11 0 16 28)"><stop offset=".577" stop-color="#305E5E" stop-opacity="0"/><stop offset="1" stop-color="#2C6664"/></radialGradient><radialGradient id="i" cx="0" cy="0" r="1" gradientUnits="userSpaceOnUse" gradientTransform="matrix(0 2.5 -2 0 19.154 23.5)"><stop stop-color="#6DE6A5"/><stop offset="1" stop-color="#62DB9A" stop-opacity="0"/></radialGradient><linearGradient id="c" x1="15.999" y1="19.5" x2="15.999" y2="30" gradientUnits="userSpaceOnUse"><stop offset=".618" stop-color="#3DD585"/><stop offset=".756" stop-color="#4DC172"/><stop offset=".81" stop-color="#42D681"/><stop offset=".917" stop-color="#42D681"/><stop offset=".978" stop-color="#54CCB0"/></linearGradient><filter id="b" x="3" y="20" width="27" height="11" filterUnits="userSpaceOnUse" color-interpolation-filters="sRGB"><feFlood flood-opacity="0" result="BackgroundImageFix"/><feBlend in="SourceGraphic" in2="BackgroundImageFix" result="shape"/><feColorMatrix in="SourceAlpha" values="0 0 0 0 0 0 0 0 0 0 0 0 0 0 0 0 0 0 127 0" result="hardAlpha"/><feOffset dx="1" dy="1"/><feGaussianBlur stdDeviation="1"/><feComposite in2="hardAlpha" operator="arithmetic" k2="-1" k3="1"/><feColorMatrix values="0 0 0 0 0 0 0 0 0 0 0 0 0 0 0 0 0 0 0.16 0"/><feBlend in2="shape" result="effect1_innerShadow_961_3297"/></filter></defs></svg>