<svg width="32" height="32" fill="none" xmlns="http://www.w3.org/2000/svg"><path d="M11.62 18.5h6.48l5.4 3-3.78 8L10 26l1.62-7.5z" fill="url(#a)"/><path d="M18.368 22.368 15.5 19.5l8-3.5.955 2.292a3.734 3.734 0 0 1-6.087 4.076z" fill="url(#b)"/><path d="M9 16c.5.667 2.5 2.5 7 2.5s6.5-1.833 7-2.5" stroke="url(#c)" stroke-width="2" stroke-linecap="round"/><path fill-rule="evenodd" clip-rule="evenodd" d="m18.175 22.175.193.193a3.734 3.734 0 0 0 6.087-4.076l-.267-.641A3.981 3.981 0 0 0 22 17c-.424 0-.832.066-1.215.188l-.756.33a3.999 3.999 0 0 0-1.854 4.657z" fill="url(#d)"/><defs><radialGradient id="a" cx="0" cy="0" r="1" gradientUnits="userSpaceOnUse" gradientTransform="rotate(129.007 5.449 13.952) scale(7.72137 5.2163)"><stop stop-color="#F63711"/><stop offset="1" stop-color="#E24A2C" stop-opacity="0"/></radialGradient><radialGradient id="c" cx="0" cy="0" r="1" gradientUnits="userSpaceOnUse" gradientTransform="matrix(0 6 -9.18387 0 16 14)"><stop offset=".518" stop-color="#4E2553"/><stop offset=".703" stop-color="#5B4852"/><stop offset="1" stop-color="#4E2553"/><stop offset="1" stop-color="#4E2553"/></radialGradient><radialGradient id="d" cx="0" cy="0" r="1" gradientUnits="userSpaceOnUse" gradientTransform="matrix(1.33333 2 -6 4 22.667 21)"><stop stop-color="#FF7291"/><stop offset="1" stop-color="#FF7291" stop-opacity="0"/></radialGradient><linearGradient id="b" x1="23.5" y1="22.5" x2="20.383" y2="16.006" gradientUnits="userSpaceOnUse"><stop stop-color="#D40F31"/><stop offset=".341" stop-color="#FF2375"/><stop offset="1" stop-color="#FF278E"/></linearGradient></defs></svg>