<svg width="32" height="32" fill="none" xmlns="http://www.w3.org/2000/svg"><rect x="7.25" y="20.25" width="17.5" height="8.5" rx="1.25" fill="url(#a)" stroke="url(#b)" stroke-width=".5"/><rect x="21" y="20" width="4" height="8" rx="1.5" fill="url(#c)"/><path fill-rule="evenodd" clip-rule="evenodd" d="M12.176 22.032a.5.5 0 0 1 .292.644l-.121.324h1.431l.254-.675a.5.5 0 0 1 .936.35l-.121.325H15a.5.5 0 0 1 0 1h-.528l-.375 1h.403a.5.5 0 0 1 0 1h-.778l-.254.676a.5.5 0 0 1-.936-.351l.121-.325h-1.431l-.254.676a.5.5 0 0 1-.936-.351l.121-.325H10a.5.5 0 1 1 0-1h.528l.375-1H10.5a.5.5 0 1 1 0-1h.778l.254-.675a.5.5 0 0 1 .644-.293zM13.403 24l-.375 1h-1.431l.375-1h1.431zm5.565-1.324a.5.5 0 0 0-.936-.351l-1.5 4a.5.5 0 0 0 .936.35l1.5-4zM19 27a.5.5 0 1 0 0-1 .5.5 0 0 0 0 1zm3-4.5a.5.5 0 0 0-1 0v2a.5.5 0 1 0 1 0v-2zm-5.5.5a.5.5 0 1 0 0-1 .5.5 0 0 0 0 1zm5.5 3.5a.5.5 0 1 1-1 0 .5.5 0 0 1 1 0z" fill="#fff"/><defs><linearGradient id="a" x1="16" y1="29" x2="16" y2="26" gradientUnits="userSpaceOnUse"><stop stop-color="#5A2A67"/><stop offset="1" stop-color="#553A55"/></linearGradient><linearGradient id="b" x1="7" y1="20.5" x2="25.5" y2="29" gradientUnits="userSpaceOnUse"><stop stop-color="#463246"/><stop offset="1" stop-color="#463246" stop-opacity="0"/></linearGradient><radialGradient id="c" cx="0" cy="0" r="1" gradientUnits="userSpaceOnUse" gradientTransform="matrix(0 11 -1.33006 0 24 21)"><stop stop-color="#685A60"/><stop offset=".738" stop-color="#685A60" stop-opacity="0"/></radialGradient></defs></svg>