<svg width="32" height="32" fill="none" xmlns="http://www.w3.org/2000/svg"><g filter="url(#a)"><path fill-rule="evenodd" clip-rule="evenodd" d="m27.017 23.526-.405-.798a2.1 2.1 0 0 0-2.692-.986 2.109 2.109 0 0 0-1.182 2.611l.89 2.624a10.96 10.96 0 0 0 3.389-3.45zm-3.308.135a.935.935 0 0 0 1.218.498.915.915 0 0 0 .497-1.218.935.935 0 0 0-1.218-.497.934.934 0 0 0-.497 1.217z" fill="#CC532D"/></g><g opacity=".4" filter="url(#b)"><path fill-rule="evenodd" clip-rule="evenodd" d="M6.5 19.75a1.25 1.25 0 1 1 2.5 0v.75h2.5v-.75a1.25 1.25 0 1 1 2.5 0v.75h2.5v-.75a1.25 1.25 0 1 1 2.5 0v.75h2.5v-.75a1.25 1.25 0 1 1 2.5 0v2.75h-2.5v.75a1.25 1.25 0 1 1-2.5 0v-.75h-2.5v.75a1.25 1.25 0 1 1-2.5 0v-.75h-2.5v.75a1.25 1.25 0 1 1-2.5 0v-.75H6.5v-2.75z" fill="#E4694E"/></g><path d="M7.125 19.25a1.125 1.125 0 0 1 2.25 0v2.625h-2.25V19.25z" fill="url(#c)" stroke="url(#d)" stroke-width=".25"/><path d="M12.125 19.25a1.125 1.125 0 0 1 2.25 0v2.625h-2.25V19.25z" fill="url(#e)" stroke="url(#f)" stroke-width=".25"/><path d="M17.125 19.25a1.125 1.125 0 0 1 2.25 0v2.625h-2.25V19.25z" fill="url(#g)" stroke="url(#h)" stroke-width=".25"/><path d="M22.125 19.25a1.125 1.125 0 0 1 2.25 0v2.625h-2.25V19.25z" fill="url(#i)" stroke="url(#j)" stroke-width=".25"/><path d="M9.625 20.125h2.25v2.625a1.125 1.125 0 0 1-2.25 0v-2.625z" fill="url(#k)" stroke="url(#l)" stroke-width=".25"/><path d="M14.625 20.125h2.25v2.625a1.125 1.125 0 0 1-2.25 0v-2.625z" fill="url(#m)" stroke="url(#n)" stroke-width=".25"/><path d="M19.625 20.125h2.25v2.625a1.125 1.125 0 0 1-2.25 0v-2.625z" fill="url(#o)" stroke="url(#p)" stroke-width=".25"/><path d="M29.19 24.026a1.98 1.98 0 0 1 .11 2.892l-.382.382a1.982 1.982 0 0 1-2.894-.11l-2.42-2.789a1.983 1.983 0 0 1 .1-2.693 1.976 1.976 0 0 1 2.695-.1l2.79 2.418zm-5.132-.462c.41.409 1.082.409 1.492 0a1.04 1.04 0 0 0 0-1.493 1.06 1.06 0 0 0-1.492 0 1.06 1.06 0 0 0 0 1.493z" fill="url(#q)" stroke="url(#r)" stroke-width=".25"/><path fill-rule="evenodd" clip-rule="evenodd" d="M9.25 22v-2h.25v2h-.25zm5 0v-2h.25v2h-.25zm5-2v2h.25v-2h-.25z" fill="#D6A5F5"/><defs><radialGradient id="d" cx="0" cy="0" r="1" gradientUnits="userSpaceOnUse" gradientTransform="matrix(-1.5 1.5 -.9375 -.9375 9.5 18.5)"><stop stop-color="#FFEFFF"/><stop offset="1" stop-color="#FFF2FF" stop-opacity="0"/></radialGradient><radialGradient id="f" cx="0" cy="0" r="1" gradientUnits="userSpaceOnUse" gradientTransform="matrix(-1.5 1.5 -.9375 -.9375 14.5 18.5)"><stop stop-color="#FFEFFF"/><stop offset="1" stop-color="#FFF2FF" stop-opacity="0"/></radialGradient><radialGradient id="h" cx="0" cy="0" r="1" gradientUnits="userSpaceOnUse" gradientTransform="matrix(-1.5 1.5 -.9375 -.9375 19.5 18.5)"><stop stop-color="#FFEFFF"/><stop offset="1" stop-color="#FFF2FF" stop-opacity="0"/></radialGradient><radialGradient id="j" cx="0" cy="0" r="1" gradientUnits="userSpaceOnUse" gradientTransform="matrix(-1.5 1.5 -.9375 -.9375 24.5 18.5)"><stop stop-color="#FFEFFF"/><stop offset="1" stop-color="#FFF2FF" stop-opacity="0"/></radialGradient><radialGradient id="l" cx="0" cy="0" r="1" gradientUnits="userSpaceOnUse" gradientTransform="matrix(-1.5 1.5 -.9375 -.9375 12 20.5)"><stop stop-color="#FFEFFF"/><stop offset="1" stop-color="#FFF2FF" stop-opacity="0"/></radialGradient><radialGradient id="n" cx="0" cy="0" r="1" gradientUnits="userSpaceOnUse" gradientTransform="matrix(-1.5 1.5 -.9375 -.9375 17 20.5)"><stop stop-color="#FFEFFF"/><stop offset="1" stop-color="#FFF2FF" stop-opacity="0"/></radialGradient><radialGradient id="p" cx="0" cy="0" r="1" gradientUnits="userSpaceOnUse" gradientTransform="matrix(-1.5 1.5 -.9375 -.9375 22 20.5)"><stop stop-color="#FFEFFF"/><stop offset="1" stop-color="#FFF2FF" stop-opacity="0"/></radialGradient><radialGradient id="r" cx="0" cy="0" r="1" gradientUnits="userSpaceOnUse" gradientTransform="matrix(-4.20002 2.62497 -1.4747 -2.35956 30 21.875)"><stop stop-color="#FFEFFF"/><stop offset="1" stop-color="#FFF2FF" stop-opacity="0"/></radialGradient><linearGradient id="c" x1="9" y1="18.5" x2="7.5" y2="22" gradientUnits="userSpaceOnUse"><stop stop-color="#E9C9FF"/><stop offset="1" stop-color="#E3B9FF"/></linearGradient><linearGradient id="e" x1="14" y1="18.5" x2="12.5" y2="22" gradientUnits="userSpaceOnUse"><stop stop-color="#E9C9FF"/><stop offset="1" stop-color="#E3B9FF"/></linearGradient><linearGradient id="g" x1="19" y1="18.5" x2="17.5" y2="22" gradientUnits="userSpaceOnUse"><stop stop-color="#E9C9FF"/><stop offset="1" stop-color="#E3B9FF"/></linearGradient><linearGradient id="i" x1="24" y1="18.5" x2="22.5" y2="22" gradientUnits="userSpaceOnUse"><stop stop-color="#E9C9FF"/><stop offset="1" stop-color="#E3B9FF"/></linearGradient><linearGradient id="k" x1="11.5" y1="20.5" x2="10" y2="24" gradientUnits="userSpaceOnUse"><stop stop-color="#E9C9FF"/><stop offset="1" stop-color="#E3B9FF"/></linearGradient><linearGradient id="m" x1="16.5" y1="20.5" x2="15" y2="24" gradientUnits="userSpaceOnUse"><stop stop-color="#E9C9FF"/><stop offset="1" stop-color="#E3B9FF"/></linearGradient><linearGradient id="o" x1="21.5" y1="20.5" x2="20" y2="24" gradientUnits="userSpaceOnUse"><stop stop-color="#E9C9FF"/><stop offset="1" stop-color="#E3B9FF"/></linearGradient><linearGradient id="q" x1="28.6" y1="21.875" x2="26.788" y2="28.64" gradientUnits="userSpaceOnUse"><stop stop-color="#E9C9FF"/><stop offset="1" stop-color="#E3B9FF"/></linearGradient><filter id="a" x="20.629" y="19.576" width="8.387" height="9.401" filterUnits="userSpaceOnUse" color-interpolation-filters="sRGB"><feFlood flood-opacity="0" result="BackgroundImageFix"/><feBlend in="SourceGraphic" in2="BackgroundImageFix" result="shape"/><feGaussianBlur stdDeviation="1" result="effect1_foregroundBlur_30_9"/></filter><filter id="b" x="5.5" y="17.5" width="19.5" height="8" filterUnits="userSpaceOnUse" color-interpolation-filters="sRGB"><feFlood flood-opacity="0" result="BackgroundImageFix"/><feBlend in="SourceGraphic" in2="BackgroundImageFix" result="shape"/><feGaussianBlur stdDeviation=".5" result="effect1_foregroundBlur_30_9"/></filter></defs></svg>