<svg width="32" height="32" fill="none" xmlns="http://www.w3.org/2000/svg"><rect x="12.022" y="20.953" width="7.953" height="5.688" rx="2.8" fill="url(#a)"/><path d="M16 28.5c3.048 0 3.534-2.644 3.629-3.406.072-.617-.254-1.333-.61-1.544-.356-.21-1.422-.406-3.02-.406-1.596 0-2.655.196-3.018.406-.363.21-.69.927-.61 1.544.095.762.58 3.406 3.629 3.406z" fill="url(#b)"/><g opacity=".5" filter="url(#c)"><path d="M17.44 26.686c.726-.363 1.452-1.089 1.452-2.178" stroke="#fff"/></g><defs><radialGradient id="b" cx="0" cy="0" r="1" gradientUnits="userSpaceOnUse" gradientTransform="matrix(0 -7.07513 12.2996 0 15.989 29.406)"><stop offset=".135" stop-color="#FF1C4A"/><stop offset=".62" stop-color="#FF2B8F"/><stop offset=".755" stop-color="#BB0773"/><stop offset=".87" stop-color="#9F0762"/></radialGradient><linearGradient id="a" x1="15.999" y1="20.953" x2="15.999" y2="26.641" gradientUnits="userSpaceOnUse"><stop stop-color="#6D014D"/><stop offset="1" stop-color="#750C3F"/></linearGradient><filter id="c" x="16.216" y="23.508" width="4.175" height="4.625" filterUnits="userSpaceOnUse" color-interpolation-filters="sRGB"><feFlood flood-opacity="0" result="BackgroundImageFix"/><feBlend in="SourceGraphic" in2="BackgroundImageFix" result="shape"/><feGaussianBlur stdDeviation=".5" result="effect1_foregroundBlur_6808_5229"/></filter></defs></svg>